<svg preserveAspectRatio="none" width="100%" height="100%" overflow="visible" style="display: block;" viewBox="0 0 70.8119 48.4426" fill="none" xmlns="http://www.w3.org/2000/svg">
<g id="Group">
<path id="Vector" d="M34.9371 48.2892C34.8512 48.1911 34.7899 47.9458 34.8022 47.7618C34.8512 47.1363 34.8267 47.1118 34.2012 47.1118C33.5512 47.1118 33.4531 47.0136 33.4531 46.3759C33.4531 45.7258 33.5512 45.64 34.2625 45.64H34.9248V45.088C34.9248 44.5852 34.8635 44.4871 34.3239 43.9597C33.4163 43.0766 33.3304 41.8501 34.1276 41.102C34.5078 40.7463 34.5078 40.5991 34.1399 40.2557C33.7597 39.8877 33.6248 39.9123 30.7057 40.8567C26.3394 42.2549 24.3403 42.1567 23.0647 40.501C21.8137 38.882 21.9977 37.1527 23.7638 33.6817C25.1865 30.8853 25.346 30.4806 25.4564 29.4013L25.5422 28.5673L35.4154 28.5795H45.2887L45.4236 29.4749C45.6443 30.8485 45.6934 30.9466 47.5945 34.5157C49.1153 37.3612 48.8945 39.9368 47.0303 41.1878C45.583 42.1567 43.8046 42.0709 40.0638 40.8199C37.3288 39.9123 37.1938 39.8877 36.7891 40.2802C36.507 40.5623 36.4825 40.6482 36.6174 40.8321C37.157 41.5803 37.2552 41.8133 37.2552 42.3652C37.2552 43.0766 36.9117 43.8002 36.3966 44.1682C36.0777 44.4012 36.0287 44.4993 36.0287 45.0267V45.6277L36.6787 45.6645L37.3165 45.7013V46.3759V47.0504L36.6787 47.0872L36.0409 47.124L36.0041 47.7618C35.9674 48.3996 35.9674 48.3996 35.5258 48.4364C35.2437 48.4609 35.0352 48.4118 34.9371 48.2892ZM27.9339 40.317C29.467 39.9859 32.4228 38.9311 32.8766 38.5509C32.987 38.4527 33.0851 38.2075 33.0851 38.0112C33.0851 37.815 33.2813 37.1527 33.5266 36.5272C34.5937 33.7921 34.4956 31.5231 33.2445 30.4315C32.4964 29.7692 31.3312 30.1494 30.8284 31.2287C30.4972 31.9156 30.6199 32.0627 31.4293 31.9646C32.1898 31.8665 32.2756 32.0014 31.969 32.8722C31.8341 33.2402 31.8096 33.2524 31.1227 33.2524H30.3991L30.2519 33.9147C30.0925 34.6261 29.9821 34.7242 29.1726 34.7242C28.7311 34.7242 28.7188 34.6506 28.9886 33.5713L29.0745 33.2156L28.2405 33.3138L27.4065 33.3996L27.4801 32.8968C27.5782 32.1486 27.7254 32.026 28.5471 32.026C29.3566 32.026 29.516 31.9033 29.6141 31.1797C29.7613 30.0758 28.9641 29.7324 27.8971 30.4438C27.0385 31.008 25.7507 32.8477 24.5733 35.1903C22.6968 38.9311 24.144 41.1265 27.9339 40.317ZM46.0491 40.133C47.3369 39.4094 47.4841 37.6923 46.4416 35.4724C45.1783 32.7741 43.4735 30.4561 42.5291 30.174C41.5847 29.8919 41.0695 30.3702 41.2903 31.3391C41.4375 31.9401 41.5724 32.026 42.4064 32.026C43.2404 32.026 43.3876 32.1609 43.3876 32.86V33.3996L42.5904 33.3138C41.7196 33.2279 41.695 33.2402 41.9771 33.9025C42.2592 34.577 42.2224 34.7242 41.7686 34.7242C40.8978 34.7242 40.7629 34.6016 40.6157 33.7798C40.5299 33.277 40.395 33.2034 39.7204 33.2402C39.0336 33.2647 38.9109 33.1421 38.8251 32.3939L38.7883 31.9646L39.4996 31.9278C40.3091 31.891 40.3827 31.7316 39.9166 31.0325C38.2854 28.6041 36.0777 31.0816 36.7646 34.577C36.8872 35.1903 37.157 36.0366 37.6967 37.4225C37.7826 37.6555 37.8561 38.0112 37.8684 38.1952C37.8684 38.6122 38.5184 38.9311 40.7629 39.6792C43.4489 40.5623 45.0311 40.6972 46.0491 40.133Z" fill="var(--fill-0, white)"/>
<path id="Vector_2" d="M25.2842 27.0707C25.2474 26.9848 25.2351 26.5801 25.2597 26.1876L25.2965 25.464H35.415H45.5335L45.5703 26.3593L45.6071 27.2424H35.4763C27.0503 27.2424 25.3332 27.2179 25.2842 27.0707Z" fill="var(--fill-0, white)"/>
<path id="Vector_3" d="M7.35387 20.7913C3.61309 19.7856 3.26967 14.2173 6.86328 12.5861C8.38412 11.887 11.6466 11.9606 11.806 12.6965C12.1617 14.2786 12.174 14.3645 11.9409 14.3645C11.8551 14.3645 11.7447 14.205 11.7079 14.0088C11.5239 13.1257 10.8984 12.7823 9.41437 12.7455C7.14537 12.6842 5.26884 14.7692 5.45282 17.1486C5.61226 19.3318 6.65477 20.3865 8.72754 20.4233C10.4814 20.4479 11.4258 19.9941 11.573 19.0374C11.6466 18.5591 11.7815 18.4119 11.9164 18.6327C11.9409 18.6817 11.99 19.16 12.0023 19.6997L12.0268 20.6686L10.9965 20.8281C9.6474 21.0243 8.16335 21.012 7.35387 20.7913Z" fill="var(--fill-0, white)"/>
<path id="Vector_4" d="M16.6499 19.6752C12.9582 19.062 12.1487 14.2173 15.4602 12.5003C16.8829 11.7644 19.1765 12.1814 20.2558 13.3833C21.6294 14.9164 21.6049 17.5166 20.1945 18.7063C19.2255 19.5158 17.9009 19.8837 16.6499 19.6752ZM18.7104 18.8289C20.8935 17.5534 20.636 13.4201 18.3302 12.7824C16.4169 12.2427 14.7243 13.5673 14.4913 15.7872C14.2215 18.3874 16.564 20.08 18.7104 18.8289Z" fill="var(--fill-0, white)"/>
<path id="Vector_5" d="M38.0643 19.3686C38.0398 19.1479 37.8558 17.6393 37.6718 16.0203C37.3039 12.7579 37.2426 12.5248 36.8991 12.5248C36.7642 12.5248 36.6171 12.4758 36.5803 12.4022C36.5312 12.3286 36.9114 12.2795 37.6105 12.2795C38.2728 12.2795 38.7266 12.3286 38.7266 12.4022C38.7266 12.4758 38.6162 12.5248 38.4813 12.5248C38.3464 12.5248 38.1992 12.6107 38.1502 12.7211C38.0643 12.9541 38.3587 17.1732 38.4813 17.2468C38.5181 17.2713 39.1191 16.1675 39.8059 14.7938C40.5173 13.3711 41.1183 12.2795 41.2164 12.2795C41.3145 12.2795 41.9155 13.3834 42.6391 14.8674C43.3259 16.3024 43.9147 17.443 43.9514 17.4063C44.0373 17.3081 44.3807 13.273 44.3439 12.7701L44.3071 12.3409L45.2883 12.255C45.828 12.2059 46.3431 12.1814 46.429 12.2182C46.6988 12.3163 46.5761 12.5248 46.245 12.5248C45.4355 12.5371 45.227 13.3588 44.7977 18.2893C44.6383 20.1168 44.5402 20.1536 43.8288 18.6327C42.59 15.9958 41.5353 13.9353 41.4126 13.9353C41.339 13.9353 40.6277 15.2231 39.8427 16.8053C38.3587 19.7856 38.1747 20.0555 38.0643 19.3686Z" fill="var(--fill-0, white)"/>
<path id="Vector_6" d="M61.0978 18.5714C59.0373 13.1871 58.7184 12.537 58.142 12.5248C57.9826 12.5248 57.8599 12.4757 57.8599 12.4021C57.8599 12.3285 58.326 12.2795 59.0251 12.2795C59.7242 12.2795 60.1902 12.3285 60.1902 12.4021C60.1902 12.4757 60.1044 12.5248 60.0063 12.5248C59.6628 12.5248 59.6628 12.8805 60.0185 13.8739L60.3619 14.8674L61.5884 14.8306L62.8026 14.7938L63.1583 13.9352C63.3546 13.4692 63.5263 12.8927 63.5385 12.6842L63.5508 12.2795H64.6301C65.783 12.2795 65.9915 12.4021 65.2434 12.6229C64.9613 12.7087 64.7037 12.8927 64.5811 13.1012C64.3603 13.4814 62.8026 17.259 62.3121 18.5959C61.7601 20.1045 61.6865 20.1045 61.0978 18.5714ZM62.079 16.7071C62.3243 16.0816 62.5206 15.5419 62.5206 15.5174C62.5206 15.4929 62.1035 15.4683 61.6007 15.4683C60.5214 15.4683 60.5459 15.3825 61.0733 16.8911C61.5394 18.2034 61.5026 18.2157 62.079 16.7071Z" fill="var(--fill-0, white)"/>
<path id="Vector_7" d="M22.7956 19.528C22.6607 19.4421 22.7098 19.3808 23.0409 19.3072L23.4579 19.1968V15.9466V12.7087L23.1881 12.586C22.673 12.3653 22.906 12.3162 25.0769 12.2304C27.5789 12.1445 27.5666 12.1445 27.6648 13.1257C27.7261 13.788 27.5176 14.021 27.3704 13.4446C27.2478 12.9417 26.8675 12.77 25.8864 12.77C24.5495 12.77 24.6108 12.5983 24.6476 16.1796L24.6844 19.2091L25.0278 19.2459C25.7392 19.3317 25.3099 19.5157 24.4146 19.5157C23.8872 19.5157 23.3475 19.5525 23.2126 19.577C23.0777 19.6138 22.8937 19.5893 22.7956 19.528Z" fill="var(--fill-0, white)"/>
<path id="Vector_8" d="M28.523 19.5646C28.339 19.3929 28.4249 19.2703 28.7315 19.2703C29.2098 19.2703 29.2834 18.9514 29.2834 16.6579C29.2834 14.2049 29.4184 13.5303 30.0439 12.9293C31.16 11.85 33.429 11.8746 34.4592 12.9661C35.1215 13.6775 35.2074 14.0945 35.2687 16.7315L35.3178 19.1599L35.6244 19.2825C36.1395 19.4788 35.8451 19.5769 34.7781 19.5769C33.7724 19.5769 33.3063 19.3929 34.0054 19.2703L34.3734 19.209V16.6333C34.3734 14.2785 34.3488 14.0209 34.1281 13.6407C33.3431 12.3038 31.2949 12.3284 30.5835 13.6898C30.3505 14.119 30.326 14.4379 30.2892 16.4371C30.2401 18.9391 30.2769 19.2703 30.6326 19.2703C30.7552 19.2703 30.9024 19.3316 30.9392 19.3929C30.9883 19.4665 30.7307 19.5156 30.2401 19.5156C29.8108 19.5156 29.2712 19.5524 29.0381 19.5892C28.8051 19.626 28.5721 19.6137 28.523 19.5646Z" fill="var(--fill-0, white)"/>
<path id="Vector_9" d="M47.7422 19.5279C47.6318 19.4297 47.8281 19.2703 48.0489 19.2703C48.3923 19.2703 48.4168 19.0741 48.4168 15.9833C48.4168 12.819 48.38 12.5246 48.0366 12.5246C47.9017 12.5246 47.8036 12.4756 47.8036 12.4142C47.8036 12.2671 50.5632 12.1689 51.1519 12.3038C53.1388 12.7454 53.6171 14.9776 51.9491 16.0446C51.6547 16.2286 51.3972 16.4003 51.3726 16.4126C51.3358 16.4371 51.4585 16.6088 51.6302 16.7928C52.5746 17.7985 52.3293 19.0618 51.1396 19.3929C50.6981 19.5033 47.8281 19.626 47.7422 19.5279ZM50.8698 18.841C51.8264 17.9702 51.2868 16.4494 50.0112 16.4494H49.398V17.8108V19.1844L50.0112 19.1231C50.3669 19.0863 50.7349 18.9637 50.8698 18.841ZM51.0292 15.7503C51.9491 15.2229 52.2312 13.7143 51.5566 13.0275C51.2745 12.7576 51.1273 12.7086 50.5141 12.7086C49.4348 12.7209 49.398 12.7699 49.398 14.5851V16.1182L50.0235 16.0446C50.3669 15.9956 50.8207 15.8729 51.0292 15.7503Z" fill="var(--fill-0, white)"/>
<path id="Vector_10" d="M54.4626 19.479C54.4381 19.4299 54.5485 19.344 54.7079 19.2827C55.1249 19.1233 55.1617 18.8902 55.1495 16.2042C55.1372 13.2729 55.0759 12.7578 54.7079 12.5861C54.1806 12.3531 54.4258 12.2795 55.7137 12.2795C57.026 12.2795 57.3204 12.3776 56.609 12.5861L56.2043 12.7087V15.9589V19.2091L56.4863 19.2459C56.6458 19.2704 56.7439 19.3563 56.7194 19.4299C56.6703 19.5771 54.5608 19.6384 54.4626 19.479Z" fill="var(--fill-0, white)"/>
<path id="Vector_11" d="M0.0313249 8.7471C-0.0790589 8.62445 0.117179 8.47727 0.387006 8.47727C0.963455 8.47727 1.01251 8.26877 1.07384 5.11669C1.13516 2.17312 1.13516 2.16086 1.46631 1.59667C2.34939 0.10036 4.25044 -0.42703 5.93073 0.370187C7.43931 1.08155 7.69687 1.80518 7.80725 5.59502L7.88084 8.2933L8.29785 8.48953C8.86203 8.75936 8.70259 8.80842 7.27986 8.79616C6.42132 8.78389 6.04111 8.73483 6.00432 8.63671C5.97979 8.53859 6.07791 8.47727 6.26188 8.47727C6.94871 8.47727 6.98551 8.33009 6.93645 5.30067C6.89965 2.78637 6.87512 2.47975 6.64209 1.97689C6.13923 0.922107 5.18257 0.431512 4.04194 0.652279C2.45977 0.946636 2.01823 2.05047 2.06729 5.65635C2.09182 8.19518 2.11635 8.30556 2.58242 8.465C2.77866 8.53859 2.91357 8.63671 2.86451 8.68577C2.77866 8.78389 0.117179 8.83295 0.0313249 8.7471Z" fill="var(--fill-0, white)"/>
<path id="Vector_12" d="M47.0421 7.56968C45.1411 6.87059 45.1165 5.26389 46.9808 3.80437C48.3054 2.77412 48.5139 2.57788 48.6611 2.2222C49.1149 1.13062 47.8393 0.198494 46.576 0.701354C46.0854 0.897592 45.8647 1.14289 45.7788 1.63348C45.6439 2.28352 45.4722 2.06276 45.4231 1.19195C45.3618 0.321143 45.5826 0.13717 46.7478 0.0758455C48.6856 -0.0222735 49.814 0.922122 49.5687 2.44297C49.4706 3.08074 48.98 3.66945 47.8271 4.51573C46.6742 5.36201 46.4657 5.6073 46.4534 6.08563C46.4411 7.38571 48.5262 7.61874 49.0413 6.36773C49.1762 6.03657 49.213 6.01204 49.2866 6.22055C49.446 6.62529 49.4092 7.4593 49.2375 7.53289C48.7837 7.7046 47.4714 7.72913 47.0421 7.56968Z" fill="var(--fill-0, white)"/>
<path id="Vector_13" d="M10.3955 7.59404C10.3955 7.56951 10.3832 6.13452 10.3832 4.40517C10.3832 0.934209 10.3342 0.603057 9.90489 0.504938C9.74544 0.468143 9.59826 0.370024 9.56147 0.28417C9.52467 0.149257 9.76997 0.124727 10.7144 0.173786C11.8059 0.210581 12.2843 0.382289 11.6342 0.480408C11.1436 0.553997 11.0823 0.81156 10.9965 3.36265C10.9474 4.72405 10.9229 5.85242 10.9351 5.86469C10.9597 5.88922 11.7078 5.11653 12.6032 4.15987C14.6146 2.01352 16.5402 0.149257 16.7487 0.136992C16.8591 0.136992 16.8959 0.897414 16.8959 3.57116C16.8959 6.87041 16.9081 7.00532 17.1412 7.1525C17.5704 7.42233 17.411 7.49592 16.3439 7.49592C15.7307 7.49592 15.3014 7.44686 15.3014 7.37327C15.3014 7.31194 15.4241 7.25062 15.5835 7.25062C16.1354 7.25062 16.1477 7.17703 16.2336 4.44196L16.3194 1.82954L16.0619 1.96446C15.9269 2.03805 15.792 2.14843 15.7675 2.20976C15.7552 2.27108 14.725 3.37492 13.4862 4.65047C12.2597 5.93828 11.1314 7.12797 10.9965 7.29968C10.8002 7.55724 10.4077 7.74121 10.3955 7.59404Z" fill="var(--fill-0, white)"/>
<path id="Vector_14" d="M56.2038 7.43465C56.1793 7.37333 56.1057 7.12803 56.0321 6.895C55.8358 6.30628 56.0443 6.14684 56.4246 6.57611C56.6821 6.895 56.8048 6.93179 57.7124 6.98085L58.7181 7.04218V3.9269C58.7181 0.762562 58.6936 0.603119 58.3256 0.468205C57.786 0.271967 58.1907 0.161584 59.3681 0.173848C60.5701 0.198378 61.0361 0.370086 60.2512 0.505C59.7483 0.590854 59.7238 0.750297 59.7115 4.11087L59.6993 7.04218L60.5946 6.96859C61.6739 6.88273 61.8947 6.80914 62.0419 6.4412C62.2258 5.92607 62.3975 6.12231 62.3975 6.8582V7.5573H59.3191C57.3689 7.5573 56.216 7.50824 56.2038 7.43465Z" fill="var(--fill-0, white)"/>
<path id="Vector_15" d="M63.7102 7.4717C63.5385 7.37359 63.5753 7.33679 64.0537 7.09149C64.2622 6.99337 64.6301 6.61316 64.8631 6.24522C65.5009 5.31309 66.384 3.92716 66.5557 3.59601C66.8746 2.99503 66.8255 0.652436 66.4944 0.554317C65.9915 0.407138 65.9302 0.370343 66.0038 0.296754C66.1264 0.161841 68.6407 0.137311 68.7143 0.25996C68.7511 0.321284 68.6285 0.407138 68.4445 0.456198C68.2605 0.492992 68.0397 0.542052 67.9662 0.566581C67.7822 0.615641 67.6718 1.33927 67.6718 2.46764C67.6718 3.3875 67.6841 3.41203 68.3832 4.55267C69.5361 6.44146 69.9776 6.98111 70.4437 7.15282C71.0814 7.38585 70.8729 7.55756 69.9531 7.55756C68.9964 7.55756 68.7756 7.48397 69.0087 7.20188C69.0945 7.10376 69.1436 6.96884 69.1191 6.91979C68.8983 6.51504 67.3897 3.93942 67.3652 3.93942C67.218 3.93942 65.4396 7.17735 65.5622 7.22641C65.6481 7.25094 65.7094 7.31226 65.7094 7.37359C65.7094 7.49623 63.8942 7.59435 63.7102 7.4717Z" fill="var(--fill-0, white)"/>
<path id="Vector_16" d="M19.3481 7.37327C19.3481 7.31194 19.4339 7.25062 19.532 7.25062C19.9245 7.25062 19.9858 6.64964 19.9245 3.75513C19.8509 0.713441 19.8264 0.566262 19.4584 0.468143C18.8452 0.3087 19.3235 0.173786 20.4519 0.186051C21.6416 0.198316 22.1322 0.370024 21.3595 0.504938C20.8934 0.590792 20.8444 0.921944 20.8321 4.14761C20.8198 6.62511 20.9057 7.25062 21.2368 7.25062C21.335 7.25062 21.4576 7.31194 21.4944 7.37327C21.5435 7.44686 21.1633 7.49592 20.4642 7.49592C19.8019 7.49592 19.3481 7.44686 19.3481 7.37327Z" fill="var(--fill-0, white)"/>
<path id="Vector_17" d="M23.7023 7.36113C23.6288 7.26301 24.1807 5.84028 25.1864 3.50996C25.2723 3.31372 25.5666 2.59009 25.8487 1.91553C26.1185 1.24096 26.4006 0.56639 26.4742 0.406946C26.6827 -0.0959136 26.9771 0.137119 27.3941 1.11831C27.6026 1.62117 27.8847 2.28347 28.0318 2.59009C28.1668 2.89672 28.6206 3.93923 29.0376 4.92042C29.9574 7.04224 30.0801 7.25075 30.4603 7.25075C30.6197 7.25075 30.7547 7.31207 30.7547 7.37339C30.7547 7.44698 30.3009 7.49604 29.6508 7.49604C29.0008 7.49604 28.547 7.44698 28.547 7.37339C28.547 7.31207 28.6574 7.25075 28.78 7.25075C28.9149 7.25075 29.0498 7.21395 29.0866 7.15263C29.197 6.98092 27.1856 1.84194 27.0016 1.82967C26.9403 1.82967 26.6337 2.5165 26.3148 3.35052C25.9959 4.17226 25.5666 5.2761 25.3704 5.77896C24.8798 7.01771 24.8675 7.17716 25.2109 7.22622C25.3581 7.25075 25.4808 7.32433 25.4808 7.38566C25.4808 7.5451 23.8005 7.52057 23.7023 7.36113Z" fill="var(--fill-0, white)"/>
<path id="Vector_18" d="M31.5275 7.42241C31.5765 7.37335 31.736 7.27523 31.8831 7.20164C32.1652 7.06673 32.1652 7.0422 32.202 4.12316C32.2388 0.799381 32.2266 0.701262 31.7605 0.455964C31.5765 0.34558 31.4539 0.259726 31.4907 0.259726C31.8831 0.161607 35.7834 0.161607 35.8447 0.247461C35.9796 0.480494 36.0655 1.60886 35.9428 1.60886C35.8815 1.60886 35.7466 1.42489 35.6485 1.21639C35.4522 0.762586 34.8758 0.578613 34.005 0.701262C33.2323 0.82391 33.2077 0.87297 33.2077 2.41834V3.81654H33.87C34.7163 3.81654 35.1211 3.66936 35.2069 3.30141C35.3173 2.88441 35.5013 3.1665 35.5749 3.91466C35.6485 4.5279 35.4645 4.80999 35.2314 4.42978C35.1947 4.36846 34.7163 4.30713 34.1767 4.30713H33.2077V5.65627V7.00541H34.0663C34.9371 7.00541 35.2805 6.84596 35.44 6.3799C35.5381 6.11007 35.6239 6.28178 35.6975 6.91955L35.7834 7.496H33.6125C32.4228 7.496 31.4907 7.45921 31.5275 7.42241Z" fill="var(--fill-0, white)"/>
<path id="Vector_19" d="M37.8681 7.38569C37.8681 7.32437 38.0153 7.25078 38.2115 7.22625L38.5427 7.18946L38.5795 4.12324C38.6163 0.750396 38.5917 0.505099 38.236 0.505099C38.0889 0.505099 37.9907 0.419245 37.9907 0.308861C37.9907 0.137153 38.0889 0.112623 38.6408 0.186212C38.9842 0.223007 39.5484 0.259801 39.8673 0.259801C40.2352 0.259801 40.4315 0.308861 40.3824 0.38245C40.3456 0.456039 40.1984 0.505099 40.0758 0.505099C39.6956 0.505099 39.5729 0.922105 39.6097 2.12406L39.6465 3.25243L40.3211 3.21564C40.689 3.20337 41.0324 3.12978 41.0692 3.05619C41.4372 2.46748 43.0316 0.603218 43.326 0.43151C43.559 0.296596 43.9515 0.210742 44.4298 0.210742C45.1902 0.198477 45.4968 0.394715 44.8959 0.517364C44.3194 0.640012 44.0128 0.88531 42.8844 2.20992L41.8051 3.48546L42.2834 4.04965C43.375 5.34972 43.0807 6.96869 41.6579 7.37343C41.1306 7.53287 37.8681 7.53287 37.8681 7.38569ZM40.9343 6.93189C41.707 6.78471 42.1853 5.68088 41.9155 4.66289C41.7193 3.95153 41.3758 3.69397 40.6154 3.69397C39.5484 3.69397 39.5852 3.63264 39.5852 5.41105C39.5852 7.27531 39.5239 7.20172 40.9343 6.93189Z" fill="var(--fill-0, white)"/>
<path id="Vector_20" d="M51.6047 7.38566C51.6047 7.32434 51.7396 7.23849 51.8991 7.20169C52.3038 7.10357 52.3406 6.8828 52.3406 4.17227C52.3406 1.15511 52.2793 0.639984 51.8991 0.492805C51.3226 0.284302 51.6292 0.173918 52.8312 0.173918C54.0331 0.161654 54.4379 0.333362 53.6775 0.50507L53.3831 0.578659L53.3463 3.85338L53.3218 7.1281L53.6284 7.20169C54.2784 7.36113 53.886 7.49605 52.7699 7.49605C52.1321 7.49605 51.6047 7.44699 51.6047 7.38566Z" fill="var(--fill-0, white)"/>
</g>
</svg>
