<svg preserveAspectRatio="none" width="100%" height="100%" overflow="visible" style="display: block;" viewBox="0 0 111.238 29.0291" fill="none" xmlns="http://www.w3.org/2000/svg">
<g id="Group 6">
<path id="Vector" d="M19.4232 22.1031C19.4232 21.7719 19.2124 21.531 18.7909 21.4406V21.2298C19.0318 21.2298 19.8448 21.2599 20.0556 21.2599C20.2664 21.2599 21.0192 21.2298 21.2601 21.2298V21.4406C20.8687 21.531 20.6579 21.7719 20.6579 22.1031V26.2286C20.6579 27.5235 21.3806 28.2763 22.8863 28.2763C24.1811 28.2763 25.1749 27.7042 25.1749 26.319V22.073C25.1749 21.7719 24.9942 21.531 24.5124 21.4105V21.1997C24.693 21.1997 25.3555 21.2298 25.5663 21.2298C25.747 21.2298 26.4396 21.1997 26.6203 21.1997V21.4105C26.1385 21.531 25.9578 21.7418 25.9578 22.073V26.0781C25.9578 27.8848 24.9038 28.9087 22.6453 28.9087C20.5374 28.9087 19.4533 27.9451 19.4533 26.2587L19.4232 22.1031Z" fill="var(--fill-0, white)"/>
<path id="Vector_2" d="M28.4571 28.6377C28.9389 28.5473 29.1497 28.3064 29.1497 28.0053V22.2838C29.1497 21.802 28.8787 21.5912 28.4571 21.4707V21.2599C28.698 21.29 29.1196 21.29 29.3304 21.29C29.5412 21.29 29.8423 21.29 30.023 21.2599L34.9616 27.0718V22.1031C34.9616 21.802 34.7809 21.5611 34.2991 21.4406V21.2298C34.4798 21.2298 35.1121 21.2599 35.353 21.2599C35.5337 21.2599 36.2263 21.2298 36.407 21.2298V21.4406C35.9252 21.5611 35.7144 21.7718 35.7144 22.1031V28.9689H35.4133C35.2326 28.9388 34.8712 28.728 34.3292 28.1257L29.9026 22.9764V28.0053C29.9026 28.3064 30.0832 28.5473 30.565 28.6377V28.8485C30.3844 28.8485 29.752 28.8183 29.5111 28.8183C29.3003 28.8183 28.6378 28.8485 28.4571 28.8485V28.6377Z" fill="var(--fill-0, white)"/>
<path id="Vector_3" d="M67.5442 27.0717H67.755C67.8755 27.4933 68.1164 27.8847 68.4476 28.1256C68.809 28.3665 69.351 28.487 69.8027 28.487C70.7964 28.487 71.4288 28.0052 71.4288 27.2222C71.4288 26.4092 70.6158 25.9876 69.6521 25.5058C68.9294 25.1444 67.5141 24.5422 67.5141 23.1871C67.5141 21.9223 68.4777 21.1093 70.0436 21.1093C71.0675 21.1093 71.5493 21.3502 72.2419 21.32L72.2118 22.8558H72.0612C71.7902 21.9524 70.947 21.6212 70.0436 21.6212C69.0198 21.6212 68.6584 22.1933 68.6584 22.7956C68.6584 23.6388 69.4715 24.0604 70.4351 24.4819C71.489 24.9637 72.6333 25.5359 72.6333 26.8609C72.6333 28.0955 71.6697 29.029 69.8629 29.029C68.809 29.029 68.1766 28.7279 67.6044 28.6677L67.5442 27.0717Z" fill="var(--fill-0, white)"/>
<path id="Vector_4" d="M88.8341 25.6866L86.8165 22.4644C86.4852 21.8923 86.2142 21.5912 85.8227 21.4707V21.2599C86.0938 21.2599 86.8466 21.29 87.0574 21.29C87.2381 21.29 88.0511 21.2599 88.3522 21.2599V21.4707C88.0812 21.5008 87.9608 21.6514 87.9608 21.8321C87.9608 22.0128 88.0812 22.2235 88.2017 22.4042C88.3221 22.5849 89.6772 24.8735 89.6772 24.8735L91.1227 22.4042C91.2732 22.1633 91.3636 21.9224 91.3636 21.7417C91.3636 21.5912 91.2431 21.4707 91.0022 21.4406V21.2298C91.2431 21.2298 91.755 21.2599 91.9056 21.2599C92.0562 21.2599 92.6584 21.2298 92.8993 21.2298V21.4406C92.3573 21.6815 91.9959 22.1332 91.6647 22.7054L89.8278 25.7769L88.8341 25.6866ZM90.0085 25.3854V27.9752C90.0085 28.2462 90.1892 28.5473 90.6409 28.6377V28.8485C90.3999 28.8485 89.5869 28.8183 89.346 28.8183C89.1653 28.8183 88.3824 28.8485 88.1113 28.8485V28.6377C88.563 28.5473 88.7738 28.2462 88.7738 27.9752V25.5059" fill="var(--fill-0, white)"/>
<path id="Vector_5" d="M51.3728 21.2299H56.1006C56.2512 21.2299 56.4921 21.2299 56.6426 21.1395H56.8534L56.8233 22.6753H56.6125C56.4319 22.1935 56.2512 21.802 55.3177 21.802H53.27V24.4821H54.866C55.1069 24.4821 55.3779 24.452 55.4983 24.4219C55.8597 24.3315 56.0103 24.1509 56.0705 23.8497H56.2813C56.2512 24.0906 56.2512 24.6026 56.2512 24.7832C56.2512 24.9338 56.2813 25.5059 56.2813 25.7469H56.0705C55.9802 25.4457 55.8296 25.2048 55.4983 25.1145C55.3779 25.0844 55.1069 25.0542 54.866 25.0542H53.27V28.186H55.4983C56.462 28.186 56.7631 27.7946 57.004 27.1923L57.2148 27.2525L57.004 28.8184C56.2813 28.7582 55.8296 28.7582 55.0165 28.7582H52.6677C52.4268 28.7582 51.6137 28.7883 51.3728 28.7883V28.5775C51.7944 28.4872 52.0353 28.2764 52.0353 27.8849V22.1032C52.0353 21.7418 51.8546 21.531 51.3728 21.4407V21.2299Z" fill="var(--fill-0, white)"/>
<path id="Vector_6" d="M39.2674 22.1631C39.2674 21.7716 39.0265 21.5609 38.5748 21.4705V21.2597C38.8157 21.2597 39.6588 21.2898 39.8997 21.2898C40.1105 21.2898 40.9537 21.2597 41.1946 21.2597V21.4705C40.7429 21.5609 40.502 21.7716 40.502 22.1631V27.9449C40.502 28.3363 40.7429 28.5471 41.1946 28.6375V28.8482C40.9236 28.8482 40.1406 28.8181 39.8997 28.8181C39.6889 28.8181 38.8458 28.8482 38.5748 28.8482V28.6375C39.0566 28.5471 39.2674 28.3363 39.2674 27.9449V22.1631Z" fill="var(--fill-0, white)"/>
<path id="Vector_7" d="M75.1624 22.1631C75.1624 21.7716 74.9215 21.5609 74.4698 21.4705V21.2597C74.7107 21.2597 75.5539 21.2898 75.7948 21.2898C76.0056 21.2898 76.8488 21.2597 77.0897 21.2597V21.4705C76.638 21.5609 76.3971 21.7716 76.3971 22.1631V27.9449C76.3971 28.3363 76.638 28.5471 77.0897 28.6375V28.8482C76.8488 28.8482 76.0357 28.8181 75.7948 28.8181C75.584 28.8181 74.7409 28.8482 74.4698 28.8482V28.6375C74.9215 28.5471 75.1624 28.3363 75.1624 27.9449V22.1631Z" fill="var(--fill-0, white)"/>
<path id="Vector_8" d="M81.7275 21.2598C79.1378 21.2598 78.7162 21.1996 78.1741 21.1694V22.7353H78.3849C78.5656 22.0427 78.9571 21.8922 79.469 21.8922H81.0951V27.9148C81.0951 28.3364 80.8843 28.5171 80.4025 28.6074V28.8182C80.6735 28.8182 81.5167 28.7881 81.7275 28.7881C81.9684 28.7881 82.7815 28.8182 83.0224 28.8182V28.6074C82.5707 28.5171 82.3298 28.3063 82.3298 27.9148V21.8922H83.9559C84.4678 21.8922 84.8593 22.0728 85.04 22.7353H85.2507V21.1694C84.7388 21.2297 84.3473 21.2598 81.7275 21.2598Z" fill="var(--fill-0, white)"/>
<path id="Vector_9" d="M61.0397 27.915C61.0397 28.3064 61.2806 28.5172 61.7323 28.6076V28.8184C61.4914 28.8184 60.6482 28.7882 60.4073 28.7882C60.1965 28.7882 59.3834 28.8184 59.1425 28.8184V28.6076C59.5641 28.5172 59.805 28.3064 59.805 27.915V22.1031C59.805 21.7418 59.6244 21.531 59.1425 21.4406V21.2298C59.4136 21.2298 60.1965 21.2599 60.4374 21.2599C60.7988 21.2599 61.8527 21.1997 62.2743 21.1997C64.0811 21.1997 65.105 21.9525 65.105 23.2474C65.105 24.2713 64.3521 24.9338 63.1777 25.2349C63.1777 25.2349 63.4487 25.3855 63.7197 25.6866C64.051 26.0479 64.8942 27.3127 65.2555 27.7343C65.6169 28.1559 66.0686 28.6678 66.5504 28.6678V28.8485C66.3095 28.9087 65.9481 28.9388 65.647 28.9388C65.0146 28.9388 64.5328 28.728 64.051 28.1258C63.6294 27.6138 62.9368 26.59 62.5152 26.0479C62.2442 25.7167 61.9431 25.4457 61.3408 25.3553C61.2203 25.3252 61.13 25.3252 60.9794 25.2951L61.0397 27.915ZM61.0397 24.8434C61.2806 24.8735 61.6419 24.9036 62.0033 24.9036C63.4186 24.9036 63.8703 24.0906 63.8703 23.3679C63.8703 22.344 63.1777 21.7116 61.9431 21.7116C61.672 21.7116 61.3107 21.7418 61.0397 21.802V24.8434Z" fill="var(--fill-0, white)"/>
<path id="Vector_10" d="M43.032 22.1932C42.8513 21.8319 42.6104 21.5609 42.1888 21.4705V21.2597C42.4598 21.2597 43.3933 21.2898 43.6041 21.2898C43.7848 21.2898 44.5978 21.2597 44.899 21.2597V21.4705C44.6581 21.5006 44.3569 21.6512 44.3569 21.8921C44.3569 22.0728 44.4774 22.3137 44.6882 22.7654L46.6455 27.2221L48.5126 22.7654C48.6631 22.404 48.7535 22.133 48.7535 21.9222C48.7535 21.6813 48.5427 21.5307 48.2114 21.4705V21.2597C48.4523 21.2597 49.0546 21.2898 49.2353 21.2898C49.416 21.2898 50.1086 21.2597 50.3796 21.2597V21.4705C49.9279 21.591 49.6267 21.862 49.3858 22.4642L46.6455 28.9085H46.0132L43.032 22.1932Z" fill="var(--fill-0, white)"/>
<path id="Vector_11" d="M50.0183 1.89723C49.6871 1.20463 49.2053 0.692704 48.3922 0.512025V0.120553C48.9041 0.120553 50.5905 0.18078 50.982 0.18078C51.3433 0.18078 52.9694 0.120553 53.5115 0.120553V0.512025C53.0598 0.602365 52.5177 0.873383 52.5177 1.35519C52.5177 1.68644 52.7285 2.16825 53.12 3.04153L56.8239 11.4732L60.3472 3.01142C60.6182 2.31882 60.829 1.80689 60.829 1.38531C60.829 0.93361 60.4074 0.632478 59.8352 0.512025V0.120553C60.3171 0.120553 61.4312 0.18078 61.7926 0.18078C62.1238 0.18078 63.4488 0.120553 63.9608 0.120553V0.512025C63.0875 0.752931 62.5454 1.26486 62.0636 2.37904L56.8842 14.5749H55.7097L50.0183 1.89723Z" fill="var(--fill-0, white)"/>
<path id="Vector_12" d="M0.0301128 14.0929C0.692603 13.9424 1.17442 13.6412 1.17442 12.8583V1.6863C1.17442 0.963581 0.722717 0.662449 0.0301128 0.451656V0.0601848C0.391471 0.0601848 1.89713 0.120411 2.2886 0.120411C2.71019 0.120411 4.30619 0.0601848 4.66755 0.0601848V0.451656C4.00506 0.602222 3.49313 0.903355 3.49313 1.6863V6.35385H11.8044V1.6863C11.8044 0.933468 11.3527 0.632336 10.6601 0.451656V0.0601848C11.0214 0.0601848 12.5873 0.120411 13.0089 0.120411C13.3703 0.120411 14.9362 0.0601848 15.2975 0.0601848V0.451656C14.635 0.602222 14.1231 0.903355 14.1231 1.6863V12.8583C14.1231 13.581 14.6049 13.9123 15.2975 14.0929V14.4543C14.9362 14.4543 13.4004 14.4242 13.0089 14.4242C12.5873 14.4242 11.0214 14.4543 10.6601 14.4543V14.0929C11.3226 13.9424 11.8044 13.6412 11.8044 12.8583V7.58849H3.46302V12.8583C3.46302 13.6111 3.91472 13.9123 4.63743 14.0929V14.4543C4.27608 14.4543 2.68008 14.4242 2.25849 14.4242C1.89713 14.4242 0.361359 14.4543 0 14.4543L0.0301128 14.0929Z" fill="var(--fill-0, white)"/>
<path id="Vector_13" d="M96.3022 14.093C97.1755 13.9424 97.6573 13.6112 97.6573 12.7981V1.71645C97.6573 0.963623 97.1755 0.662491 96.3625 0.481811V0.0903394C96.8443 0.0903394 98.4101 0.150566 98.8317 0.150566C99.5243 0.150566 101.482 0 103.017 0C108.137 0 111.238 2.86076 111.238 7.19706C111.238 11.4129 107.986 14.5447 102.716 14.5447C101.181 14.5447 99.3738 14.4242 98.6812 14.4242C98.2596 14.4242 96.784 14.4845 96.3022 14.4845V14.093ZM99.9459 13.3703C100.458 13.4606 101.421 13.5208 102.204 13.5208C106.511 13.5208 108.739 10.9311 108.739 7.31751C108.739 3.58347 106.39 0.93351 102.355 0.93351C101.542 0.93351 100.518 0.993736 99.9459 1.08408V13.3703Z" fill="var(--fill-0, white)"/>
<path id="Vector_14" d="M38.3343 12.7678C38.3343 13.5206 38.8161 13.9121 39.6593 14.0928V14.4843C39.1775 14.4843 37.6116 14.424 37.1599 14.424C36.7684 14.424 35.2326 14.4843 34.7508 14.4843V14.0928C35.5639 13.9422 36.0156 13.5507 36.0156 12.7678V1.74636C36.0156 1.08387 35.6542 0.632173 34.7508 0.481607V0.090135C35.2326 0.090135 36.7684 0.150362 37.19 0.150362C37.8826 0.150362 39.9002 0.0299089 40.6831 0.0299089C44.116 0.0299089 46.0433 1.44523 46.0433 3.8844C46.0433 5.81165 44.5978 7.10651 42.4297 7.61844C42.4297 7.61844 42.9416 7.91957 43.4234 8.49172C44.0257 9.21444 45.712 11.5934 46.3745 12.4366C47.037 13.2496 47.9103 14.1831 48.8438 14.2132V14.5445C48.3921 14.6348 47.6694 14.7252 47.1274 14.7252C45.9529 14.7252 45.0194 14.3036 44.116 13.2195C43.3331 12.2559 41.978 10.2383 41.1649 9.24455C40.653 8.61217 40.0508 8.10025 38.9366 7.91957C38.7258 7.88946 38.515 7.85934 38.2741 7.82923L38.3343 12.7678ZM38.3343 6.92583C38.786 6.98606 39.4786 7.01617 40.1411 7.01617C42.8513 7.01617 43.6945 5.4804 43.6945 4.09519C43.6945 2.13783 42.3996 0.963419 40.0508 0.963419C39.5689 0.963419 38.8462 1.02364 38.3644 1.11398V6.92583H38.3343Z" fill="var(--fill-0, white)"/>
<path id="Vector_15" d="M83.7452 12.7678C83.7452 13.5206 84.227 13.9121 85.0702 14.0928V14.4843C84.5883 14.4843 83.0225 14.424 82.5708 14.424C82.1793 14.424 80.6435 14.4843 80.1617 14.4843V14.0928C80.9748 13.9422 81.4265 13.5507 81.4265 12.7678V1.74636C81.4265 1.08387 81.0651 0.632173 80.1617 0.481607V0.090135C80.6435 0.090135 82.1492 0.150362 82.6009 0.150362C83.2935 0.150362 85.3111 0.0299089 86.094 0.0299089C89.5269 0.0299089 91.4542 1.44523 91.4542 3.8844C91.4542 5.81165 90.0388 7.10651 87.8406 7.61844C87.8406 7.61844 88.3525 7.91957 88.8343 8.49172C89.4366 9.21444 91.1229 11.5934 91.7854 12.4366C92.478 13.2496 93.3212 14.1831 94.2547 14.2132V14.5445C93.803 14.6348 93.1104 14.7252 92.5683 14.7252C91.3939 14.7252 90.4604 14.3036 89.557 13.2195C88.7741 12.2559 87.419 10.2383 86.6059 9.24455C86.094 8.61217 85.4917 8.10025 84.4077 7.91957C84.1969 7.88946 83.9861 7.85934 83.7452 7.82923V12.7678ZM83.7452 6.92583C84.1969 6.98606 84.8895 7.01617 85.552 7.01617C88.232 7.01617 89.1053 5.4804 89.1053 4.09519C89.1053 2.13783 87.8105 0.963419 85.4616 0.963419C84.9798 0.963419 84.2571 1.02364 83.7753 1.11398L83.7452 6.92583Z" fill="var(--fill-0, white)"/>
<path id="Vector_16" d="M17.4661 14.093C18.3695 13.8822 18.8814 13.2799 19.2126 12.497L23.8199 1.41532C24.0307 0.963623 24.2415 0 24.2415 0H25.5364C25.5364 0 25.7773 0.93351 25.958 1.41532L30.8363 12.5271C31.1977 13.2799 31.559 13.8521 32.5227 14.093V14.4543C31.9806 14.4543 30.3545 14.4242 29.9932 14.4242C29.6318 14.4242 28.0659 14.4543 27.5239 14.4543V14.093C28.2466 13.9123 28.4574 13.5509 28.4574 13.2197C28.4574 12.9186 28.3369 12.5873 28.1864 12.2561L27.1324 9.87713H21.7722L20.8086 12.2862C20.6882 12.5572 20.5677 12.9487 20.5677 13.1896C20.5677 13.5811 20.7785 13.9123 21.5916 14.1231V14.4845C21.1098 14.4845 19.845 14.4543 19.574 14.4543L17.4962 14.4845V14.093H17.4661ZM26.6506 8.70272L24.362 3.37268L22.2239 8.70272H26.6506Z" fill="var(--fill-0, white)"/>
<path id="Vector_17" d="M63.1478 14.093C64.0512 13.8822 64.5631 13.2799 64.8943 12.497L69.5017 1.41532C69.6823 0.963623 69.9232 0 69.9232 0H71.2181C71.2181 0 71.459 0.93351 71.6397 1.41532L76.518 12.5271C76.8493 13.2799 77.2407 13.8521 78.2044 14.093V14.4543C77.6924 14.4543 76.0362 14.4242 75.6749 14.4242C75.3135 14.4242 73.7476 14.4543 73.2056 14.4543V14.093C73.9283 13.9123 74.1391 13.5509 74.1391 13.2197C74.1391 12.9186 74.0186 12.5873 73.8681 12.2561L72.8141 9.87713H67.454L66.4903 12.2862C66.3699 12.5572 66.2494 12.9487 66.2494 13.1896C66.2494 13.5811 66.4602 13.9123 67.2733 14.1231V14.4845C66.7915 14.4845 65.5267 14.4543 65.2256 14.4543L63.1478 14.4845V14.093ZM72.3323 8.70272L70.0437 3.37268L67.9057 8.70272H72.3323Z" fill="var(--fill-0, white)"/>
</g>
</svg>
