<svg preserveAspectRatio="none" width="100%" height="100%" overflow="visible" style="display: block;" viewBox="0 0 30.3541 36.0756" fill="none" xmlns="http://www.w3.org/2000/svg">
<g id="Group 5">
<g id="Vector">
</g>
<path id="Vector_2" d="M15.3276 36.0756L15.2373 36.0455C15.0867 35.9853 1.08408 29.9325 0 11.5032V0H30.3541V11.5032C30.3541 16.0503 28.9087 27.4934 15.3878 36.0455L15.3276 36.0756ZM0.391473 0.331243V11.4731C1.41532 28.9388 14.1532 35.1421 15.3276 35.654C28.6075 27.1922 30.053 15.9299 30.053 11.4731V0.331243H0.391473Z" fill="var(--fill-0, white)"/>
<path id="Vector_3" d="M22.9763 14.7255C22.9763 14.7255 22.7053 15.5687 21.5309 14.6954L17.4355 14.605C17.4355 14.605 16.8935 14.7857 16.8332 14.2136C16.8332 14.2136 16.9236 13.0994 16.8935 13.009C16.8935 13.009 16.9236 12.6778 16.3815 12.6778C16.3815 12.6778 15.5384 12.7681 15.5384 12.0454C15.5384 12.0454 15.3878 11.2625 16.5321 11.2926C16.5321 11.2926 16.8935 11.4733 16.9236 10.9915C16.9236 10.9915 16.8634 7.82957 16.8935 7.58866C16.8935 7.58866 16.9838 7.28753 16.4418 7.25742C16.4418 7.25742 15.6287 7.4381 15.5384 6.89606C15.5384 6.89606 15.4781 6.083 16.0202 6.05289C16.0202 6.05289 16.6827 6.11312 16.8031 5.93244C16.8031 5.93244 16.9537 6.02278 16.9236 5.45062L16.9537 4.45689C16.9537 4.45689 17.0139 4.18587 17.4355 4.21599C17.4355 4.21599 18.1883 4.27621 18.2787 4.18587C18.2787 4.18587 18.4594 3.97508 18.4895 3.88474C18.4895 3.88474 18.8809 3.85462 18.9412 3.94496C18.9412 3.94496 19.5133 4.33644 21.7417 4.18587C21.7417 4.18587 22.0729 4.18587 22.1633 4.27621C22.1633 4.27621 22.5849 4.60745 22.8258 4.2461C22.8258 4.2461 23.1871 4.18587 24.2712 4.18587C24.2712 4.18587 25.4757 4.487 26.2888 3.82451L26.5598 3.88474C26.5598 3.88474 26.891 4.45689 27.132 4.27621C27.132 4.27621 27.8547 4.21598 27.9751 4.33644C27.9751 4.33644 28.216 4.6978 28.0956 5.66142C28.0956 5.66142 27.945 6.083 28.6677 6.083C28.6677 6.083 29.4808 5.93244 29.3603 6.68527C29.3603 6.68527 29.5711 7.52844 28.2461 7.40798C28.2461 7.40798 28.0655 7.64889 28.0956 7.82957C28.0956 7.82957 28.0655 10.6 28.0354 10.9011C28.0354 10.9011 28.0052 11.3227 28.6075 11.3227C28.6075 11.3227 29.3904 11.2625 29.4206 11.9852C29.4206 11.9852 29.5109 12.9187 28.3967 12.738C28.3967 12.738 28.0655 12.7983 28.0052 13.009L27.945 14.2136C27.945 14.2136 27.9751 14.8158 27.2825 14.6653C27.1922 14.6653 23.4883 14.7255 23.1871 14.6352C23.1871 14.6352 23.0064 14.6352 22.9763 14.7255Z" fill="var(--fill-0, white)"/>
<path id="Vector_4" d="M15.1169 18.7906C15.1169 18.7906 15.2976 18.7303 15.3277 18.6099C15.3277 18.6099 15.8396 18.5497 15.8999 18.4894L17.4959 18.6099C17.4959 18.6099 19.0617 18.7303 19.7543 18.2485C19.7543 18.2485 19.9953 18.2485 20.1759 18.3088C20.1759 18.3088 20.5072 18.369 20.5975 18.5195L21.531 18.4894C21.531 18.4894 22.0731 18.6701 22.0128 19.0014V19.4531C22.0128 19.4531 21.9225 20.3263 22.1634 20.3866H22.856C22.856 20.3866 23.4282 20.6576 23.3679 20.9888C23.3679 20.9888 23.398 21.4706 22.8861 21.561C22.8861 21.561 22.3742 21.7115 22.1935 21.6814C22.1935 21.6814 22.0128 21.8922 21.9827 22.1632L21.9225 25.3552C21.9225 25.3552 21.8623 25.6865 22.3742 25.6564C22.3742 25.6564 23.127 25.5962 23.3378 25.9876C23.3378 25.9876 23.5185 26.6802 23.1571 26.8007L22.856 26.9512L22.2236 27.0416C22.2236 27.0416 21.9526 27.0717 21.9225 27.5234V28.3666C21.9225 28.3666 21.9526 28.9387 21.5009 28.9387L20.8083 28.9989C20.8083 28.9989 20.6276 29.1495 20.2964 29.0592C20.2964 29.0592 16.1709 29.1194 16.0203 29.0893L15.5385 29.1796C15.5385 29.1796 14.9965 29.6614 14.5749 29.3001L14.2436 29.0291C14.2436 29.0291 14.0027 29.0893 13.9124 29.0592C13.822 29.0291 9.33518 29.1194 9.33518 29.1194C9.33518 29.1194 8.37155 29.2097 8.31132 28.9086C8.31132 28.9086 8.19087 27.674 8.2511 27.5234C8.2511 27.5234 8.2511 27.162 8.04031 27.1319C8.04031 27.1319 7.07668 27.0717 7.07668 26.9814C7.07668 26.9814 6.56476 26.62 6.71533 26.2586C6.71533 26.2586 6.896 25.7768 7.40793 25.7166C7.40793 25.7166 8.19087 25.8371 8.19087 25.6263C8.19087 25.6263 8.2511 25.4757 8.2511 25.2348C8.2511 25.2348 8.31133 22.3439 8.28121 22.1331C8.28121 22.1331 8.34144 21.7718 8.04031 21.7718C8.04031 21.7718 7.70906 21.8621 7.46816 21.7115C7.46816 21.7115 6.89601 21.7417 6.77555 21.29C6.77555 21.29 6.68521 20.9888 6.83578 20.7479C6.83578 20.7479 7.1068 20.2059 7.88974 20.3866C7.88974 20.3866 8.31133 20.507 8.37155 20.2059L8.34144 19.0315C8.34144 19.0315 8.2511 18.7002 8.85336 18.5497C8.85336 18.5497 9.63631 18.7605 9.87721 18.369C9.87721 18.369 10.1482 17.8269 10.359 18.1883C10.359 18.1883 10.8107 18.64 12.0755 18.5798C12.0755 18.5798 14.2737 18.3991 14.3039 18.5195C14.3039 18.5195 14.8459 18.5798 14.9965 18.7605L15.1169 18.7906Z" fill="var(--fill-0, white)"/>
<path id="Vector_5" d="M8.52172 14.7253C8.52172 14.7253 8.2507 15.5685 7.07628 14.6952L2.98088 14.6049C2.98088 14.6049 2.43885 14.7856 2.37862 14.2134C2.37862 14.2134 2.46896 13.0992 2.43884 13.0089C2.43884 13.0089 2.46896 12.6776 1.92692 12.6776C1.92692 12.6776 1.11386 12.768 1.08375 12.0453C1.08375 12.0453 0.933185 11.2623 2.07749 11.2924C2.07749 11.2924 2.43885 11.4731 2.46896 10.9913C2.46896 10.9913 2.40873 7.82941 2.43884 7.5885C2.43884 7.5885 2.52918 7.28737 1.98715 7.25726C1.98715 7.25726 1.17409 7.43794 1.08375 6.8959C1.08375 6.8959 1.02353 6.08284 1.56556 6.05273C1.56556 6.05273 2.22806 6.11296 2.34851 5.93228C2.34851 5.93228 2.49907 6.02261 2.46896 5.45046L2.49907 4.45673C2.49907 4.45673 2.5593 4.18571 2.98088 4.21582C2.98088 4.21582 3.73371 4.27605 3.82405 4.18571C3.82405 4.18571 4.00473 3.97492 4.03485 3.85447C4.03485 3.85447 4.42632 3.82435 4.48654 3.91469C4.48654 3.91469 5.0587 4.30616 7.28707 4.1556C7.28707 4.1556 7.61832 4.1556 7.70866 4.24593C7.70866 4.24593 8.13025 4.54707 8.37115 4.21582C8.37115 4.21582 8.73251 4.1556 9.81658 4.1556C9.81658 4.1556 10.991 4.45673 11.8342 3.79424L12.1052 3.85447C12.1052 3.85447 12.4364 4.42661 12.6773 4.24593C12.6773 4.24593 13.4001 4.18571 13.5205 4.30616C13.5205 4.30616 13.7614 4.66752 13.641 5.63114C13.641 5.63114 13.4904 6.05273 14.2131 6.05273C14.2131 6.05273 15.0262 5.90216 14.9057 6.65499C14.9057 6.65499 15.1165 7.49816 13.7915 7.37771C13.7915 7.37771 13.6108 7.61862 13.641 7.79929C13.641 7.79929 13.6108 10.5697 13.5807 10.8708C13.5807 10.8708 13.5506 11.2924 14.1529 11.2924C14.1529 11.2924 14.9358 11.2322 14.9659 11.9549C14.9659 11.9549 15.0563 12.8884 13.9421 12.7077C13.9421 12.7077 13.6108 12.768 13.5506 12.9788L13.4904 14.1833C13.4904 14.1833 13.5205 14.7856 12.8279 14.635C12.7376 14.635 9.03364 14.6952 8.73251 14.6049C8.73251 14.635 8.55183 14.635 8.52172 14.7253Z" fill="var(--fill-0, white)"/>
<path id="Vector_6" d="M22.9763 14.7255C22.9763 14.7255 22.7053 15.5687 21.5309 14.6954L17.4355 14.605C17.4355 14.605 16.8935 14.7857 16.8332 14.2136C16.8332 14.2136 16.9236 13.0994 16.8935 13.009C16.8935 13.009 16.9236 12.6778 16.3815 12.6778C16.3815 12.6778 15.5384 12.7681 15.5384 12.0454C15.5384 12.0454 15.3878 11.2625 16.5321 11.2926C16.5321 11.2926 16.8935 11.4733 16.9236 10.9915C16.9236 10.9915 16.8634 7.82957 16.8935 7.58866C16.8935 7.58866 16.9838 7.28753 16.4418 7.25742C16.4418 7.25742 15.6287 7.4381 15.5384 6.89606C15.5384 6.89606 15.4781 6.083 16.0202 6.05289C16.0202 6.05289 16.6827 6.11312 16.8031 5.93244C16.8031 5.93244 16.9537 6.02278 16.9236 5.45062L16.9537 4.45689C16.9537 4.45689 17.0139 4.18587 17.4355 4.21599C17.4355 4.21599 18.1883 4.27621 18.2787 4.18587C18.2787 4.18587 18.4594 3.97508 18.4895 3.88474C18.4895 3.88474 18.8809 3.85462 18.9412 3.94496C18.9412 3.94496 19.5133 4.33644 21.7417 4.18587C21.7417 4.18587 22.0729 4.18587 22.1633 4.27621C22.1633 4.27621 22.5849 4.60745 22.8258 4.2461C22.8258 4.2461 23.1871 4.18587 24.2712 4.18587C24.2712 4.18587 25.4757 4.487 26.2888 3.82451L26.5598 3.88474C26.5598 3.88474 26.891 4.45689 27.132 4.27621C27.132 4.27621 27.8547 4.21598 27.9751 4.33644C27.9751 4.33644 28.216 4.6978 28.0956 5.66142C28.0956 5.66142 27.945 6.083 28.6677 6.083C28.6677 6.083 29.4808 5.93244 29.3603 6.68527C29.3603 6.68527 29.5711 7.52844 28.2461 7.40798C28.2461 7.40798 28.0655 7.64889 28.0956 7.82957C28.0956 7.82957 28.0655 10.6 28.0354 10.9011C28.0354 10.9011 28.0052 11.3227 28.6075 11.3227C28.6075 11.3227 29.3904 11.2625 29.4206 11.9852C29.4206 11.9852 29.5109 12.9187 28.3967 12.738C28.3967 12.738 28.0655 12.7983 28.0052 13.009L27.945 14.2136C27.945 14.2136 27.9751 14.8158 27.2825 14.6653C27.1922 14.6653 23.4883 14.7255 23.1871 14.6352C23.1871 14.6352 23.0064 14.6352 22.9763 14.7255Z" fill="var(--fill-0, #1E1E1E)"/>
<path id="Vector_7" d="M22.9763 14.7255C22.9763 14.7255 22.7053 15.5687 21.5309 14.6954L17.4355 14.605C17.4355 14.605 16.8935 14.7857 16.8332 14.2136C16.8332 14.2136 16.9236 13.0994 16.8935 13.009C16.8935 13.009 16.9236 12.6778 16.3815 12.6778C16.3815 12.6778 15.5384 12.7681 15.5384 12.0454C15.5384 12.0454 15.3878 11.2625 16.5321 11.2926C16.5321 11.2926 16.8935 11.4733 16.9236 10.9915C16.9236 10.9915 16.8634 7.82957 16.8935 7.58866C16.8935 7.58866 16.9838 7.28753 16.4418 7.25742C16.4418 7.25742 15.6287 7.4381 15.5384 6.89606C15.5384 6.89606 15.4781 6.083 16.0202 6.05289C16.0202 6.05289 16.6827 6.11312 16.8031 5.93244C16.8031 5.93244 16.9537 6.02278 16.9236 5.45062L16.9537 4.45689C16.9537 4.45689 17.0139 4.18587 17.4355 4.21599C17.4355 4.21599 18.1883 4.27621 18.2787 4.18587C18.2787 4.18587 18.4594 3.97508 18.4895 3.88474C18.4895 3.88474 18.8809 3.85462 18.9412 3.94496C18.9412 3.94496 19.5133 4.33644 21.7417 4.18587C21.7417 4.18587 22.0729 4.18587 22.1633 4.27621C22.1633 4.27621 22.5849 4.60745 22.8258 4.2461C22.8258 4.2461 23.1871 4.18587 24.2712 4.18587C24.2712 4.18587 25.4757 4.487 26.2888 3.82451L26.5598 3.88474C26.5598 3.88474 26.891 4.45689 27.132 4.27621C27.132 4.27621 27.8547 4.21598 27.9751 4.33644C27.9751 4.33644 28.216 4.6978 28.0956 5.66142C28.0956 5.66142 27.945 6.083 28.6677 6.083C28.6677 6.083 29.4808 5.93244 29.3603 6.68527C29.3603 6.68527 29.5711 7.52844 28.2461 7.40798C28.2461 7.40798 28.0655 7.64889 28.0956 7.82957C28.0956 7.82957 28.0655 10.6 28.0354 10.9011C28.0354 10.9011 28.0052 11.3227 28.6075 11.3227C28.6075 11.3227 29.3904 11.2625 29.4206 11.9852C29.4206 11.9852 29.5109 12.9187 28.3967 12.738C28.3967 12.738 28.0655 12.7983 28.0052 13.009L27.945 14.2136C27.945 14.2136 27.9751 14.8158 27.2825 14.6653C27.1922 14.6653 23.4883 14.7255 23.1871 14.6352C23.1871 14.6352 23.0064 14.6352 22.9763 14.7255Z" stroke="var(--stroke-0, #1E1E1E)" stroke-width="0.164"/>
<path id="Vector_8" d="M18.369 4.69777C18.369 4.69777 18.4292 5.17958 18.4292 5.30003C18.4292 5.42049 18.369 12.3164 18.369 12.3164C18.369 12.3164 18.4292 12.8584 17.9775 13.1295C17.9775 13.1295 17.857 13.1897 17.8269 12.8283L17.8872 5.54094C17.857 5.54094 17.9173 4.66766 18.369 4.69777Z" fill="var(--fill-0, white)"/>
<path id="Vector_9" d="M18.369 4.69777C18.369 4.69777 18.4292 5.17958 18.4292 5.30003C18.4292 5.42049 18.369 12.3164 18.369 12.3164C18.369 12.3164 18.4292 12.8584 17.9775 13.1295C17.9775 13.1295 17.857 13.1897 17.8269 12.8283L17.8872 5.54094C17.857 5.54094 17.9173 4.66766 18.369 4.69777Z" stroke="var(--stroke-0, #1E1E1E)" stroke-width="0.1722"/>
<path id="Vector_10" d="M17.5554 13.2196C17.5554 13.2196 17.6156 6.35374 17.5855 6.23329C17.5554 6.11284 17.6156 6.32363 17.6156 6.32363C17.6156 6.32363 17.5554 5.1191 17.8565 4.63729C17.8565 4.63729 17.7662 4.2157 17.194 4.72763L17.1639 5.72137C17.1639 5.72137 17.1639 6.29352 16.652 6.2634C16.652 6.2634 16.0798 6.23329 15.8088 6.50431C15.8088 6.50431 15.6583 7.04634 16.2304 6.956C16.2304 6.956 17.1037 6.95601 17.1639 7.31737L17.1037 10.9912C17.1037 10.9912 17.3145 11.5934 16.6219 11.5934C16.6219 11.5934 15.7787 11.5332 15.8088 12.0451C15.8088 12.0451 15.9895 12.4667 16.6821 12.3463C16.6821 12.3463 17.194 12.4366 17.1639 12.9184V13.8519C17.1639 13.8519 17.1037 14.2133 17.5855 14.2434H21.3798C21.3798 14.2434 21.5604 14.2735 21.5604 14.0326C21.5604 14.0326 21.5303 13.8519 21.2593 13.8519L18.0974 13.7917C18.1275 13.7917 17.6156 13.9724 17.5554 13.2196Z" fill="var(--fill-0, white)"/>
<path id="Vector_11" d="M18.3089 13.1897C18.3089 13.1897 18.2186 13.521 18.5799 13.4607H21.0793L21.7719 13.6113C21.7719 13.6113 22.4645 13.4306 21.7719 13.0391C21.7719 13.0391 19.5435 13.0693 19.3328 13.009C19.3328 13.009 18.8811 12.8886 18.7606 12.8585C18.7606 12.8886 18.5197 12.7982 18.3089 13.1897Z" fill="var(--fill-0, white)"/>
<path id="Vector_12" d="M18.3089 13.1897C18.3089 13.1897 18.2186 13.521 18.5799 13.4607H21.0793L21.7719 13.6113C21.7719 13.6113 22.4645 13.4306 21.7719 13.0391C21.7719 13.0391 19.5435 13.0693 19.3328 13.009C19.3328 13.009 18.8811 12.8886 18.7606 12.8585C18.7606 12.8886 18.5197 12.7982 18.3089 13.1897Z" stroke="var(--stroke-0, #1E1E1E)" stroke-width="0.1722"/>
<path id="Vector_13" d="M22.4644 13.551C22.4644 13.551 22.0127 13.551 22.0428 14.1533C22.0428 14.1533 22.103 14.605 22.5848 14.605C22.5848 14.605 23.0064 14.5447 22.9763 14.0328C22.9462 14.0629 22.6751 13.4306 22.4644 13.551Z" fill="var(--fill-0, white)"/>
<path id="Vector_14" d="M22.7956 13.3102C22.7956 13.3102 23.0064 13.0693 23.157 13.0693C23.157 13.0693 25.5961 13.2801 25.9876 13.0091C25.9876 13.0091 26.349 12.9489 26.4393 13.0091C26.4393 13.0091 26.8007 13.3102 26.8007 13.4608C26.8007 13.4608 26.7705 13.6716 26.349 13.5511C26.349 13.5511 23.6087 13.5812 23.4581 13.5812C23.4882 13.5812 22.7354 13.7318 22.7956 13.3102Z" fill="var(--fill-0, white)"/>
<path id="Vector_15" d="M22.7956 13.3102C22.7956 13.3102 23.0064 13.0693 23.157 13.0693C23.157 13.0693 25.5961 13.2801 25.9876 13.0091C25.9876 13.0091 26.349 12.9489 26.4393 13.0091C26.4393 13.0091 26.8007 13.3102 26.8007 13.4608C26.8007 13.4608 26.7705 13.6716 26.349 13.5511C26.349 13.5511 23.6087 13.5812 23.4581 13.5812C23.4882 13.5812 22.7354 13.7318 22.7956 13.3102Z" stroke="var(--stroke-0, #1E1E1E)" stroke-width="0.1722"/>
<path id="Vector_16" d="M23.1269 14.093C23.1269 14.093 23.1269 13.8822 23.4581 13.8822L26.8609 13.8521C26.8609 13.8521 27.162 14.0327 27.162 13.4305C27.162 13.4305 27.2825 10.7805 27.3126 7.85952C27.3126 6.98624 27.3427 6.08284 27.3126 5.23967C27.3126 5.23967 27.2524 4.87832 27.1319 4.78798C27.1319 4.78798 27.1319 4.3965 27.5535 4.54707C27.5535 4.54707 27.9149 4.57719 27.8245 5.11922L27.8546 5.96239C27.8546 5.96239 27.7944 6.32375 28.4268 6.23341C28.4268 6.23341 29.0893 6.32375 29.1194 6.56466C29.1194 6.56466 29.3001 7.04647 28.5472 7.01636H27.9751C27.9751 7.01636 27.7342 7.16692 27.7944 7.43794L27.7342 10.9612C27.7342 10.9612 27.6739 11.5635 28.2762 11.5333C28.2762 11.5333 28.8785 11.5032 28.9989 11.714C28.9989 11.714 29.4205 12.3163 28.5171 12.2561C28.5171 12.2561 27.945 12.2259 27.8245 12.3163C27.8245 12.3163 27.7342 12.4367 27.6438 13.581C27.6438 13.581 27.7041 14.2736 27.1921 14.1833C27.1921 14.1833 23.8195 14.2435 23.4882 14.1532C23.5183 14.2435 23.157 14.364 23.1269 14.093Z" fill="var(--fill-0, white)"/>
<path id="Vector_17" d="M18.73 4.48698L18.6698 12.2863C18.6698 12.2863 18.6396 12.6477 19.2419 12.7079C19.2419 12.7079 19.9345 12.7681 20.1152 12.7079C20.1152 12.7079 20.5669 12.6778 21.7714 12.738C21.7714 12.738 22.0726 13.0391 22.1027 12.6778C22.1027 12.6778 22.2833 6.354 22.193 5.05913C22.193 5.05913 22.1629 4.48698 21.7413 4.48698C21.7413 4.48698 19.9044 4.63754 19.7237 4.48698L19.001 4.3063C19.001 4.27619 18.6999 4.27618 18.73 4.48698Z" fill="var(--fill-0, white)"/>
<path id="Vector_18" d="M22.5846 4.87825C22.5846 4.87825 22.5244 8.55206 22.5244 8.67251L22.4641 11.7441L22.3738 12.8281C22.3738 12.8281 22.5244 13.0389 22.6448 12.8884C22.6448 12.8884 23.4278 12.6776 23.9096 12.7679C23.9096 12.7679 25.4755 12.9185 25.7766 12.6776C25.7766 12.6776 26.0175 12.798 26.1078 12.4065C26.1078 12.4065 26.1982 5.60096 26.1681 5.48051C26.1681 5.48051 26.2584 4.51689 26.1982 4.39643C26.1982 4.39643 26.1681 4.18564 25.7766 4.36632C25.7766 4.36632 25.8368 4.547 23.5181 4.48677C23.5181 4.51689 22.6147 4.48677 22.5846 4.87825Z" fill="var(--fill-0, white)"/>
<path id="Vector_19" d="M26.4392 4.78791L26.4091 12.4668C26.4091 12.4668 26.5898 13.1594 26.9211 13.069C26.9211 13.069 26.9813 12.9185 26.9813 12.6776L27.0716 5.36007C27.1017 5.36007 26.8608 4.18565 26.4392 4.78791Z" fill="var(--fill-0, white)"/>
<path id="Vector_20" d="M26.4392 4.78791L26.4091 12.4668C26.4091 12.4668 26.5898 13.1594 26.9211 13.069C26.9211 13.069 26.9813 12.9185 26.9813 12.6776L27.0716 5.36007C27.1017 5.36007 26.8608 4.18565 26.4392 4.78791Z" stroke="var(--stroke-0, #1E1E1E)" stroke-width="0.1722"/>
<path id="Vector_21" d="M23.4578 7.07665C23.3976 6.86586 23.8794 6.86586 23.8794 6.86586L24.1203 6.92609C24.301 6.89597 24.4516 6.98631 24.4516 6.98631C24.6322 7.25733 24.3311 7.4079 24.3311 7.4079L24.2408 7.73914C24.2107 8.01016 24.2408 10.3289 24.2408 10.3289C24.301 10.4493 24.4817 10.6601 24.4817 10.6601C24.4817 10.8709 24.2107 10.8408 24.2107 10.8408L23.5181 10.8709C23.3073 10.8408 23.3675 10.5999 23.3675 10.5999C23.6084 10.4794 23.6987 10.0277 23.6987 10.0277V7.61869L23.4578 7.07665Z" fill="var(--fill-0, #1E1E1E)"/>
<path id="Vector_22" d="M20.1755 9.33495L20.1153 10.0878L20.3261 10.4491C20.4767 10.6298 20.2358 10.7804 20.2358 10.7804L19.4528 10.7202C19.3022 10.6599 19.4528 10.3889 19.4528 10.3889C19.6335 10.2685 19.6636 9.96733 19.6636 9.96733L19.6335 8.55201L19.6636 7.52816C19.6636 7.40771 19.4829 7.19691 19.4829 7.19691C19.3022 7.1668 19.3625 6.95601 19.3625 6.95601C19.4227 6.83555 19.8142 6.89578 19.8142 6.89578H20.838C21.8016 7.22703 21.6812 7.91963 21.6812 7.91963C21.7414 8.61224 20.9886 8.91337 20.9886 8.91337L20.9284 9.30484L21.621 10.419C21.7414 10.5094 21.7113 10.6298 21.7113 10.6298C21.621 10.9008 21.2295 10.6298 21.2295 10.6298L20.3562 9.27473C20.3261 9.15428 20.1755 9.33495 20.1755 9.33495ZM20.2056 7.40771C20.2357 7.94974 20.2358 8.67246 20.2358 8.67246C20.6874 9.03382 20.9585 8.5219 20.9585 8.5219C21.5607 7.94975 20.9585 7.40771 20.8681 7.25714C20.7778 7.10657 20.296 7.22703 20.296 7.22703L20.2056 7.40771Z" fill="var(--fill-0, #1E1E1E)"/>
<path id="Vector_23" d="M15.1169 18.7906C15.1169 18.7906 15.2976 18.7303 15.3277 18.6099C15.3277 18.6099 15.8396 18.5497 15.8999 18.4894L17.4959 18.6099C17.4959 18.6099 19.0617 18.7303 19.7543 18.2485C19.7543 18.2485 19.9953 18.2485 20.1759 18.3088C20.1759 18.3088 20.5072 18.369 20.5975 18.5195L21.531 18.4894C21.531 18.4894 22.0731 18.6701 22.0128 19.0014V19.4531C22.0128 19.4531 21.9225 20.3263 22.1634 20.3866H22.856C22.856 20.3866 23.4282 20.6576 23.3679 20.9888C23.3679 20.9888 23.398 21.4706 22.8861 21.561C22.8861 21.561 22.3742 21.7115 22.1935 21.6814C22.1935 21.6814 22.0128 21.8922 21.9827 22.1632L21.9225 25.3552C21.9225 25.3552 21.8623 25.6865 22.3742 25.6564C22.3742 25.6564 23.127 25.5962 23.3378 25.9876C23.3378 25.9876 23.5185 26.6802 23.1571 26.8007L22.856 26.9512L22.2236 27.0416C22.2236 27.0416 21.9526 27.0717 21.9225 27.5234V28.3666C21.9225 28.3666 21.9526 28.9387 21.5009 28.9387L20.8083 28.9989C20.8083 28.9989 20.6276 29.1495 20.2964 29.0592C20.2964 29.0592 16.1709 29.1194 16.0203 29.0893L15.5385 29.1796C15.5385 29.1796 14.9965 29.6614 14.5749 29.3001L14.2436 29.0291C14.2436 29.0291 14.0027 29.0893 13.9124 29.0592C13.822 29.0291 9.33518 29.1194 9.33518 29.1194C9.33518 29.1194 8.37155 29.2097 8.31132 28.9086C8.31132 28.9086 8.19087 27.674 8.2511 27.5234C8.2511 27.5234 8.2511 27.162 8.04031 27.1319C8.04031 27.1319 7.07668 27.0717 7.07668 26.9814C7.07668 26.9814 6.56476 26.62 6.71533 26.2586C6.71533 26.2586 6.896 25.7768 7.40793 25.7166C7.40793 25.7166 8.19087 25.8371 8.19087 25.6263C8.19087 25.6263 8.2511 25.4757 8.2511 25.2348C8.2511 25.2348 8.31133 22.3439 8.28121 22.1331C8.28121 22.1331 8.34144 21.7718 8.04031 21.7718C8.04031 21.7718 7.70906 21.8621 7.46816 21.7115C7.46816 21.7115 6.89601 21.7417 6.77555 21.29C6.77555 21.29 6.68521 20.9888 6.83578 20.7479C6.83578 20.7479 7.1068 20.2059 7.88974 20.3866C7.88974 20.3866 8.31133 20.507 8.37155 20.2059L8.34144 19.0315C8.34144 19.0315 8.2511 18.7002 8.85336 18.5497C8.85336 18.5497 9.63631 18.7605 9.87721 18.369C9.87721 18.369 10.1482 17.8269 10.359 18.1883C10.359 18.1883 10.8107 18.64 12.0755 18.5798C12.0755 18.5798 14.2737 18.3991 14.3039 18.5195C14.3039 18.5195 14.8459 18.5798 14.9965 18.7605L15.1169 18.7906Z" fill="var(--fill-0, #1E1E1E)"/>
<path id="Vector_24" d="M15.1169 18.7605C15.1169 18.7605 15.2976 18.7003 15.3277 18.5798C15.3277 18.5798 15.8397 18.5196 15.8999 18.4594L17.4959 18.5798C17.4959 18.5798 19.0618 18.7003 19.7544 18.2185C19.7544 18.2185 19.9953 18.2185 20.176 18.2787C20.176 18.2787 20.5072 18.3389 20.5975 18.4895L21.5311 18.4594C21.5311 18.4594 22.0731 18.6401 22.0129 18.9713V19.3929C22.0129 19.3929 21.9225 20.2662 22.1634 20.3264H22.856C22.856 20.3264 23.4282 20.5974 23.368 20.9287C23.368 20.9287 23.3981 21.4105 22.8861 21.5008C22.8861 21.5008 22.3742 21.6514 22.1935 21.6213C22.1935 21.6213 22.0129 21.8321 21.9827 22.1031L21.9225 25.2951C21.9225 25.2951 21.8623 25.6263 22.3742 25.5962C22.3742 25.5962 23.1271 25.536 23.3378 25.9275C23.3378 25.9275 23.5185 26.6201 23.1572 26.7405L22.856 26.8911L22.2237 26.9814C22.2237 26.9814 21.9526 27.0115 21.9225 27.4632V28.3064C21.9225 28.3064 21.9526 28.8786 21.4708 28.8786L20.7782 28.9388C20.7782 28.9388 20.5975 29.0893 20.2663 28.999C20.2663 28.999 16.1408 29.0592 15.9902 29.0291L15.5084 29.1195C15.5084 29.1195 14.9664 29.6013 14.5448 29.2399L14.2135 28.9689C14.2135 28.9689 13.9726 29.0291 13.8823 28.999C13.792 28.9689 9.30508 29.0592 9.30508 29.0592C9.30508 29.0592 8.34146 29.1496 8.28124 28.8484C8.28124 28.8484 8.16078 27.6138 8.22101 27.4632C8.22101 27.4632 8.22101 27.1019 8.01021 27.0718C8.01021 27.0718 7.04659 27.0115 7.04659 26.9212C7.04659 26.9212 6.53467 26.5598 6.68523 26.1985C6.68523 26.1985 6.86591 25.7167 7.37784 25.6564C7.37784 25.6564 8.16078 25.7769 8.16078 25.5661C8.16078 25.5661 8.22101 25.4155 8.22101 25.1746C8.22101 25.1746 8.28123 22.2838 8.25112 22.073C8.25112 22.073 8.31135 21.7116 8.01021 21.7116C8.01021 21.7116 7.67897 21.8019 7.43807 21.6514C7.43807 21.6514 6.86591 21.6815 6.74546 21.1997C6.74546 21.1997 6.65512 20.8985 6.80569 20.6576C6.80569 20.6576 7.0767 20.1156 7.85965 20.2963C7.85965 20.2963 8.31135 20.4167 8.34146 20.1156L8.31135 18.9412C8.31135 18.9412 8.22101 18.6099 8.82327 18.4594C8.82327 18.4594 9.60622 18.6702 9.84712 18.2787C9.84712 18.2787 10.1181 17.7367 10.3289 18.098C10.3289 18.098 10.7806 18.5497 12.0454 18.4895C12.0454 18.4895 14.2437 18.3088 14.2738 18.4293C14.2738 18.4293 14.8158 18.4895 14.9664 18.6702L15.1169 18.7605Z" stroke="var(--stroke-0, #1E1E1E)" stroke-width="0.164"/>
<path id="Vector_25" d="M15.7486 28.3366C15.7486 28.3366 16.0498 28.186 16.2305 28.2462C16.4111 28.2763 19.2719 28.2161 19.2719 28.2161C19.2719 28.2161 20.5065 28.3064 20.7173 28.1559L21.0185 28.0655C21.0185 28.0655 21.1389 27.915 21.1389 27.7343C21.1389 27.5536 21.169 26.8911 21.169 26.8911L21.2292 26.6502C21.2292 26.6502 21.1991 26.4093 21.2292 19.9049C21.2292 19.9049 21.3196 19.3929 21.0185 19.0918C21.0185 19.0918 21.0185 18.9111 21.1088 18.9111C21.1991 18.9111 21.169 18.9412 21.169 18.9412C21.169 18.9412 21.5906 18.8208 21.6809 19.0015C21.6809 19.0015 21.8616 19.5736 21.7111 19.935C21.7111 19.935 21.6508 20.6577 22.0423 20.6577C22.0423 20.6577 22.1929 20.8083 22.4639 20.7179C22.4639 20.7179 23.0963 20.7781 23.0963 20.9889C23.0963 20.9889 23.0963 21.4406 22.6747 21.3503L22.1025 21.4105C22.1025 21.4105 21.7111 21.4707 21.7713 21.9526C21.8315 22.4042 21.7412 25.7167 21.7412 25.7167C21.7412 25.7167 21.7412 26.1082 22.3434 26.0781C22.3434 26.0781 23.0963 26.0479 23.0963 26.2587C23.0963 26.2587 23.2769 26.7406 22.765 26.7707C22.765 26.7707 21.7412 26.7406 21.8014 27.0417C21.8014 27.0417 21.7412 27.7343 21.6809 27.8547C21.6809 27.8547 21.7713 28.4269 21.6508 28.5172C21.6508 28.5172 21.5906 28.8184 20.9281 28.7882C20.9281 28.7882 16.7424 28.7581 16.0799 28.8184C16.0498 28.728 15.6583 28.6678 15.7486 28.3366Z" fill="var(--fill-0, white)"/>
<path id="Vector_26" d="M14.996 27.8847C14.996 27.8847 15.4176 27.9449 15.4176 28.3364C15.4176 28.7278 15.4477 28.9386 15.2068 28.9988C14.9659 29.0591 14.6948 28.9687 14.6346 28.6676C14.5443 28.3364 14.6647 27.9449 14.996 27.8847Z" fill="var(--fill-0, white)"/>
<path id="Vector_27" d="M15.478 27.674C15.478 27.674 15.8996 27.3729 16.0803 27.4331C16.0803 27.4331 18.3087 27.5837 18.9712 27.4633C19.6638 27.3428 19.2422 27.4331 19.2422 27.4331C19.2422 27.4331 19.8143 27.4331 19.995 27.2224C19.995 27.2224 20.1757 27.1621 20.266 27.3428L20.6274 27.7343C20.6274 27.7343 20.6575 27.9752 20.2359 27.9451C20.2359 27.9451 16.261 27.9451 16.1405 27.9752C16.1706 27.9752 15.4178 28.0956 15.478 27.674Z" fill="var(--fill-0, white)"/>
<path id="Vector_28" d="M15.478 27.674C15.478 27.674 15.8996 27.3729 16.0803 27.4331C16.0803 27.4331 18.3087 27.5837 18.9712 27.4633C19.6638 27.3428 19.2422 27.4331 19.2422 27.4331C19.2422 27.4331 19.8143 27.4331 19.995 27.2224C19.995 27.2224 20.1757 27.1621 20.266 27.3428L20.6274 27.7343C20.6274 27.7343 20.6575 27.9752 20.2359 27.9451C20.2359 27.9451 16.261 27.9451 16.1405 27.9752C16.1706 27.9752 15.4178 28.0956 15.478 27.674Z" stroke="var(--stroke-0, #1E1E1E)" stroke-width="0.1722"/>
<path id="Vector_29" d="M9.72652 19.0617C9.72652 19.0617 9.9072 19.0617 9.87709 19.3628L9.81685 26.7105C9.81685 26.7105 9.87708 27.1923 9.48561 27.5235C9.48561 27.5235 9.27482 27.7945 9.27482 27.373L9.36516 19.8748C9.36516 19.8447 9.36516 19.3026 9.72652 19.0617Z" fill="var(--fill-0, white)"/>
<path id="Vector_30" d="M9.72652 19.0617C9.72652 19.0617 9.9072 19.0617 9.87709 19.3628L9.81685 26.7105C9.81685 26.7105 9.87708 27.1923 9.48561 27.5235C9.48561 27.5235 9.27482 27.7945 9.27482 27.373L9.36516 19.8748C9.36516 19.8447 9.36516 19.3026 9.72652 19.0617Z" stroke="var(--stroke-0, #1E1E1E)" stroke-width="0.1722"/>
<path id="Vector_31" d="M9.33459 19.0917C9.33459 19.0917 9.03345 19.6338 9.06356 19.7542L9.03345 21.3804C9.03345 21.3804 9.00334 22.4343 9.03345 22.5548C9.06357 22.6752 9.00334 25.7468 9.00334 25.7468C9.00334 25.7468 8.97323 26.3189 9.00334 26.5297V27.8547C9.00334 27.8547 8.94311 28.4268 9.39481 28.2763C9.39481 28.2763 13.6709 28.1859 13.9419 28.2462C13.9419 28.2462 14.3334 28.3064 14.1828 28.5172C14.1828 28.5172 14.1828 28.6979 13.9118 28.6376C13.9118 28.6376 11.8942 28.8183 10.0573 28.7581C10.0573 28.7581 8.85277 28.8183 8.76243 28.6979C8.76243 28.6979 8.58176 28.6677 8.58176 27.9751C8.58176 27.9751 8.58176 27.3127 8.52153 27.1922C8.52153 27.1922 8.58175 26.861 7.94938 26.7706C7.94938 26.7706 7.10621 26.9212 7.07609 26.4093C7.07609 26.4093 7.19655 26.0479 8.03972 26.078C8.03972 26.078 8.64198 26.1684 8.52153 25.6865L8.58176 22.1031C8.58176 22.1031 8.64198 21.4707 8.25051 21.4406C8.25051 21.4406 7.85904 21.4105 7.73858 21.4707C7.73858 21.4707 7.04598 21.4707 7.07609 21.0491C7.07609 21.0491 7.317 20.6275 8.03972 20.7179C8.03972 20.7179 8.58175 20.8082 8.61187 20.2059C8.61187 20.2059 8.58176 18.9713 8.88289 18.9111C8.88289 18.9111 9.51526 18.9412 9.33459 19.0917Z" fill="var(--fill-0, white)"/>
<path id="Vector_32" d="M10.0572 27.132C10.0572 27.132 10.3884 27.4933 10.9606 27.4632L14.273 27.5235C14.273 27.5235 14.6344 27.5536 14.6043 27.7342C14.6043 27.7342 14.544 28.0354 14.1225 27.9149L10.1475 27.8547L9.72594 27.8848C9.72594 27.8848 9.4248 27.8246 9.90661 27.2825L10.0572 27.132Z" fill="var(--fill-0, white)"/>
<path id="Vector_33" d="M10.0572 27.132C10.0572 27.132 10.3884 27.4933 10.9606 27.4632L14.273 27.5235C14.273 27.5235 14.6344 27.5536 14.6043 27.7342C14.6043 27.7342 14.544 28.0354 14.1225 27.9149L10.1475 27.8547L9.72594 27.8848C9.72594 27.8848 9.4248 27.8246 9.90661 27.2825L10.0572 27.132Z" stroke="var(--stroke-0, #1E1E1E)" stroke-width="0.1722"/>
<path id="Vector_34" d="M20.2659 26.8311C20.2659 26.8311 20.567 27.4032 20.6875 27.4634C20.6875 27.4634 20.9585 27.7646 20.8983 27.2225L20.9585 20.2062C20.9585 20.2062 20.8983 19.9653 20.9585 19.5738L20.6573 19.0317C20.6573 19.0317 20.3562 18.7908 20.3562 19.1823L20.296 26.6504L20.2659 26.8311Z" fill="var(--fill-0, white)"/>
<path id="Vector_35" d="M20.2659 26.8311C20.2659 26.8311 20.567 27.4032 20.6875 27.4634C20.6875 27.4634 20.9585 27.7646 20.8983 27.2225L20.9585 20.2062C20.9585 20.2062 20.8983 19.9653 20.9585 19.5738L20.6573 19.0317C20.6573 19.0317 20.3562 18.7908 20.3562 19.1823L20.296 26.6504L20.2659 26.8311Z" stroke="var(--stroke-0, #1E1E1E)" stroke-width="0.1722"/>
<path id="Vector_36" d="M14.876 23.4885C14.876 23.4885 14.9062 24.0606 14.8158 24.6328C14.7857 24.9339 14.9062 26.3492 14.7857 27.1021C14.7857 27.1021 14.7556 27.343 14.2437 27.1322C14.2437 27.1322 11.142 27.1924 11.0216 27.1021C11.0216 27.1021 10.1784 27.1322 10.088 26.6805C10.088 26.6805 10.2085 23.3379 10.1483 23.2174C10.1483 23.2174 10.088 21.3805 10.1483 21.23C10.1483 21.23 10.2085 19.5436 10.1784 19.363C10.1784 19.363 10.2085 18.9715 10.1182 18.7908C10.1182 18.7908 10.1182 18.5499 10.5397 18.7005C10.5397 18.7005 10.6903 18.9715 11.4733 18.851C11.4733 18.851 12.0454 18.9414 12.6176 18.8811C12.6176 18.8811 13.8522 18.7908 14.1834 18.8811C14.1834 18.8811 14.6653 18.7908 14.8158 19.3328L14.7857 20.8385L14.9363 21.3203L15.117 21.1999L15.1772 20.8385L15.2073 19.2425C15.2073 19.2425 15.2976 18.9414 15.6891 18.9113C15.6891 18.9113 16.2914 18.851 16.4118 18.8811C16.5022 18.9414 17.8271 19.0016 18.1885 18.9414C18.5499 18.8811 18.6101 19.1823 19.7243 18.6402C19.7243 18.6402 20.0254 18.6704 20.0254 18.851C20.0254 18.851 19.9351 20.9288 20.0254 21.3203C20.0254 21.3203 20.0254 25.1146 19.9652 25.3856L20.0254 26.5901C20.0254 26.5901 20.0856 27.1322 19.2124 27.1623C19.2124 27.1623 19.7544 27.2225 16.3817 27.1322C16.3817 27.1322 15.8397 27.1021 15.2675 27.3731C15.2675 27.3731 15.1471 27.343 15.1471 27.0418C15.1471 27.0418 15.2374 25.8975 15.1471 24.7833L15.0868 23.5487L14.876 23.4885Z" fill="var(--fill-0, white)"/>
<path id="Vector_37" d="M12.6771 21.7718C12.6771 21.7718 12.7373 23.5785 12.6771 23.8195L12.647 24.2109C12.647 24.2109 12.7373 24.4819 12.8879 24.5723C12.8879 24.5723 13.0083 24.9035 12.7072 24.8734C12.7072 24.8734 12.1049 24.8132 11.9544 24.8433C11.9544 24.8433 11.6231 24.8433 11.9544 24.4217C11.9544 24.4217 12.0748 24.241 12.0447 23.8195C12.0447 23.8195 12.0447 21.7718 12.1049 21.6513C12.1049 21.6513 12.1652 21.3803 11.9845 21.3201L11.6834 21.3502L11.322 21.6814C11.322 21.6814 11.2618 22.0428 11.0811 21.6513V21.4706L11.2919 20.8985L11.4425 20.8684C11.4425 20.8684 11.6532 21.0189 11.864 21.049H13.0083L13.4299 20.8684C13.4299 20.8684 13.6106 20.8985 13.5504 21.1093C13.5504 21.1093 13.6106 21.6814 13.3095 21.7416C13.3095 21.7416 13.1288 21.6814 13.0083 21.4104C13.0385 21.3803 12.7072 21.1996 12.6771 21.7718Z" fill="var(--fill-0, #1E1E1E)"/>
<path id="Vector_38" d="M18.0679 21.1094C18.0679 21.1094 17.1344 21.0491 17.1344 22.0429C17.1344 22.0429 17.0441 22.7355 18.0679 23.1571C18.0679 23.1571 18.8208 23.5184 18.7605 23.9701C18.7605 23.9701 18.6702 24.8133 17.8571 24.3917C17.8571 24.3917 17.4657 24.1809 17.4958 23.9701C17.4958 23.9701 17.3753 23.6991 17.2248 23.7593C17.2248 23.7593 17.0441 23.8196 17.1344 24.6025C17.1344 24.6025 17.1344 24.9337 17.4958 24.6025L17.6764 24.6627C17.6764 24.6627 18.3389 25.2048 18.881 24.5423C18.881 24.5423 19.4832 23.9701 19.0617 23.3076C19.0617 23.3076 18.7304 22.8258 18.1884 22.5849C18.1884 22.5849 17.6463 22.344 17.5259 21.9224C17.5259 21.9224 17.7066 21.1997 18.3389 21.5912C18.3389 21.5912 18.5798 21.8923 18.7304 21.9224C18.7304 21.9224 18.9111 21.9224 18.881 21.4707L18.8509 21.1094C18.8509 21.1094 18.7906 20.8383 18.4594 21.1094C18.4594 21.1094 18.1281 21.2298 18.0679 21.1094Z" fill="var(--fill-0, #1E1E1E)"/>
<path id="Vector_39" d="M15.0866 20.5977C15.2673 20.7181 15.2673 20.959 15.2673 20.959C15.7491 22.2539 16.1707 24.1209 16.1707 24.1209C16.2912 24.3618 16.502 24.5726 16.502 24.5726C16.9235 24.7232 16.502 24.8436 16.502 24.8436C16.3213 24.9039 15.7792 24.8135 15.7792 24.8135C15.4781 24.7533 15.5986 24.6629 15.5986 24.6629C15.719 24.5425 15.6287 24.0607 15.6287 24.0607C15.5986 23.88 15.3878 23.5488 15.3878 23.5488C15.2974 23.4885 15.1167 23.7294 15.1167 23.7294C15.1167 23.7294 14.8457 23.8198 14.8156 23.7294C14.7855 23.6391 14.6349 23.5488 14.6349 23.5488C14.3338 23.5488 14.2134 24.2715 14.2134 24.2715C14.394 24.8737 14.2134 24.7834 14.2134 24.7834C14.0628 24.9641 13.6111 24.8436 13.6111 24.8436C13.4003 24.7834 13.5509 24.6328 13.5509 24.6328C13.8219 24.5726 13.8821 24.3016 13.8821 24.3016C14.0026 24.1209 14.7855 20.959 14.7855 20.959C14.8758 20.7783 14.9361 20.4772 15.0866 20.5977ZM14.6952 22.2238C14.6651 22.3442 14.4844 23.0368 14.4844 23.0368L14.6349 23.2777C14.6349 23.2777 15.0264 23.3079 15.177 23.3079C15.3275 23.3079 15.3577 23.1874 15.3577 23.0669C15.3577 22.9465 15.0866 22.2238 15.0866 22.2238L14.9662 22.0431L14.6952 22.2238Z" fill="var(--fill-0, #1E1E1E)"/>
<path id="Vector_40" d="M8.52172 14.7253C8.52172 14.7253 8.2507 15.5685 7.07628 14.6952L2.98088 14.6049C2.98088 14.6049 2.43885 14.7856 2.37862 14.2134C2.37862 14.2134 2.46896 13.0992 2.43884 13.0089C2.43884 13.0089 2.46896 12.6776 1.92692 12.6776C1.92692 12.6776 1.11386 12.768 1.08375 12.0453C1.08375 12.0453 0.933185 11.2623 2.07749 11.2924C2.07749 11.2924 2.43885 11.4731 2.46896 10.9913C2.46896 10.9913 2.40873 7.82941 2.43884 7.5885C2.43884 7.5885 2.52918 7.28737 1.98715 7.25726C1.98715 7.25726 1.17409 7.43794 1.08375 6.8959C1.08375 6.8959 1.02353 6.08284 1.56556 6.05273C1.56556 6.05273 2.22806 6.11296 2.34851 5.93228C2.34851 5.93228 2.49907 6.02261 2.46896 5.45046L2.49907 4.45673C2.49907 4.45673 2.5593 4.18571 2.98088 4.21582C2.98088 4.21582 3.73371 4.27605 3.82405 4.18571C3.82405 4.18571 4.00473 3.97492 4.03485 3.85447C4.03485 3.85447 4.42632 3.82435 4.48654 3.91469C4.48654 3.91469 5.0587 4.30616 7.28707 4.1556C7.28707 4.1556 7.61832 4.1556 7.70866 4.24593C7.70866 4.24593 8.13025 4.54707 8.37115 4.21582C8.37115 4.21582 8.73251 4.1556 9.81658 4.1556C9.81658 4.1556 10.991 4.45673 11.8342 3.79424L12.1052 3.85447C12.1052 3.85447 12.4364 4.42661 12.6773 4.24593C12.6773 4.24593 13.4001 4.18571 13.5205 4.30616C13.5205 4.30616 13.7614 4.66752 13.641 5.63114C13.641 5.63114 13.4904 6.05273 14.2131 6.05273C14.2131 6.05273 15.0262 5.90216 14.9057 6.65499C14.9057 6.65499 15.1165 7.49816 13.7915 7.37771C13.7915 7.37771 13.6108 7.61862 13.641 7.79929C13.641 7.79929 13.6108 10.5697 13.5807 10.8708C13.5807 10.8708 13.5506 11.2924 14.1529 11.2924C14.1529 11.2924 14.9358 11.2322 14.9659 11.9549C14.9659 11.9549 15.0563 12.8884 13.9421 12.7077C13.9421 12.7077 13.6108 12.768 13.5506 12.9788L13.4904 14.1833C13.4904 14.1833 13.5205 14.7856 12.8279 14.635C12.7376 14.635 9.03364 14.6952 8.73251 14.6049C8.73251 14.635 8.55183 14.635 8.52172 14.7253Z" fill="var(--fill-0, #1E1E1E)"/>
<path id="Vector_41" d="M8.52172 14.7253C8.52172 14.7253 8.2507 15.5685 7.07628 14.6952L2.98088 14.6049C2.98088 14.6049 2.43885 14.7856 2.37862 14.2134C2.37862 14.2134 2.46896 13.0992 2.43884 13.0089C2.43884 13.0089 2.46896 12.6776 1.92692 12.6776C1.92692 12.6776 1.11386 12.768 1.08375 12.0453C1.08375 12.0453 0.933185 11.2623 2.07749 11.2924C2.07749 11.2924 2.43885 11.4731 2.46896 10.9913C2.46896 10.9913 2.40873 7.82941 2.43884 7.5885C2.43884 7.5885 2.52918 7.28737 1.98715 7.25726C1.98715 7.25726 1.17409 7.43794 1.08375 6.8959C1.08375 6.8959 1.02353 6.08284 1.56556 6.05273C1.56556 6.05273 2.22806 6.11296 2.34851 5.93228C2.34851 5.93228 2.49907 6.02261 2.46896 5.45046L2.49907 4.45673C2.49907 4.45673 2.5593 4.18571 2.98088 4.21582C2.98088 4.21582 3.73371 4.27605 3.82405 4.18571C3.82405 4.18571 4.00473 3.97492 4.03485 3.85447C4.03485 3.85447 4.42632 3.82435 4.48654 3.91469C4.48654 3.91469 5.0587 4.30616 7.28707 4.1556C7.28707 4.1556 7.61832 4.1556 7.70866 4.24593C7.70866 4.24593 8.13025 4.54707 8.37115 4.21582C8.37115 4.21582 8.73251 4.1556 9.81658 4.1556C9.81658 4.1556 10.991 4.45673 11.8342 3.79424L12.1052 3.85447C12.1052 3.85447 12.4364 4.42661 12.6773 4.24593C12.6773 4.24593 13.4001 4.18571 13.5205 4.30616C13.5205 4.30616 13.7614 4.66752 13.641 5.63114C13.641 5.63114 13.4904 6.05273 14.2131 6.05273C14.2131 6.05273 15.0262 5.90216 14.9057 6.65499C14.9057 6.65499 15.1165 7.49816 13.7915 7.37771C13.7915 7.37771 13.6108 7.61862 13.641 7.79929C13.641 7.79929 13.6108 10.5697 13.5807 10.8708C13.5807 10.8708 13.5506 11.2924 14.1529 11.2924C14.1529 11.2924 14.9358 11.2322 14.9659 11.9549C14.9659 11.9549 15.0563 12.8884 13.9421 12.7077C13.9421 12.7077 13.6108 12.768 13.5506 12.9788L13.4904 14.1833C13.4904 14.1833 13.5205 14.7856 12.8279 14.635C12.7376 14.635 9.03364 14.6952 8.73251 14.6049C8.73251 14.635 8.55183 14.635 8.52172 14.7253Z" stroke="var(--stroke-0, #1E1E1E)" stroke-width="0.164"/>
<path id="Vector_42" d="M3.91435 4.69777C3.91435 4.69777 3.97457 5.17958 3.97457 5.30003C3.97457 5.42049 3.91435 12.3164 3.91435 12.3164C3.91435 12.3164 3.97457 12.8584 3.52288 13.1295C3.52288 13.1295 3.40242 13.1897 3.37231 12.8283L3.43254 5.54094C3.40242 5.54094 3.46265 4.66766 3.91435 4.69777Z" fill="var(--fill-0, white)"/>
<path id="Vector_43" d="M3.91435 4.69777C3.91435 4.69777 3.97457 5.17958 3.97457 5.30003C3.97457 5.42049 3.91435 12.3164 3.91435 12.3164C3.91435 12.3164 3.97457 12.8584 3.52288 13.1295C3.52288 13.1295 3.40242 13.1897 3.37231 12.8283L3.43254 5.54094C3.40242 5.54094 3.46265 4.66766 3.91435 4.69777Z" stroke="var(--stroke-0, #1E1E1E)" stroke-width="0.1722"/>
<path id="Vector_44" d="M3.10151 13.2196C3.10151 13.2196 3.16173 6.35374 3.13162 6.23329C3.10151 6.11284 3.16173 6.32363 3.16173 6.32363C3.16173 6.32363 3.10151 5.14921 3.40264 4.63729C3.40264 4.63729 3.3123 4.2157 2.74015 4.72763L2.71004 5.72137C2.71004 5.72137 2.71004 6.29352 2.19811 6.2634C2.19811 6.2634 1.62596 6.23329 1.35494 6.50431C1.35494 6.50431 1.20437 7.04635 1.77652 6.92589C1.77652 6.92589 2.64981 6.92589 2.71004 7.28725L2.64981 10.9611C2.64981 10.9611 2.8606 11.5633 2.168 11.5633C2.168 11.5633 1.35494 11.5031 1.35494 12.015C1.35494 12.015 1.53562 12.4366 2.22822 12.3162C2.22822 12.3162 2.74015 12.4065 2.71004 12.8883V13.8218C2.71004 13.8218 2.64981 14.1832 3.13162 14.2133H6.92588C6.92588 14.2133 7.10656 14.2434 7.10656 14.0025C7.10656 14.0025 7.07645 13.8218 6.80543 13.8218L3.64354 13.7616C3.67366 13.7917 3.16173 13.9724 3.10151 13.2196Z" fill="var(--fill-0, white)"/>
<path id="Vector_45" d="M3.76401 13.2499C3.76401 13.2499 3.67367 13.5811 4.03502 13.5209H6.53442L7.22703 13.6715C7.22703 13.6715 7.91963 13.4908 7.22703 13.0993C7.22703 13.0993 4.99865 13.1294 4.78785 13.0692C4.78785 13.0692 4.33616 12.9488 4.21571 12.9187C4.21571 12.9488 3.9748 12.8584 3.76401 13.2499Z" fill="var(--fill-0, white)"/>
<path id="Vector_46" d="M3.76401 13.2499C3.76401 13.2499 3.67367 13.5811 4.03502 13.5209H6.53442L7.22703 13.6715C7.22703 13.6715 7.91963 13.4908 7.22703 13.0993C7.22703 13.0993 4.99865 13.1294 4.78785 13.0692C4.78785 13.0692 4.33616 12.9488 4.21571 12.9187C4.21571 12.9488 3.9748 12.8584 3.76401 13.2499Z" stroke="var(--stroke-0, #1E1E1E)" stroke-width="0.1722"/>
<path id="Vector_47" d="M7.91951 13.6112C7.91951 13.6112 7.46781 13.6112 7.46781 14.2135C7.46781 14.2135 7.52803 14.6652 8.00984 14.6652C8.00984 14.6652 8.46154 14.6049 8.40132 14.093C8.40132 14.1231 8.1303 13.4907 7.91951 13.6112Z" fill="var(--fill-0, white)"/>
<path id="Vector_48" d="M8.25071 13.37C8.25071 13.37 8.4615 13.1291 8.61207 13.1291C8.61207 13.1291 11.0512 13.3399 11.4427 13.0689C11.4427 13.0689 11.8041 13.0087 11.8944 13.0689C11.8944 13.0689 12.2558 13.37 12.2558 13.5206C12.2558 13.5206 12.2257 13.7314 11.8041 13.6109C11.8041 13.6109 9.06376 13.6411 8.9132 13.6411C8.94331 13.6411 8.19048 13.7916 8.25071 13.37Z" fill="var(--fill-0, white)"/>
<path id="Vector_49" d="M8.25071 13.37C8.25071 13.37 8.4615 13.1291 8.61207 13.1291C8.61207 13.1291 11.0512 13.3399 11.4427 13.0689C11.4427 13.0689 11.8041 13.0087 11.8944 13.0689C11.8944 13.0689 12.2558 13.37 12.2558 13.5206C12.2558 13.5206 12.2257 13.7314 11.8041 13.6109C11.8041 13.6109 9.06376 13.6411 8.9132 13.6411C8.94331 13.6411 8.19048 13.7916 8.25071 13.37Z" stroke="var(--stroke-0, #1E1E1E)" stroke-width="0.1722"/>
<path id="Vector_50" d="M8.64215 14.0931C8.64215 14.0931 8.64215 13.9124 8.97339 13.9124L12.3762 13.8823C12.3762 13.8823 12.6773 14.063 12.6773 13.4607C12.6773 13.4607 12.7978 10.8108 12.8279 7.8898C12.8279 7.01651 12.858 6.11312 12.8279 5.26995C12.8279 5.26995 12.7677 4.90859 12.6472 4.81825C12.6472 4.81825 12.6472 4.42678 13.0688 4.57734C13.0688 4.57734 13.4301 4.60746 13.3398 5.14949L13.3699 5.99266C13.3699 5.99266 13.3097 6.35403 13.9421 6.26369C13.9421 6.26369 14.6046 6.35402 14.6347 6.59493C14.6347 6.59493 14.8455 7.07674 14.0625 7.01652H13.4904C13.4904 7.01652 13.2495 7.16708 13.3097 7.4381L13.2495 10.9613C13.2495 10.9613 13.1892 11.5636 13.7915 11.5335C13.7915 11.5335 14.3938 11.5034 14.5142 11.7142C14.5142 11.7142 14.9358 12.3164 14.0324 12.2863C14.0324 12.2863 13.4904 12.2562 13.3398 12.3466C13.3398 12.3466 13.2495 12.467 13.1591 13.6113C13.1591 13.6113 13.2194 14.3039 12.7074 14.2136C12.7074 14.2136 9.33475 14.2738 9.0035 14.1835C9.03362 14.2437 8.70237 14.3641 8.64215 14.0931Z" fill="var(--fill-0, white)"/>
<path id="Vector_51" d="M4.2761 4.48687L4.21588 12.2862C4.21588 12.2862 4.18576 12.6476 4.78803 12.7078C4.78803 12.7078 5.48064 12.768 5.66131 12.7078C5.66131 12.7078 6.11301 12.6777 7.31754 12.7379C7.31754 12.7379 7.61867 13.039 7.64878 12.6777C7.64878 12.6777 7.82946 6.35389 7.73912 5.02891C7.73912 5.02891 7.70901 4.45676 7.28743 4.45676C7.28743 4.45676 5.45052 4.60733 5.26984 4.45676L4.54712 4.27608C4.54712 4.27608 4.24599 4.27608 4.2761 4.48687Z" fill="var(--fill-0, white)"/>
<path id="Vector_52" d="M11.9846 4.78791L11.9545 12.4668C11.9545 12.4668 12.1352 13.1594 12.4664 13.069C12.4664 13.069 12.5267 12.9185 12.5267 12.6776L12.617 5.36007C12.6471 5.36007 12.4062 4.18565 11.9846 4.78791Z" fill="var(--fill-0, white)"/>
<path id="Vector_53" d="M11.9846 4.78791L11.9545 12.4668C11.9545 12.4668 12.1352 13.1594 12.4664 13.069C12.4664 13.069 12.5267 12.9185 12.5267 12.6776L12.617 5.36007C12.6471 5.36007 12.4062 4.18565 11.9846 4.78791Z" stroke="var(--stroke-0, #1E1E1E)" stroke-width="0.1722"/>
<path id="Vector_54" d="M8.1307 4.84834C8.1307 4.84834 8.07048 8.52215 8.07048 8.6426L8.04036 11.7141L7.95002 12.7982C7.95002 12.7982 8.10059 13.009 8.22104 12.8585C8.22104 12.8585 9.00399 12.6778 9.4858 12.738C9.4858 12.738 11.0517 12.8886 11.3528 12.6477C11.3528 12.6477 11.5937 12.7681 11.6841 12.3766C11.6841 12.3766 11.7744 5.57105 11.7443 5.4506C11.7443 5.4506 11.8346 4.48698 11.8045 4.36653C11.8045 4.36653 11.7744 4.15573 11.3829 4.33641C11.3829 4.33641 11.4432 4.51709 9.12444 4.45687C9.0341 4.48698 8.16082 4.45686 8.1307 4.84834Z" fill="var(--fill-0, white)"/>
<path id="Vector_55" d="M7.37728 7.10693L7.16648 7.55863C7.16648 7.55863 6.62444 9.90746 6.35342 10.3893C6.35342 10.3893 6.2932 10.8711 5.90173 10.4796C5.90173 10.4796 4.93811 7.4984 4.90799 7.40806L4.57675 7.19727C4.57675 7.19727 4.39607 6.92625 4.72731 6.89614L5.63071 6.92625C5.63071 6.92625 5.93184 7.16716 5.54037 7.43818C5.54037 7.43818 5.6006 7.82965 6.11252 9.30519C6.11252 9.30519 6.26309 9.87735 6.44376 9.45576L6.92558 7.73931L6.77501 7.22738C6.77501 7.22738 6.62445 6.98648 6.83524 6.95636C6.77501 6.95636 7.28694 6.89614 7.37728 7.10693Z" fill="var(--fill-0, #1E1E1E)"/>
<path id="Vector_56" d="M8.76289 7.46815L8.73278 10.0579L8.67255 10.2386C8.67255 10.2386 8.43164 10.5698 8.61232 10.5698C8.61232 10.5698 8.40153 10.7204 10.1782 10.7505C10.1782 10.7505 10.8708 10.8709 10.6901 9.99765C10.6901 9.99765 10.6299 9.66641 10.3589 10.1482C10.3589 10.1482 10.2987 10.5397 9.42538 10.4192C9.42538 10.4192 9.2447 10.2386 9.2447 10.0579V8.97381C9.2447 8.97381 9.21459 8.70279 9.63617 8.7329C9.63617 8.7329 10.0879 9.03403 10.1782 8.91358C10.1782 8.91358 10.3589 8.52211 10.1782 8.2812C10.1782 8.2812 9.96742 8.25109 9.93731 8.34143C9.93731 8.34143 9.78674 8.64256 9.36515 8.46188C9.36515 8.46188 9.18447 8.07041 9.30493 7.76928C9.30493 7.76928 9.2447 7.16701 9.66628 7.19712C9.66628 7.19712 10.1481 7.28746 10.2083 7.43803C10.2083 7.43803 10.3288 7.73916 10.4492 7.37781L10.3288 6.95622C10.3288 6.95622 10.2686 6.77554 10.1481 6.83577C10.1481 6.83577 9.33504 6.95622 9.21459 6.86588L8.5521 6.92611C8.5521 6.92611 8.46176 7.16701 8.76289 7.28746C8.70266 7.31758 8.76289 7.37781 8.76289 7.46815Z" fill="var(--fill-0, #1E1E1E)"/>
</g>
</svg>
