<svg preserveAspectRatio="none" width="100%" height="100%" overflow="visible" style="display: block;" viewBox="0 0 160.435 40" fill="none" xmlns="http://www.w3.org/2000/svg">
<g id="Group 4">
<path id="Vector" d="M160.435 39.9636V32.1681H141.015V0.963623H132.435V39.9636H160.435Z" fill="var(--fill-0, white)"/>
<path id="Vector_2" d="M79.2713 39.9636V0.963623H70.7322V16.3988H54.9737V0.963623H46.4346V39.9525H54.9737V24.2946H70.7322V39.9525H79.2713V39.9636ZM121.435 39.9636V0.963623H112.895V16.3988H97.1369V0.963623H88.5978V39.9525H97.1369V24.2946H112.895V39.9525H121.435V39.9636Z" fill="var(--fill-0, white)"/>
<path id="Vector_3" d="M20 39.991C8.97517 39.991 0 31.0199 0 20C0 8.98014 8.97517 0 20 0C31.0248 0 40 8.97112 40 20C40 31.0289 31.0248 40 20 40V39.991ZM20 0.487365C9.23702 0.487365 0.487585 9.23285 0.487585 20C0.487585 30.7671 9.24605 39.5126 20 39.5126C30.754 39.5126 39.5124 30.7581 39.5124 20C39.5124 9.24188 30.754 0.487365 20 0.487365Z" fill="var(--fill-0, white)"/>
<path id="Vector_4" d="M18.7803 29L18 29.4568L18.052 29.6025C18.1387 29.8261 18.3179 30.1273 18.6474 29.9427C18.6763 29.9232 18.6994 29.9135 18.7225 29.9038L19 29.7386C18.9827 29.5054 18.9133 29.2041 18.7861 29H18.7803Z" fill="var(--fill-0, white)"/>
<path id="Vector_5" d="M16.8785 29C17.255 28.3132 18 28.0201 18 28.0201L17.7677 27.782C17.7677 27.782 17.1509 28.2949 16.2777 27.7546C15.4045 27.2051 14.0507 25.7033 14.0507 25.7033L13.5941 19.1557C13.5941 17.8645 13.8023 17.1044 14.7797 16.2802C15.5487 15.63 17.4553 14.2289 17.4553 14.2289L17.3671 14C16.3658 14.5678 15.036 15.3278 14.4913 15.7674C13.6181 16.4817 13.0814 17.4158 13.0093 18.7802C12.9372 20.0989 13.3057 23.8626 13.4178 24.9799C13.546 26.3168 13.6982 26.4725 14.5073 27.1136L16.8705 28.9908L16.8785 29Z" fill="var(--fill-0, white)"/>
<path id="Vector_6" d="M25.0909 28L24.8139 28.183L26.2771 30.6373C23.697 30.579 21.29 31.6273 20 32.6922C18.5887 31.5275 15.8268 30.371 12.9697 30.6872L12 32.0266C15.2035 31.2695 18.0087 31.8935 20 33C21.9827 31.8935 24.7965 31.2779 28 32.0266L27.0303 30.6872L25.0909 28Z" fill="var(--fill-0, white)"/>
<path id="Vector_7" d="M17.2986 9.57692C17.5505 9.40385 18.2317 8.97115 18.9969 8.875C19.8647 8.76923 20.8538 8.89423 21.619 9.34615C22.0575 9.60577 22.3655 9.86538 22.5054 10L23 9.33654C23 9.33654 21.3857 8 19.8087 8C18.2317 8 17 9.33654 17 9.33654L17.2613 9.60577C17.2613 9.60577 17.2799 9.59615 17.3079 9.57692H17.2986Z" fill="var(--fill-0, white)"/>
<path id="Vector_8" d="M26.9994 19.1127C26.9222 17.7136 26.3564 16.7559 25.4133 16.0235C24.5903 15.3756 22.387 14.0798 21.504 13.6197C21.9583 12.615 22.1812 11.0376 22.1727 9.60094C21.6583 9.21596 20.5695 9 19.9008 9C19.4721 9 19.052 9.0939 18.6748 9.26291C19.4893 9.26291 19.9008 9.49765 19.9008 10.108V13.2441C19.9008 13.7793 19.7208 13.9765 19.4464 13.9765C19.0863 13.9765 18.7777 13.8075 18.4605 13.5446C18.6577 14.0329 19.3607 14.6526 20.1151 14.6526V28.9343L20.0637 28.8592L17.3288 24.7371V20.4272C17.3288 18.831 16 18.4085 16 18.4085L16.2229 25.2347L19.6436 29.0282C19.9265 29.3568 20.0723 29.5446 20.098 29.9671L20.1494 31C20.1494 31 20.1666 31 20.1923 30.9906L20.2437 30.9624C20.338 30.9155 20.4666 30.8028 20.4666 30.5869C20.4666 30.5869 20.4666 30.5869 20.4666 30.5775V30.0516C20.4666 29.6573 20.4066 29.4413 20.2694 29.1878L23.1243 25.338L23.3986 18.4085C23.3986 18.4085 24.7275 18.8592 24.7275 20.4272L24.2302 25.7136L21.684 28.7371L22.0784 29.3662C22.0784 29.3662 24.3417 27.8169 25.3276 27.0563C26.1849 26.3991 26.3135 26.061 26.485 24.8779C26.6393 23.8169 27.0679 20.4554 26.9908 19.1033L26.9994 19.1127Z" fill="var(--fill-0, white)"/>
<path id="Vector_9" d="M15.038 35.0352V35.4758H15.504L15 37.291L15.542 37.4232L16.1791 35.0881L15.8083 35L15.038 35.0264V35.0352ZM18.9082 37.2558C18.9368 36.9738 18.8036 36.8064 18.5564 36.6478C18.7656 36.5508 18.9082 36.4099 18.9368 36.1543C18.9748 35.7842 18.6515 35.467 18.1095 35.4141C17.5674 35.3613 17.1776 35.6168 17.13 35.9869C17.1015 36.2424 17.2156 36.4099 17.3963 36.542C17.111 36.6301 16.9494 36.7888 16.9208 37.0795C16.8733 37.4937 17.2632 37.8109 17.8337 37.8638C18.4042 37.9166 18.8512 37.6963 18.8987 37.2558H18.9082ZM18.4042 36.1631C18.3852 36.3305 18.2331 36.4451 18.0049 36.4187C17.7766 36.401 17.653 36.2601 17.672 36.0838C17.6911 35.934 17.8432 35.8195 18.0714 35.8371C18.2996 35.8635 18.4233 36.0045 18.4042 36.1543V36.1631ZM18.3662 37.1765C18.3472 37.3439 18.1665 37.4584 17.8908 37.432C17.615 37.4056 17.4628 37.2646 17.4819 37.0883C17.5009 36.9033 17.7006 36.8064 17.9573 36.8328C18.2141 36.8592 18.3852 36.9826 18.3662 37.1677V37.1765ZM21.9702 36.6125C21.9416 36.1367 21.799 35.89 21.5993 35.7314C21.3901 35.5639 21.1809 35.4934 20.8386 35.5199C20.2585 35.5551 19.8782 35.934 19.9162 36.4187C19.9542 36.9033 20.3346 37.1677 20.8861 37.1412C21.1143 37.1236 21.276 37.0531 21.3996 36.9474C21.3806 37.2734 21.2284 37.5025 20.9146 37.5201C20.6959 37.5289 20.5343 37.4761 20.3346 37.3527L20.0683 37.7668C20.2966 37.9166 20.5628 38.0224 20.9337 37.9959C21.6659 37.9519 22.0272 37.3968 21.9702 36.6213V36.6125ZM21.3711 36.3041C21.3901 36.5156 21.238 36.6742 20.9527 36.6918C20.6769 36.7094 20.4962 36.5685 20.4772 36.357C20.4582 36.1455 20.6104 35.9869 20.8861 35.9693C21.1714 35.9517 21.3521 36.0926 21.3616 36.3129L21.3711 36.3041ZM24.9845 36.7006C24.918 36.4187 24.7373 36.2953 24.452 36.2248C24.6232 36.075 24.7183 35.8988 24.6517 35.6432C24.5661 35.282 24.1477 35.0705 23.6152 35.1674C23.0827 35.2732 22.7879 35.6256 22.8735 35.9869C22.9306 36.2424 23.0922 36.3658 23.3109 36.4363C23.0732 36.6037 22.9686 36.7976 23.0352 37.0883C23.1303 37.5025 23.6057 37.6875 24.1667 37.573C24.7278 37.4672 25.0796 37.1324 24.9845 36.6918V36.7006ZM24.1382 35.8107C24.1763 35.9781 24.0621 36.1279 23.8434 36.1719C23.6247 36.216 23.4536 36.1191 23.4155 35.9516C23.3775 35.8019 23.4821 35.6521 23.7103 35.608C23.9385 35.5639 24.1002 35.6697 24.1382 35.8107ZM24.4425 36.7799C24.4805 36.9474 24.3474 37.106 24.0717 37.1588C23.7959 37.2117 23.6057 37.1148 23.5677 36.9474C23.5296 36.7623 23.6818 36.6213 23.9385 36.5685C24.1953 36.5156 24.395 36.5861 24.4425 36.7711V36.7799Z" fill="var(--fill-0, white)"/>
<path id="Vector_10" d="M7.38625 27.8929L5.39969 29.2399L5.68976 29.6889L6.47208 29.1591L7.00827 29.9852L6.22596 30.5151L6.51603 30.9641L8.50258 29.6171L8.21251 29.1681L7.41262 29.7069L6.87642 28.8807L7.67632 28.3419L7.38625 27.8929ZM6.04137 24.8486L4.20424 26.7434L4.38883 27.2014L6.99948 27.2373L6.79731 26.7344H6.21717L5.83919 25.7826L6.25233 25.3695L6.04137 24.8486ZM5.4788 26.1328L5.71613 26.7344H4.88108L5.4788 26.1328ZM5.4788 21.957L3.12306 22.3701L3.21096 22.891L4.66132 22.6395L3.40434 24.0135L3.48345 24.4984L5.83919 24.0943L5.75129 23.5734L4.25698 23.8339L5.55791 22.406L5.4788 21.957ZM4.29214 18.6703C3.6241 18.6344 3.07911 19.1462 3.04395 19.9096L3 20.8614L5.38211 20.9782L5.42606 20.0263C5.46122 19.263 4.96019 18.7062 4.29214 18.6793V18.6703ZM4.27456 19.2271C4.69648 19.245 4.96898 19.5593 4.9514 19.9994L4.93382 20.4124L3.50103 20.3406L3.51861 19.9275C3.53619 19.4875 3.85264 19.2091 4.27456 19.2271ZM5.99741 16.1828L5.54033 16.0661L5.23268 17.3502L4.74922 17.2335L5.01293 16.1199L4.55584 16.0032L4.29214 17.1167L3.81748 17L4.11634 15.7338L3.65926 15.6171L3.23733 17.4041L5.55791 17.9788L5.98862 16.1738L5.99741 16.1828ZM6.96432 13.6325L6.52482 13.4349L6.05016 14.5484L4.30093 13.7761L4.08997 14.27L6.2787 15.2399L6.95553 13.6325H6.96432ZM7.70269 11.0372C7.35109 10.8037 7.06101 10.9384 6.69183 11.2797C6.37539 11.576 6.2787 11.6299 6.14685 11.5401C6.05015 11.4682 6.03257 11.3335 6.14685 11.1539C6.26112 10.9833 6.44571 10.8576 6.68304 10.7588L6.49845 10.3008C6.19959 10.3996 5.95346 10.5882 5.76008 10.8845C5.49638 11.2976 5.54033 11.7556 5.90072 11.9981C6.29628 12.2675 6.57756 12.0789 6.94674 11.7377C7.2544 11.4503 7.35109 11.4233 7.46536 11.4952C7.57963 11.576 7.57963 11.7377 7.46536 11.9173C7.31593 12.1507 7.09617 12.2765 6.83247 12.3663L6.97311 12.8422C7.3423 12.7434 7.64995 12.501 7.85212 12.1956C8.1334 11.7556 8.10703 11.2976 7.71148 11.0282L7.70269 11.0372ZM10.2342 9.2771L8.53775 7.5619L8.16856 7.93906L8.83661 8.62155L8.15098 9.322L7.48294 8.63951L7.11375 9.01668L8.81024 10.7319L9.17942 10.3547L8.50258 9.66325L9.18821 8.9628L9.86505 9.65427L10.2342 9.2771ZM12.212 6.30468C11.834 5.72098 11.0957 5.55035 10.4804 5.97242C9.86505 6.39448 9.72441 7.16677 10.1024 7.7415C10.4804 8.32521 11.2187 8.49583 11.834 8.07377C12.4493 7.66068 12.59 6.87941 12.212 6.30468ZM11.7549 6.61899C11.9835 6.96921 11.9219 7.41822 11.5703 7.6517C11.2187 7.88518 10.7792 7.76844 10.5507 7.41822C10.3221 7.06799 10.3837 6.61001 10.7353 6.37652C11.0869 6.13406 11.5264 6.25978 11.7549 6.61001V6.61899ZM15.2446 5.82874L14.8051 5.64015C14.6996 5.87364 14.5853 6.04426 14.3304 6.14304C13.9524 6.30468 13.5569 6.08916 13.4074 5.70301C13.2492 5.30789 13.3987 4.88582 13.7678 4.72418C13.9876 4.63438 14.1986 4.65234 14.4359 4.74214L14.6029 4.24824C14.3128 4.13149 14.0052 4.08659 13.592 4.2662C12.9152 4.54458 12.6515 5.27197 12.9064 5.90956C13.1613 6.56511 13.8557 6.87941 14.5062 6.60103C14.9281 6.42142 15.1215 6.161 15.2534 5.81976L15.2446 5.82874ZM18.2068 5.55933L17.8113 3.15266L17.2927 3.24246L17.4509 4.19436L16.4928 4.356L16.3345 3.40411L15.8159 3.49391L16.2203 5.90058L16.7389 5.81078L16.5807 4.8499L17.5388 4.68826L17.697 5.64913L18.2156 5.55933H18.2068ZM20.9317 4.74214C20.9317 4.3111 20.6593 4.13149 20.1758 4.00577C19.7627 3.89801 19.6572 3.84413 19.6572 3.68249C19.6572 3.55677 19.7627 3.46697 19.9648 3.46697C20.167 3.46697 20.378 3.55677 20.5889 3.70943L20.8614 3.30532C20.6153 3.10776 20.3252 3 19.9736 3C19.4902 3 19.1386 3.29634 19.1386 3.73637C19.1386 4.23028 19.4462 4.36498 19.9297 4.4907C20.3252 4.59846 20.4131 4.66132 20.4131 4.79602C20.4131 4.94868 20.2813 5.02951 20.0703 5.02951C19.7978 5.02951 19.5693 4.91276 19.3583 4.73316L19.0507 5.11033C19.3407 5.37075 19.7011 5.49647 20.0615 5.49647C20.5801 5.49647 20.9405 5.22707 20.9405 4.74214H20.9317ZM23.8325 5.54137L23.5688 5.13727C23.349 5.27197 23.1644 5.35279 22.9007 5.29891C22.4964 5.21809 22.2854 4.82296 22.3645 4.40988C22.4436 3.99679 22.7865 3.70943 23.182 3.79025C23.4193 3.83515 23.5776 3.97883 23.727 4.1764L24.1313 3.85311C23.9555 3.59269 23.7182 3.38614 23.2787 3.30532C22.5579 3.16164 21.9514 3.61963 21.8195 4.30212C21.6877 4.99359 22.1008 5.64015 22.7865 5.77486C23.2347 5.86466 23.5336 5.74792 23.8237 5.53239L23.8325 5.54137ZM26.4519 6.96921L27.4012 4.73316L26.9178 4.51764L26.5398 5.40667L25.652 5.01155L26.03 4.12251L25.5465 3.90699L24.5972 6.14304L25.0807 6.35856L25.4586 5.46055L26.3464 5.85568L25.9685 6.75369L26.4519 6.96921ZM29.5636 7.6966L30.3283 6.56511L29.8976 6.25978L29.1153 7.40924C28.8956 7.72354 28.6319 7.77742 28.3681 7.58884C28.1044 7.40026 28.0605 7.12187 28.2802 6.79859L29.045 5.66709L28.6143 5.36177L27.8407 6.51123C27.4364 7.10391 27.5595 7.63374 28.0869 8.00193C28.6143 8.37909 29.1505 8.31623 29.5636 7.70558V7.6966ZM30.9173 10.4176L31.2513 10.0674L30.4074 9.21424L31.7523 7.8313L31.3831 7.45414L29.7042 9.1873L30.9173 10.4266V10.4176ZM32.4995 12.5818L32.8862 12.3034L32.1391 11.2168L32.5522 10.9205L33.1939 11.8634L33.5807 11.585L32.939 10.6421L33.3345 10.3547L34.0641 11.4233L34.4509 11.145L33.4136 9.63631L31.4623 11.0372L32.5083 12.5548L32.4995 12.5818ZM34.1081 16.4163L34.5651 16.2636L34.196 15.1052L36.0155 14.5035L35.8573 13.9917L33.5895 14.746L34.1169 16.4163H34.1081ZM34.5827 19.0475L35.0486 18.9756L34.864 17.6645L35.3563 17.5927L35.5145 18.7332L35.9804 18.6613L35.8221 17.5208L36.3056 17.449L36.4902 18.7421L36.956 18.6703L36.7011 16.8473L34.3366 17.1976L34.6003 19.0385L34.5827 19.0475ZM34.6179 20.5022H37V19.9634H34.6091V20.5022H34.6179ZM35.8749 23.6812C36.3583 23.753 36.7363 23.4567 36.8242 22.882L36.9648 21.8942L34.6003 21.5529L34.53 22.0827L35.242 22.1905L35.1892 22.5946C35.1101 23.1334 35.3387 23.6094 35.8837 23.6902L35.8749 23.6812ZM35.9364 23.1424C35.7342 23.1155 35.6024 22.9359 35.6375 22.6665L35.6991 22.2444L36.4199 22.3521L36.3583 22.7652C36.3232 23.0346 36.1737 23.1783 35.9364 23.1424ZM33.6334 25.8454L34.0729 25.9891L34.4772 24.7139L35.5321 26.465L35.91 26.5908L36.5078 24.696L36.0683 24.5523L35.6815 25.7915L34.6267 24.0404L34.2487 23.9147L33.6422 25.8454H33.6334ZM33.0005 27.2104L35.1453 28.288L35.3738 27.8031L33.2291 26.7255L33.0005 27.2104ZM31.6293 30.0481L32.4819 30.6498L33.0708 29.7787L32.7017 29.5183L32.4028 29.9583L32.1215 29.7607C32.1215 29.5901 32.1742 29.4195 32.2885 29.2579C32.5259 28.8987 32.9654 28.8358 33.3257 29.0872C33.6598 29.3297 33.7653 29.7787 33.5455 30.102C33.3873 30.3355 33.2203 30.4163 32.9917 30.4881L33.1324 31C33.4488 30.9102 33.6949 30.7665 33.9323 30.4073C34.3454 29.7967 34.1872 29.0334 33.6334 28.6382C33.0533 28.2251 32.3325 28.3509 31.9105 28.9705C31.6644 29.3387 31.6117 29.7158 31.6381 30.0481H31.6293Z" fill="var(--fill-0, white)"/>
</g>
</svg>
