<svg preserveAspectRatio="none" width="100%" height="100%" overflow="visible" style="display: block;" viewBox="0 0 129.626 34" fill="none" xmlns="http://www.w3.org/2000/svg">
<g id="Group">
<path id="Vector" d="M61.5418 26.8848V19.7697L62.751 19.6832C63.4204 19.6616 64.0035 19.6616 64.0467 19.7048C64.0898 19.7481 64.133 22.9921 64.133 26.9065V34H62.8374H61.5418V26.8848Z" fill="var(--fill-0, white)"/>
<path id="Vector_2" d="M92.4208 26.8632V19.7264H93.7164H95.012V26.8632V34H93.7164H92.4208V26.8632Z" fill="var(--fill-0, white)"/>
<path id="Vector_3" d="M96.5231 26.8632V19.7264H97.8187H99.1144V26.8632V34H97.8187H96.5231V26.8632Z" fill="var(--fill-0, white)"/>
<path id="Vector_4" d="M48.2618 33.3512C47.3764 32.378 48.0674 30.756 49.363 30.756C50.1188 30.756 50.961 31.5562 50.961 32.2699C50.961 33.5242 49.1039 34.2811 48.2618 33.3512Z" fill="var(--fill-0, white)"/>
<path id="Vector_5" d="M75.6205 33.2214C72.2303 32.3131 70.5028 30.0639 70.5028 26.5388C70.5028 23.5111 71.7121 21.4566 74.2169 20.2238C76.1387 19.2939 79.8096 19.2723 81.0189 20.2022C81.3428 20.4617 81.3428 20.5482 81.0621 21.2835L80.7382 22.0621L79.7665 21.7377C76.2683 20.5482 73.31 22.7758 73.31 26.5604C73.31 30.3235 76.1387 32.4212 79.6153 31.2102L80.7382 30.8425L81.1053 31.6859C81.5587 32.6591 81.4939 32.724 79.8096 33.2431C78.4924 33.6323 77.132 33.6323 75.6205 33.2214Z" fill="var(--fill-0, white)"/>
<path id="Vector_6" d="M0 26.5388V19.7264H1.29561H2.59123V26.5388V33.3512H1.29561H0V26.5388Z" fill="var(--fill-0, white)"/>
<path id="Vector_7" d="M8.2058 29.4368C7.90349 29.3287 7.45002 29.0043 7.1909 28.7664L6.69425 28.3122V28.8745C6.69425 29.4368 6.65106 29.4584 5.39863 29.4584H4.10302V24.5924V19.7264H5.39863H6.69425V23.0786C6.69425 25.0898 6.78062 26.6253 6.93178 26.9497C7.25568 27.6634 8.27058 28.0743 9.02635 27.8148C9.99806 27.4688 10.1492 26.8416 10.1492 23.1434V19.7264H11.4232H12.7189L12.7836 23.3165L12.8484 26.9065L13.453 27.4255C14.2304 28.0959 14.9214 28.0743 15.6988 27.4255L16.3034 26.9065L16.2818 23.3165L16.2602 19.7264H17.5342H18.7866V23.403C18.7866 27.3823 18.6355 28.0743 17.6638 28.9826C16.6489 29.9126 14.7271 29.8909 13.2803 28.9178L12.5029 28.3771L11.7471 28.961C10.8834 29.6098 9.15591 29.8477 8.2058 29.4368Z" fill="var(--fill-0, white)"/>
<path id="Vector_8" d="M24.2929 29.3287C23.9474 29.1556 23.4291 28.788 23.17 28.5501L22.6733 28.0959V28.7664V29.4584H21.4857H20.2981V22.9272C20.2981 19.3155 20.2333 16.0067 20.1685 15.5741L20.0173 14.7523H21.4425H22.8677L22.7381 17.8233L22.6086 20.9159L23.2996 20.3104C25.8476 18.1693 29.4753 20.2239 29.9288 24.095C30.3607 27.8364 27.1648 30.8209 24.2929 29.3287ZM26.4954 27.4039C27.7478 25.9982 27.4887 22.3433 26.0851 21.3701C23.9042 19.8346 21.8528 23.6192 23.17 26.7118C23.7962 28.1608 25.5021 28.5068 26.4954 27.4039Z" fill="var(--fill-0, white)"/>
<path id="Vector_9" d="M33.6857 29.2205C31.9798 28.442 31.1376 27.2525 30.9433 25.2412C30.5114 21.0673 34.0527 18.4505 38.2203 19.8346C39.4943 20.2671 39.6887 20.5483 39.192 21.3052C38.8465 21.8242 38.8033 21.8458 38.1123 21.5431C35.9314 20.6348 34.1175 21.4998 33.5993 23.6841L33.4697 24.268H36.6224H39.7966L39.6671 25.5656C39.3648 28.8961 36.644 30.5614 33.6857 29.2205ZM36.7951 27.7499C36.9895 27.5336 37.227 26.993 37.2918 26.5604L37.4213 25.7819H35.5427C33.6857 25.7819 33.6857 25.7819 33.6857 26.3442C33.6857 27.7283 35.9098 28.7231 36.7951 27.7499Z" fill="var(--fill-0, white)"/>
<path id="Vector_10" d="M44.8714 29.4368C44.6555 29.3286 44.2452 28.8529 43.9429 28.4203L43.403 27.6201V28.5501V29.4584H42.1722H40.9198L40.8766 24.614L40.855 19.7697L42.1074 19.6832L43.3598 19.6183L43.4462 22.7974C43.5326 26.6902 43.7485 27.1876 45.4544 27.1876C46.3829 27.1876 46.4909 27.2525 46.858 27.9445C47.3978 28.9177 47.3978 28.8745 46.6637 29.307C45.9511 29.7179 45.4112 29.7612 44.8714 29.4368Z" fill="var(--fill-0, white)"/>
<path id="Vector_11" d="M54.3725 29.4584C53.6167 29.2421 52.4722 28.5501 52.4722 28.3122C52.4722 28.2257 52.6234 27.9013 52.8177 27.6201L53.1632 27.0795L53.919 27.5336C55.0203 28.2257 56.4886 28.2041 57.0285 27.5336C57.6331 26.7983 57.4819 26.6253 55.7976 26.1063C52.7745 25.1763 51.8244 24.2896 51.8244 22.4514C51.8244 19.5102 54.1997 18.5586 56.7046 20.4834L57.4172 21.024L57.4819 20.4401C57.5467 19.8562 57.6115 19.8346 58.8423 19.7697L60.1379 19.7048L60.0732 22.7974C59.9868 26.6902 59.7709 27.9229 58.9719 28.6798C58.0218 29.5882 55.9704 29.9342 54.3725 29.4584ZM57.2012 22.9055C56.5318 20.8726 54.1997 20.678 54.1997 22.646C54.1997 23.6192 54.8907 24.3978 56.2079 24.8736L57.3308 25.3061L57.3956 24.5059C57.4387 24.0734 57.3524 23.3597 57.2012 22.9055Z" fill="var(--fill-0, white)"/>
<path id="Vector_12" d="M84.5391 29.3503C82.0774 28.4852 80.8034 25.4575 81.7535 22.7109C83.2219 18.364 89.484 18.364 91.0387 22.6893C92.5287 26.9065 88.7066 30.8209 84.5391 29.3503ZM87.7349 27.6202C89.2681 26.063 88.901 21.8675 87.1519 21.1322C85.4028 20.3969 84.2152 21.7593 84.2152 24.4843C84.2152 27.5985 86.0938 29.2638 87.7349 27.6202Z" fill="var(--fill-0, white)"/>
<path id="Vector_13" d="M103.109 29.3503C99.2006 27.9662 99.2006 21.4566 103.109 19.8129C104.318 19.3155 106.391 19.3804 107.752 19.9643C108.983 20.4834 108.939 20.4185 108.507 21.2403C108.184 21.8675 108.162 21.8675 107.428 21.5431C105.592 20.7861 103.735 21.3484 103.087 22.8839C102.504 24.2896 102.461 24.268 105.787 24.268C107.687 24.268 108.853 24.3545 108.939 24.5059C109.026 24.6357 108.961 25.371 108.831 26.1495C108.27 29.0475 105.938 30.3451 103.109 29.3503ZM105.808 27.9445C106.175 27.7499 106.672 26.6902 106.672 26.0847C106.672 25.8468 106.219 25.7819 104.729 25.7819C102.634 25.7819 102.612 25.8035 103.087 26.9497C103.541 28.0527 104.75 28.5068 105.808 27.9445Z" fill="var(--fill-0, white)"/>
<path id="Vector_14" d="M112.719 29.3286C110.538 28.3771 109.436 25.6305 110.127 22.7974C110.84 19.7697 114.101 18.4937 116.368 20.332L117.232 21.024L117.102 19.7913C116.821 16.8285 115.008 15.812 111.92 16.8933C110.883 17.2394 110.775 17.2394 110.689 16.9366C110.646 16.742 110.538 16.3743 110.473 16.1364C110.3 15.5309 111.531 15.0118 113.474 14.8172C116.109 14.5793 117.988 15.466 119.046 17.434C119.499 18.2774 119.521 18.6451 119.585 23.9004L119.65 29.4584H118.355C117.059 29.4584 117.037 29.4368 117.037 28.8745C117.037 28.5285 116.951 28.3771 116.865 28.5068C116.195 29.5449 114.144 29.9558 112.719 29.3286ZM115.612 27.858C118.052 26.8416 117.297 21.024 114.705 21.024C112.287 21.024 111.725 26.7118 114.036 27.8797C114.684 28.2257 114.748 28.2257 115.612 27.858Z" fill="var(--fill-0, white)"/>
<path id="Vector_15" d="M123.839 29.4152C119.931 28.0527 119.65 21.7593 123.407 19.9427C124.746 19.2939 126.711 19.2939 128.244 19.9427C129.497 20.505 129.453 20.4185 129.021 21.2403C128.698 21.8675 128.698 21.8675 127.92 21.5431C126.042 20.7645 124.444 21.2403 123.709 22.819C123.04 24.3113 122.954 24.268 126.452 24.268H129.626L129.475 25.5224C129.108 28.7447 126.711 30.41 123.839 29.4152ZM126.625 27.7499C126.819 27.5336 127.056 26.993 127.121 26.5604L127.251 25.7819H125.286H123.321L123.515 26.3874C123.601 26.7118 123.753 27.1227 123.839 27.3174C124.163 28.1608 125.998 28.442 126.625 27.7499Z" fill="var(--fill-0, white)"/>
<path id="Vector_16" d="M48.1538 24.5492V19.6183L49.3846 19.6832L50.6371 19.7697V24.614L50.6587 29.4584H49.4062H48.1538V24.5492Z" fill="var(--fill-0, white)"/>
<path id="Vector_17" d="M38.8686 11.6813C38.8686 8.97801 38.847 8.86988 38.4799 9.19428C35.9102 11.53 31.8291 9.49705 31.3756 5.66914C30.8789 1.49521 34.6146 -1.38113 37.8537 0.695022L38.8686 1.34382V0.803155C38.8686 0.284117 38.9333 0.26249 40.1642 0.26249H41.4598V7.39927V14.536H40.1642H38.8686V11.6813ZM37.8753 8.06969C39.8619 6.31794 38.847 1.56009 36.4717 1.56009C33.8589 1.56009 33.1679 7.31276 35.6727 8.35084C36.4285 8.67524 37.3138 8.56711 37.8753 8.06969Z" fill="var(--fill-0, white)"/>
<path id="Vector_18" d="M0 7.07488V0.2625H4.21075H8.42149V1.12756V1.99263H5.48477H2.52645L2.63441 7.93995L2.72079 13.8873H1.36039H0V7.07488Z" fill="var(--fill-0, white)"/>
<path id="Vector_19" d="M12.4809 10.0161C9.71693 9.10777 8.29176 6.75047 8.85319 4.00389C9.8249 -0.602577 16.4541 -1.48927 18.5919 2.68467C19.8875 5.23661 18.9158 8.39409 16.4973 9.58356C15.3744 10.1242 13.4742 10.3189 12.4809 10.0161ZM15.3313 8.11295C17.0803 6.51258 16.5405 2.0575 14.5323 1.47358C12.8696 1.01942 11.6604 2.42515 11.6172 4.86895C11.574 8.11295 13.4958 9.77819 15.3313 8.11295Z" fill="var(--fill-0, white)"/>
<path id="Vector_20" d="M25.0056 9.90795C24.5522 9.73494 23.9476 9.4538 23.6453 9.25916C23.127 8.91313 23.1054 8.91313 23.1054 9.4538C23.1054 9.99446 23.0622 10.0161 21.8746 9.95121L20.6437 9.88633L20.6222 5.08522V0.30574L21.8746 0.219234L23.1054 0.154354V3.35509C23.1054 7.00999 23.2998 7.65879 24.5522 8.17783C25.5023 8.58873 26.4308 8.39409 26.9923 7.68041C27.3809 7.183 27.4241 6.79372 27.4241 3.70112V0.262487H28.7413H30.0585L29.9722 4.11202C29.9074 7.48577 29.8642 8.02644 29.4755 8.69686C28.6766 10.0593 26.8411 10.5568 25.0056 9.90795Z" fill="var(--fill-0, white)"/>
<path id="Vector_21" d="M46.3611 9.90795C41.0275 7.98318 41.9344 0.45712 47.5703 0.0894682C50.7662 -0.105171 52.7744 1.43032 53.2279 4.41479C53.7893 8.15619 49.9888 11.2055 46.3611 9.90795ZM49.449 8.09131C51.0685 6.44769 50.7446 2.51165 48.9307 1.62496C47.5056 0.954532 46.1884 1.84122 45.7781 3.78762C45.0439 7.29113 47.4408 10.1026 49.449 8.09131Z" fill="var(--fill-0, white)"/>
<path id="Vector_22" d="M59.0583 9.95121C58.7128 9.82145 58.1514 9.51867 57.8274 9.30241L57.2228 8.8915V9.43217C57.2228 9.97283 57.1796 9.99446 55.9272 9.99446H54.6316V5.12847V0.262487H55.9272H57.2228V3.59298C57.2228 7.37764 57.482 8.06969 59.0367 8.35084C61.0449 8.74012 61.5415 7.76692 61.5415 3.35509V0.154354L62.7724 0.175981L64.0248 0.219234V4.06877C64.0248 7.72367 64.0032 7.98319 63.5281 8.71849C62.7508 10.0161 60.7642 10.5568 59.0583 9.95121Z" fill="var(--fill-0, white)"/>
</g>
</svg>
