<svg preserveAspectRatio="none" width="100%" height="100%" overflow="visible" style="display: block;" viewBox="0 0 140.053 40.16" fill="none" xmlns="http://www.w3.org/2000/svg">
<g id="Group">
<path id="path5_3_" d="M22.7368 11.12C22.8158 11.12 22.8158 11.12 22.7368 11.12C22.8947 11.28 23.0526 11.36 23.2895 11.52C23.3684 11.6 23.4474 11.68 23.5263 11.76L23.6053 11.84C25.3421 13.44 26.4474 15.68 26.4474 18.24C26.4474 22.96 22.6579 26.8 18 26.8C15.0789 26.8 12.4737 25.28 10.9737 23.04V39.92H39.3947V11.12H22.7368Z" fill="var(--fill-0, white)"/>
<path id="path7_3_" d="M18.0789 25.28C21.9474 25.28 25.1053 22.08 25.1053 18.16C25.1053 14.24 21.9474 11.04 18.0789 11.04C14.2105 11.04 11.0526 14.24 11.0526 18.16C11.0526 22.08 14.1316 25.28 18.0789 25.28Z" fill="var(--fill-0, white)"/>
<path id="path9_3_" d="M7.02632 14.24C10.8947 14.24 14.0526 11.04 14.0526 7.11999C14.0526 3.19999 10.8947 0 7.02632 0C3.1579 0 0 3.19999 0 7.11999C0 11.04 3.23684 14.24 7.02632 14.24Z" fill="var(--fill-0, white)"/>
<path id="Vector" d="M125.368 18.32V17.44H122.447V11.12H121.421V18.32H125.368ZM117.711 15.6H115.263L116.447 12L117.711 15.6ZM119.684 18.32L117.158 11.12H115.974L113.447 18.32H114.474L115.105 16.48H118.026L118.658 18.32H119.684ZM111.789 18.32V11.12H110.842V16.72L107.605 11.12H106.5V18.32H107.447V12.72L110.684 18.32H111.789ZM103.658 15.2C103.658 16.72 103.026 17.52 101.763 17.52C100.5 17.52 99.9474 16.64 99.9474 15.2V14.16C99.9474 12.64 100.579 11.84 101.842 11.84C103.105 11.84 103.658 12.72 103.658 14.16V15.2ZM104.763 14.72C104.763 12.56 104.289 10.96 101.921 10.96C99.4737 10.96 98.9211 12.56 98.9211 14.72C98.9211 16.88 99.3158 18.48 101.842 18.48C104.211 18.4 104.763 16.88 104.763 14.72ZM97.1842 11.12H96.1579V18.32H97.1842V11.12ZM94.6579 12V11.12H89.5263V12H91.5789V18.32H92.6053V12H94.6579ZM87.0789 15.6H84.6316L85.8158 12L87.0789 15.6ZM89.0526 18.32L86.5263 11.12H85.2632L82.7368 18.32H83.7632L84.3947 16.48H87.3158L87.9474 18.32H89.0526ZM81.0789 18.32V11.12H80.1316V16.72L76.8947 11.12H75.7895V18.32H76.7368V12.72L79.9737 18.32H81.0789ZM72.7895 13.2C72.7895 14 72.2368 14.48 71.1316 14.48H70.1053V11.92H71.2895C72.3158 11.92 72.7895 12.4 72.7895 13.2ZM74.2105 18.32L73.0263 15.68C72.7895 15.12 72.3947 15.04 72.3947 15.04C73.3421 14.8 73.8947 14.16 73.8947 13.2C73.8947 11.76 72.9474 11.2 71.4474 11.2H69.1579V18.4H70.1842V15.44H71.2105C71.6053 15.44 71.921 15.68 72.1579 16.16L73.1053 18.4H74.2105V18.32ZM67.1842 18.32V17.44H64.2632V14.96H66.9474V14.08H64.2632V11.92H67.1842V11.04H63.1579V18.24H67.1842V18.32ZM61.7368 12V11.12H56.6053V12H58.6579V18.32H59.6842V12H61.7368ZM55.1053 18.32V11.12H54.1579V16.72L50.9211 11.12H49.8158V18.32H50.7632V12.72L54 18.32H55.1053ZM47.6842 11.12H46.6579V18.32H47.6842V11.12Z" fill="var(--fill-0, white)"/>
<path id="Vector_2" d="M131.211 28.72L131.132 27.84C130.658 28.16 130.184 28.32 129.553 28.32C128.368 28.32 127.579 27.68 127.579 26V24.96C127.579 23.44 128.211 22.64 129.553 22.64C130.105 22.64 130.579 22.8 131.053 23.04L131.132 22.16C130.737 22 130.263 21.84 129.553 21.84C127.105 21.84 126.632 23.6 126.632 25.6C126.632 27.6 127.026 29.28 129.395 29.28C130.184 29.2 130.737 29.04 131.211 28.72ZM124.895 21.92H123.868V29.12H124.895V21.92ZM122.447 22.72V21.84H117.395V22.72H119.447V29.04H120.474V22.72H122.447ZM116.684 21.92H115.579L113.763 25.68L111.947 21.92H110.842L113.289 26.56V29.04H114.316V26.56L116.684 21.92ZM111 29.04V28.16H108.158V21.84H107.132V29.04H111ZM103.5 26.4H101.132L102.316 22.8L103.5 26.4ZM105.395 29.04L102.868 21.84H101.684L99.1579 29.04H100.184L100.816 27.2H103.737L104.368 29.04H105.395ZM97.6579 29.04V21.84H96.7105V27.44L93.4737 21.84H92.3684V29.04H93.3158V23.44L96.5526 29.04H97.6579ZM88.8158 26.4H86.4474L87.6316 22.8L88.8158 26.4ZM90.7105 29.04L88.1842 21.84H87L84.4737 29.04H85.5L86.1316 27.2H89.0526L89.6842 29.04H90.7105ZM82.421 26C82.421 27.52 81.7895 28.32 80.6053 28.32C79.3421 28.32 78.7895 27.44 78.7895 26V24.96C78.7895 23.44 79.4211 22.64 80.6053 22.64C81.8684 22.64 82.421 23.52 82.421 24.96V26ZM83.4474 25.44C83.4474 23.28 83.0526 21.68 80.6053 21.68C78.1579 21.68 77.6842 23.28 77.6842 25.44C77.6842 27.6 78.0789 29.2 80.5263 29.2C82.8947 29.2 83.4474 27.68 83.4474 25.44ZM76.0263 29.04V21.84H75V24.88H71.8421V21.84H70.8158V29.04H71.8421V25.76H75V29.04H76.0263ZM69.3158 28.72L69.2368 27.84C68.7632 28.16 68.2895 28.32 67.6579 28.32C66.4737 28.32 65.6842 27.68 65.6842 26V24.96C65.6842 23.44 66.3158 22.64 67.6579 22.64C68.2105 22.64 68.6842 22.8 69.1579 23.04L69.2368 22.16C68.8421 22 68.3684 21.84 67.6579 21.84C65.2105 21.84 64.7368 23.6 64.7368 25.6C64.7368 27.6 65.1316 29.28 67.5 29.28C68.2105 29.2 68.7632 29.04 69.3158 28.72ZM64.0263 21.92H62.921L61.1053 25.68L59.2895 21.92H58.1842L60.6316 26.56V29.04H61.6579V26.56L64.0263 21.92ZM57.0789 27.12C57.0789 26 56.3684 25.36 55.2632 24.96L55.0263 24.88C54.2368 24.56 53.7632 24.24 53.7632 23.68C53.7632 22.96 54.3158 22.64 55.1842 22.64C55.8158 22.64 56.2895 22.8 56.7632 23.04L56.8421 22.16C56.3684 21.92 55.8947 21.84 55.1053 21.84C53.6053 21.84 52.7368 22.64 52.7368 23.76C52.7368 24.96 53.4474 25.52 54.5526 25.92L54.7895 26C55.5 26.24 56.1316 26.64 56.1316 27.28C56.1316 27.92 55.6579 28.48 54.5526 28.48C53.8421 28.48 53.2105 28.24 52.7368 28L52.6579 28.96C53.1316 29.2 53.8421 29.36 54.6316 29.36C56.2105 29.2 57.0789 28.32 57.0789 27.12ZM50.2105 24.08C50.2105 24.96 49.8158 25.52 48.4737 25.52H47.6053V22.8H48.6316C49.8158 22.72 50.2105 23.12 50.2105 24.08ZM51.3158 24C51.3158 22.48 50.3684 21.84 48.7895 21.84H46.6579V29.04H47.6842V26.32H48.6316C50.3684 26.32 51.3158 25.52 51.3158 24Z" fill="var(--fill-0, white)"/>
<path id="Vector_3" d="M103.737 32.64H102.632L100.816 36.4L99 32.64H97.8947L100.342 37.28V39.76H101.368V37.28L103.737 32.64ZM97.1053 33.52V32.64H92.0526V33.52H94.1053V39.84H95.1316V33.52H97.1053ZM90.5526 32.64H89.5263V39.84H90.5526V32.64ZM87.7895 37.92C87.7895 36.8 87.0789 36.16 85.9737 35.76L85.6579 35.68C84.8684 35.36 84.3947 35.04 84.3947 34.48C84.3947 33.76 84.9474 33.44 85.8158 33.44C86.4474 33.44 86.921 33.6 87.3947 33.84L87.4737 32.96C87 32.72 86.5263 32.64 85.7368 32.64C84.2368 32.64 83.3684 33.44 83.3684 34.56C83.3684 35.76 84.0789 36.32 85.1842 36.72L85.5 36.8C86.2895 37.04 86.8421 37.44 86.8421 38.08C86.8421 38.72 86.3684 39.28 85.2632 39.28C84.5526 39.28 83.921 39.04 83.4474 38.8L83.3684 39.76C83.8421 40 84.5526 40.16 85.3421 40.16C86.9211 40 87.7895 39.12 87.7895 37.92ZM80.6053 34.8C80.6053 35.6 80.0526 36.08 79.0263 36.08H78V33.52H79.1842C80.2105 33.52 80.6053 33.92 80.6053 34.8ZM82.0263 39.84L80.8421 37.2C80.6053 36.64 80.2105 36.56 80.2105 36.56C81.1579 36.32 81.7105 35.68 81.7105 34.72C81.7105 33.28 80.7631 32.72 79.2631 32.72H76.9737V39.92H78V36.88H79.0263C79.4211 36.88 79.7368 37.12 79.8947 37.6L80.8421 39.84H82.0263ZM75.1579 39.84V38.96H72.2368V36.48H74.921V35.6H72.2368V33.44H75.1579V32.56H71.2105V39.76H75.1579V39.84ZM69.7105 32.64H68.6842L66.7105 38.88L64.7368 32.64H63.6316L66 39.84H67.1842L69.7105 32.64ZM62.2105 32.64H61.1842V39.84H62.2105V32.64ZM59.1316 39.84V32.64H58.1842V38.24L54.9474 32.64H53.8421V39.84H54.7895V34.24L58.0263 39.84H59.1316ZM51.7895 37.44V32.64H50.7632V37.44C50.7632 38.56 50.2895 39.12 49.1842 39.12C48.1579 39.12 47.6053 38.48 47.6053 37.44V32.64H46.5789V37.44C46.5789 39.28 47.4474 40 49.1053 40C50.8421 40 51.7895 39.28 51.7895 37.44Z" fill="var(--fill-0, white)"/>
<path id="Vector_4" d="M124.026 39.92L123.079 37.68C122.921 37.2 122.526 36.96 122.132 36.96H121.026V39.92H120V32.72H122.368C123.947 32.72 124.895 33.28 124.895 34.72C124.895 35.68 124.263 36.32 123.316 36.56C123.316 36.56 123.711 36.64 124.026 37.2L125.289 39.92H124.026ZM122.289 33.52H121.026V36.08H122.132C123.237 36.08 123.789 35.6 123.789 34.8C123.789 33.92 123.395 33.52 122.289 33.52Z" fill="var(--fill-0, white)"/>
<path id="Vector_5" d="M118.026 39.84V39.04H115.105V36.56H117.789V35.68H115.105V33.52H118.026V32.64H114.079V39.84H118.026Z" fill="var(--fill-0, white)"/>
<path id="Vector_6" d="M132.868 32.64H131.842V39.84H132.868V32.64Z" fill="var(--fill-0, white)"/>
<path id="Vector_7" d="M140.053 39.84V32.64H139.105V38.24L135.868 32.64H134.763V39.84H135.789L135.711 34.24L138.947 39.84H140.053Z" fill="var(--fill-0, white)"/>
<path id="Vector_8" d="M130.5 39.84V39.04L127.579 38.96V32.64H126.553V39.84H130.5Z" fill="var(--fill-0, white)"/>
<path id="Vector_9" d="M109.658 39.84H107.447V32.64H109.737C111 32.64 112.184 32.96 112.184 34.4C112.184 35.44 111.474 35.84 110.842 36C111.395 36.08 112.342 36.4 112.342 37.68C112.342 39.12 111.553 39.84 109.658 39.84ZM109.658 33.44H108.553V35.68H109.579C110.605 35.68 111.079 35.28 111.079 34.48C111.079 33.76 110.526 33.44 109.658 33.44ZM109.658 36.48H108.553V39.04H109.579C110.684 39.04 111.316 38.64 111.316 37.76C111.316 36.88 110.684 36.48 109.658 36.48Z" fill="var(--fill-0, white)"/>
</g>
</svg>
