<svg preserveAspectRatio="none" width="100%" height="100%" overflow="visible" style="display: block;" viewBox="0 0 246.208 56.8889" fill="none" xmlns="http://www.w3.org/2000/svg">
<g id="Group">
<path id="Vector" d="M116.451 0L118.534 7.43111C118.783 8.37926 119.032 9.33926 119.197 10.1215C119.304 10.5719 119.387 11.0104 119.469 11.4252H119.505C119.588 11.0104 119.671 10.5719 119.777 10.1215C119.943 9.33926 120.144 8.37926 120.416 7.43111L122.5 0H126.773V14.7911H123.979V6.30519C123.979 5.70074 123.979 4.96593 124.039 4.31407C124.062 3.95852 124.074 3.59111 124.098 3.23556H124.05C123.991 3.59111 123.908 3.92296 123.849 4.25481C123.707 4.83556 123.565 5.49926 123.411 6.0563L120.866 14.7911H118.002L115.528 6.0563C115.362 5.49926 115.244 4.83556 115.09 4.25481C115.031 3.92296 114.948 3.59111 114.889 3.23556H114.853C114.877 3.59111 114.889 3.95852 114.912 4.31407C114.936 4.95407 114.971 5.70074 114.971 6.30519V14.7911H112.225V0H116.439H116.451ZM135.047 13.6059H135.011C134.751 14.0326 134.372 14.3881 133.934 14.6252C133.295 14.9215 132.597 15.0637 131.886 15.04C129.697 15.04 128.193 13.9259 128.193 11.7926C128.193 10.6311 128.643 9.84889 129.436 9.32741C130.217 8.80593 131.247 8.54519 132.455 8.37926C134.23 8.13037 135.011 7.98815 135.011 7.18222C135.011 6.3763 134.431 5.91407 133.236 5.91407C131.91 5.91407 131.271 6.36444 131.188 7.40741H128.69C128.69 6.94518 128.809 6.48296 128.998 6.0563C129.199 5.62963 129.483 5.26222 129.839 4.96593C130.584 4.32593 131.697 3.91111 133.248 3.91111C136.432 3.91111 137.71 5.32148 137.71 7.82222V13.2267C137.71 14.0326 137.828 14.5067 138.077 14.6963V14.803H135.366C135.177 14.4356 135.059 14.0326 135.035 13.6178L135.047 13.6059ZM134.431 12.4326C134.633 12.2548 134.786 12.0415 134.905 11.8044C135.011 11.5674 135.07 11.3067 135.07 11.0459V9.45778C134.573 9.76593 133.828 9.90815 133.106 10.0741C131.614 10.4059 130.916 10.7378 130.916 11.7333C130.916 12.7289 131.579 13.0726 132.573 13.0726C133.248 13.0963 133.91 12.8711 134.431 12.4326ZM138.704 11.3541H141.309C141.498 12.5985 142.338 13.1081 143.617 13.1081C144.895 13.1081 145.558 12.6341 145.558 11.8874C145.558 11.3896 145.203 11.1052 144.706 10.9156C144.066 10.7259 143.415 10.5837 142.764 10.477C141.794 10.2874 140.882 10.0859 140.184 9.61185C139.462 9.13778 139.012 8.42667 139.012 7.27704C138.988 6.77926 139.095 6.28148 139.308 5.83111C139.533 5.38074 139.853 5.00148 140.267 4.70518C141.048 4.14815 142.102 3.87556 143.321 3.87556C146.15 3.87556 147.641 5.21482 147.866 7.39556H145.321C145.179 6.23407 144.493 5.84296 143.273 5.84296C142.161 5.84296 141.451 6.23407 141.451 7.02815C141.451 7.50222 141.806 7.72741 142.362 7.89333C142.895 8.08296 143.617 8.16593 144.362 8.33185C145.25 8.52148 146.185 8.72296 146.907 9.19704C147.629 9.69481 148.103 10.4415 148.103 11.6859C148.115 12.1719 148.008 12.6578 147.795 13.0963C147.582 13.5348 147.262 13.9141 146.86 14.1985C145.901 14.8267 144.777 15.1467 143.64 15.1111C140.539 15.1111 138.846 13.6415 138.681 11.3659L138.704 11.3541ZM148.742 11.3541H151.346C151.536 12.5985 152.376 13.1081 153.654 13.1081C154.933 13.1081 155.596 12.6341 155.596 11.8874C155.596 11.3896 155.24 11.1052 154.743 10.9156C154.104 10.7259 153.453 10.5837 152.802 10.477C151.831 10.2874 150.92 10.0859 150.222 9.61185C149.5 9.13778 149.038 8.42667 149.038 7.27704C149.014 6.77926 149.121 6.28148 149.334 5.83111C149.559 5.38074 149.89 5.00148 150.293 4.70518C151.074 4.14815 152.127 3.87556 153.347 3.87556C156.176 3.87556 157.667 5.21482 157.892 7.39556H155.347C155.205 6.23407 154.518 5.84296 153.299 5.84296C152.187 5.84296 151.488 6.23407 151.488 7.02815C151.488 7.50222 151.843 7.72741 152.4 7.89333C152.932 8.08296 153.666 8.16593 154.4 8.33185C155.288 8.52148 156.223 8.72296 156.945 9.19704C157.667 9.69481 158.141 10.4415 158.141 11.6859C158.152 12.1719 158.046 12.6578 157.833 13.0963C157.62 13.5348 157.3 13.9141 156.898 14.1985C155.951 14.8267 154.814 15.1467 153.678 15.1111C150.577 15.1111 148.884 13.6415 148.718 11.3659L148.742 11.3541ZM165.775 13.6059H165.74C165.479 14.0326 165.112 14.3881 164.663 14.6252C164.023 14.9215 163.325 15.0637 162.615 15.04C160.425 15.04 158.922 13.9259 158.922 11.7926C158.922 10.6311 159.372 9.84889 160.165 9.32741C160.946 8.80593 161.988 8.54519 163.183 8.37926C164.959 8.13037 165.74 7.98815 165.74 7.18222C165.74 6.3763 165.16 5.91407 163.964 5.91407C162.639 5.91407 161.999 6.36444 161.916 7.40741H159.419C159.419 6.94518 159.537 6.48296 159.727 6.0563C159.928 5.62963 160.212 5.26222 160.567 4.96593C161.313 4.32593 162.425 3.91111 163.976 3.91111C167.16 3.91111 168.439 5.32148 168.439 7.82222V13.2267C168.439 14.0326 168.569 14.5067 168.806 14.6963V14.803H166.095C165.906 14.4356 165.787 14.0326 165.763 13.6178L165.775 13.6059ZM165.16 12.4326C165.361 12.2548 165.515 12.0415 165.633 11.8044C165.74 11.5674 165.799 11.3067 165.799 11.0459V9.45778C165.302 9.76593 164.556 9.90815 163.834 10.0741C162.343 10.4059 161.644 10.7378 161.644 11.7333C161.644 12.7289 162.307 13.0726 163.301 13.0726C163.976 13.0963 164.639 12.8711 165.16 12.4326ZM171.043 13.4637C170.06 12.3733 169.528 10.9511 169.575 9.49333C169.539 8.0237 170.06 6.60148 171.019 5.49926C171.504 4.97778 172.108 4.55111 172.771 4.27852C173.434 4.00593 174.144 3.8637 174.866 3.88741C176.062 3.85185 177.222 4.23111 178.168 4.96593C178.997 5.68889 179.53 6.6963 179.672 7.77481H176.926C176.855 7.31259 176.618 6.88593 176.263 6.58963C175.908 6.29333 175.446 6.12741 174.984 6.13926C173.268 6.13926 172.428 7.40741 172.428 9.49333C172.428 11.5793 173.209 12.8474 174.949 12.8474C176.109 12.8474 176.89 12.2667 177.08 11.0459H179.79C179.719 12.1481 179.222 13.1674 178.405 13.9022C177.47 14.7081 176.251 15.1348 175.02 15.0993C174.286 15.123 173.552 14.9926 172.866 14.7081C172.179 14.4237 171.564 14.0089 171.055 13.4637H171.043ZM183.755 5.55852C184.537 4.42074 185.365 3.88741 186.833 3.88741C187.33 3.87556 187.816 3.97037 188.277 4.16C188.727 4.34963 189.141 4.64593 189.473 5.00148C190.147 5.79556 190.514 6.81481 190.491 7.85778V14.7911H187.685V8.27259C187.685 7.11111 187.046 6.32889 185.851 6.32889C184.655 6.32889 183.708 7.30074 183.708 8.77037V14.7911H180.903V0H183.708V5.57037H183.767L183.755 5.55852ZM198.788 13.5467H198.729C198.398 14.0444 197.948 14.4474 197.415 14.72C196.883 14.9926 196.291 15.1111 195.687 15.0756C193.308 15.0756 192.006 13.6059 192.006 11.2474V4.17185H194.799V10.7733C194.799 12.0178 195.332 12.6933 196.551 12.6933C197.877 12.6933 198.682 11.6978 198.682 10.2874V4.16H201.487V14.7793H198.776V13.5348L198.788 13.5467ZM202.529 11.3541H205.133C205.322 12.5985 206.163 13.1081 207.453 13.1081C208.743 13.1081 209.394 12.6341 209.394 11.8874C209.394 11.3896 209.039 11.1052 208.542 10.9156C207.903 10.7259 207.252 10.5837 206.601 10.477C205.63 10.2874 204.719 10.0859 204.02 9.61185C203.298 9.13778 202.848 8.42667 202.848 7.27704C202.825 6.77926 202.931 6.28148 203.144 5.83111C203.369 5.38074 203.689 5.00148 204.103 4.70518C204.884 4.14815 205.938 3.87556 207.157 3.87556C209.986 3.87556 211.477 5.21482 211.702 7.39556H209.157C209.015 6.23407 208.329 5.84296 207.11 5.84296C205.997 5.84296 205.299 6.23407 205.299 7.02815C205.299 7.50222 205.654 7.72741 206.21 7.89333C206.743 8.08296 207.477 8.16593 208.21 8.33185C209.098 8.52148 210.033 8.72296 210.755 9.19704C211.477 9.69481 211.951 10.4415 211.951 11.6859C211.963 12.1719 211.856 12.6578 211.643 13.0963C211.43 13.5348 211.111 13.9141 210.708 14.1985C209.761 14.8267 208.625 15.1467 207.488 15.1111C204.387 15.1111 202.694 13.6415 202.529 11.3659V11.3541ZM214.093 13.4637C213.146 12.4681 212.673 11.0459 212.673 9.46963C212.637 8.01185 213.158 6.58963 214.141 5.49926C214.614 4.97778 215.206 4.56296 215.845 4.29037C216.496 4.01778 217.195 3.87556 217.893 3.88741C219.609 3.88741 220.888 4.52741 221.776 5.66519C222.663 6.80296 223.125 8.37926 223.125 10.2756H215.443C215.668 11.9348 216.544 12.9185 218.153 12.9185C219.266 12.9185 219.893 12.4207 220.201 11.6148H222.971C222.782 12.5867 222.237 13.4519 221.468 14.0563C220.521 14.7674 219.361 15.123 218.189 15.0874C216.413 15.0874 215.076 14.4711 214.117 13.4519L214.093 13.4637ZM215.478 8.33185H220.189C220.107 6.96889 219.242 6.0563 217.94 6.0563C216.449 6.0563 215.727 6.92148 215.478 8.33185ZM224.936 4.17185V0.865185H227.682V4.17185H229.493V6.13926H227.682V11.6622C227.682 12.4681 228.096 12.717 228.736 12.717H229.268C229.363 12.717 229.458 12.717 229.552 12.6933V14.7674C229.398 14.7911 229.245 14.7911 229.103 14.7911C228.795 14.8148 228.357 14.8148 227.8 14.8148C227.114 14.8504 226.439 14.6607 225.859 14.2933C225.303 13.9022 224.924 13.2622 224.924 12.2667V6.13926H223.456V4.17185H224.924H224.936ZM231.458 4.17185V0.865185H234.204V4.17185H236.027V6.13926H234.204V11.6622C234.204 12.4681 234.619 12.717 235.258 12.717H235.79C235.885 12.717 235.98 12.717 236.074 12.6933V14.7674C235.921 14.7911 235.779 14.7911 235.625 14.7911C235.317 14.8148 234.879 14.8148 234.323 14.8148C233.636 14.8504 232.961 14.6607 232.381 14.2933C231.825 13.9022 231.458 13.2622 231.458 12.2667V6.13926H229.99V4.17185H231.458ZM236.797 11.3541H239.401C239.59 12.5985 240.43 13.1081 241.709 13.1081C242.987 13.1081 243.65 12.6341 243.65 11.8874C243.65 11.3896 243.295 11.1052 242.81 10.9156C242.17 10.7259 241.519 10.5837 240.868 10.477C239.898 10.2874 238.986 10.0859 238.288 9.61185C237.566 9.13778 237.116 8.42667 237.116 7.27704C237.092 6.77926 237.199 6.28148 237.412 5.83111C237.637 5.38074 237.957 5.00148 238.371 4.70518C239.152 4.14815 240.206 3.87556 241.425 3.87556C244.254 3.87556 245.745 5.21482 245.97 7.39556H243.425C243.283 6.23407 242.597 5.84296 241.377 5.84296C240.265 5.84296 239.554 6.23407 239.554 7.02815C239.554 7.50222 239.91 7.72741 240.466 7.89333C240.999 8.08296 241.721 8.16593 242.466 8.33185C243.354 8.52148 244.289 8.72296 245.011 9.19704C245.733 9.69481 246.207 10.4415 246.207 11.6859C246.219 12.1719 246.112 12.6578 245.899 13.0963C245.686 13.5348 245.366 13.9141 244.964 14.1985C244.005 14.8267 242.881 15.1467 241.744 15.1111C238.643 15.1111 236.95 13.6415 236.785 11.3659L236.797 11.3541ZM115.244 19.2356V34.0267H112.249V19.2356H115.244ZM119.99 24.8533C120.298 24.2963 120.76 23.8459 121.316 23.5378C121.872 23.2296 122.5 23.0874 123.139 23.123C123.636 23.1111 124.121 23.2059 124.583 23.3956C125.045 23.5852 125.447 23.8815 125.779 24.237C126.453 25.0311 126.82 26.0504 126.797 27.0933V34.0267H123.991V27.5081C123.991 26.3467 123.352 25.5644 122.156 25.5644C120.961 25.5644 120.014 26.5363 120.014 28.0059V34.0267H117.209V23.4074H119.955V24.8533H120.014H119.99ZM127.732 30.5896H130.336C130.525 31.8341 131.366 32.3437 132.644 32.3437C133.922 32.3437 134.585 31.8696 134.585 31.123C134.585 30.6252 134.23 30.3407 133.733 30.1511C133.094 29.9615 132.443 29.8193 131.792 29.7126C130.821 29.523 129.91 29.3215 129.211 28.8474C128.489 28.3733 128.028 27.6622 128.028 26.5126C128.004 26.0148 128.11 25.517 128.323 25.0667C128.548 24.6163 128.868 24.237 129.282 23.9407C130.063 23.3837 131.117 23.1111 132.336 23.1111C135.165 23.1111 136.657 24.4504 136.882 26.6311H134.337C134.195 25.4696 133.508 25.0785 132.289 25.0785C131.176 25.0785 130.478 25.4696 130.478 26.2637C130.478 26.7378 130.833 26.963 131.389 27.1289C131.922 27.3185 132.656 27.4015 133.39 27.5674C134.277 27.757 135.213 27.9585 135.935 28.4326C136.657 28.9304 137.13 29.677 137.13 30.9215C137.142 31.4074 137.035 31.8933 136.822 32.3319C136.609 32.7704 136.29 33.1496 135.887 33.4341C134.928 34.0622 133.804 34.3822 132.668 34.3467C129.566 34.3467 127.874 32.877 127.708 30.6015L127.732 30.5896ZM138.929 23.4074V20.1007H141.675V23.4074H143.486V25.3748H141.675V30.8978C141.675 31.7037 142.09 31.9526 142.729 31.9526H143.262C143.356 31.9526 143.451 31.9526 143.558 31.9289V34.003C143.404 34.0148 143.25 34.0267 143.108 34.0267C142.8 34.0504 142.362 34.0504 141.806 34.0504C141.119 34.0859 140.444 33.8963 139.864 33.5289C139.308 33.1378 138.929 32.4978 138.929 31.5022V25.3748H137.462V23.4074H138.929ZM147.629 19.6267V22.1511H144.824V19.6267H147.629ZM147.629 23.4074V34.0267H144.824V23.4074H147.629ZM150.162 23.4074V20.1007H152.909V23.4074H154.732V25.3748H152.92V30.8978C152.92 31.7037 153.335 31.9526 153.974 31.9526H154.507C154.601 31.9526 154.696 31.9526 154.803 31.9289V34.003C154.649 34.0148 154.495 34.0267 154.353 34.0267C154.045 34.0504 153.607 34.0504 153.051 34.0504C152.364 34.0859 151.689 33.8963 151.109 33.5289C150.553 33.1378 150.174 32.4978 150.174 31.5022V25.3748H148.707V23.4074H150.174H150.162ZM162.745 32.7822H162.686C162.354 33.28 161.905 33.683 161.372 33.9556C160.839 34.2282 160.247 34.3467 159.644 34.3111C157.265 34.3111 155.963 32.8415 155.963 30.483V23.4074H158.756V30.0089C158.756 31.2533 159.289 31.9289 160.508 31.9289C161.834 31.9289 162.639 30.9333 162.639 29.523V23.3956H165.444V34.0148H162.733V32.7704L162.745 32.7822ZM167.989 23.4074V20.1007H170.735V23.4074H172.558V25.3748H170.735V30.8978C170.735 31.7037 171.149 31.9526 171.788 31.9526H172.321C172.416 31.9526 172.51 31.9526 172.605 31.9289V34.003C172.451 34.0148 172.309 34.0267 172.155 34.0267C171.848 34.0504 171.41 34.0504 170.853 34.0504C170.167 34.0859 169.492 33.8963 168.912 33.5289C168.356 33.1378 167.989 32.4978 167.989 31.5022V25.3748H166.521V23.4074H167.989ZM174.688 32.6993C173.742 31.7037 173.268 30.2815 173.268 28.7052C173.233 27.2474 173.765 25.8252 174.736 24.7348C175.209 24.2133 175.801 23.7985 176.44 23.5259C177.091 23.2533 177.79 23.1111 178.488 23.123C180.204 23.123 181.483 23.763 182.371 24.9007C183.258 26.0385 183.708 27.6148 183.708 29.5111H176.026C176.251 31.1704 177.115 32.1541 178.737 32.1541C179.849 32.1541 180.465 31.6563 180.784 30.8504H183.554C183.365 31.8222 182.82 32.6874 182.051 33.2919C181.104 34.003 179.944 34.3585 178.76 34.323C176.985 34.323 175.647 33.7067 174.688 32.6874V32.6993ZM176.062 27.5674H180.773C180.69 26.2044 179.826 25.2919 178.524 25.2919C177.032 25.2919 176.31 26.157 176.062 27.5674ZM189.271 32.6993C188.762 32.1778 188.372 31.5496 188.1 30.8622C187.839 30.1748 187.709 29.4519 187.721 28.717C187.697 27.2356 188.254 25.8015 189.271 24.723C189.792 24.2015 190.408 23.7867 191.094 23.5022C191.781 23.2296 192.515 23.0874 193.249 23.0993C193.994 23.0874 194.728 23.2178 195.415 23.5022C196.101 23.7748 196.729 24.1896 197.261 24.7111C198.268 25.7896 198.812 27.2237 198.788 28.7052C198.824 30.1748 198.268 31.6089 197.261 32.6756C196.741 33.2089 196.113 33.6237 195.427 33.9081C194.74 34.1926 193.994 34.323 193.261 34.3111C192.515 34.323 191.781 34.1926 191.094 33.9081C190.408 33.6237 189.792 33.2089 189.271 32.6756V32.6993ZM195.936 28.7289C195.936 26.643 194.989 25.2563 193.249 25.2563C191.509 25.2563 190.562 26.643 190.562 28.7289C190.562 30.8148 191.509 32.1896 193.249 32.1896C194.989 32.1896 195.936 30.803 195.936 28.7289ZM200.588 23.4074V22.4593C200.588 21.1556 201.085 20.2904 201.925 19.7689C202.754 19.2711 203.926 19.1052 205.299 19.2474V21.4163C203.973 21.357 203.393 21.4993 203.393 22.6133V23.3956H205.299V25.4222H203.393V34.0148H200.588V25.4222H199.143V23.3956H200.588V23.4074ZM119.683 38.4711V40.9956H115.244V53.2622H112.249V40.9956H107.81V38.4711H119.683ZM119.375 51.9348C118.428 50.9393 117.954 49.517 117.954 47.9407C117.919 46.483 118.452 45.0607 119.422 43.9704C119.896 43.4489 120.487 43.0341 121.127 42.7615C121.778 42.4889 122.476 42.3467 123.174 42.3585C124.891 42.3585 126.169 42.9985 127.057 44.1363C127.945 45.2741 128.394 46.8504 128.394 48.7467H120.712C120.937 50.4059 121.813 51.3896 123.423 51.3896C124.536 51.3896 125.151 50.8919 125.471 50.0859H128.241C128.051 51.0578 127.507 51.923 126.737 52.5274C125.79 53.2385 124.63 53.5941 123.459 53.5585C121.683 53.5585 120.334 52.9422 119.387 51.923L119.375 51.9348ZM120.76 46.803H125.471C125.388 45.44 124.524 44.5274 123.222 44.5274C121.73 44.5274 121.008 45.3926 120.76 46.803ZM130.525 51.9348C129.543 50.8444 129.022 49.4222 129.057 47.9644C129.022 46.4948 129.543 45.0726 130.501 43.9704C130.987 43.4489 131.59 43.0222 132.253 42.7496C132.916 42.477 133.626 42.3348 134.348 42.3585C135.544 42.323 136.704 42.7022 137.651 43.437C138.479 44.16 139.012 45.1674 139.154 46.2459H136.408C136.337 45.7837 136.1 45.357 135.745 45.0607C135.39 44.7644 134.928 44.5985 134.467 44.6104C132.75 44.6104 131.91 45.8785 131.91 47.9644C131.91 50.0504 132.691 51.3185 134.431 51.3185C135.591 51.3185 136.373 50.7378 136.562 49.517H139.273C139.202 50.6193 138.704 51.6385 137.888 52.3733C136.953 53.1793 135.745 53.6059 134.502 53.5704C133.768 53.5941 133.023 53.4637 132.348 53.1793C131.661 52.8948 131.046 52.48 130.537 51.9348H130.525ZM143.226 44.0296C144.007 42.8919 144.836 42.3585 146.304 42.3585C146.801 42.3467 147.286 42.4415 147.748 42.6311C148.209 42.8207 148.612 43.117 148.943 43.4726C149.618 44.2667 149.985 45.2859 149.949 46.3289V53.2622H147.144V46.7437C147.144 45.5822 146.505 44.8 145.309 44.8C144.114 44.8 143.155 45.7719 143.155 47.2415V53.2622H140.35V38.4711H143.155V44.0415H143.214L143.226 44.0296ZM154.376 44.0889C154.684 43.5319 155.146 43.0815 155.702 42.7733C156.258 42.4652 156.886 42.323 157.525 42.3585C158.022 42.3467 158.507 42.4415 158.969 42.6311C159.419 42.8207 159.833 43.117 160.165 43.4726C160.839 44.2667 161.206 45.2859 161.183 46.3289V53.2622H158.365V46.7437C158.365 45.5822 157.726 44.8 156.531 44.8C155.335 44.8 154.388 45.7719 154.388 47.2415V53.2622H151.583V42.643H154.329V44.0889H154.388H154.376ZM163.822 51.9348C163.313 51.4133 162.923 50.7852 162.65 50.0978C162.378 49.4104 162.26 48.6874 162.272 47.9526C162.248 46.4711 162.804 45.037 163.822 43.9585C164.343 43.437 164.959 43.0222 165.645 42.7378C166.332 42.4652 167.066 42.323 167.799 42.3467C168.545 42.3348 169.279 42.4652 169.966 42.7496C170.652 43.0222 171.279 43.437 171.8 43.9585C172.806 45.037 173.351 46.4711 173.327 47.9526C173.363 49.4222 172.806 50.8563 171.8 51.923C171.279 52.4563 170.652 52.8711 169.966 53.1556C169.279 53.44 168.533 53.5704 167.788 53.5585C167.042 53.5704 166.308 53.44 165.621 53.1556C164.935 52.8711 164.319 52.4563 163.799 51.923L163.822 51.9348ZM170.486 47.9644C170.486 45.8785 169.539 44.4919 167.799 44.4919C166.059 44.4919 165.112 45.8785 165.112 47.9644C165.112 50.0504 166.059 51.4252 167.799 51.4252C169.539 51.4252 170.486 50.0385 170.486 47.9644ZM177.375 38.4711V53.2622H174.57V38.4711H177.375ZM180.133 51.9348C179.624 51.4133 179.234 50.7852 178.962 50.0978C178.701 49.4104 178.571 48.6874 178.583 47.9526C178.559 46.4711 179.115 45.037 180.133 43.9585C180.654 43.437 181.282 43.0222 181.956 42.7378C182.643 42.4652 183.377 42.323 184.111 42.3467C184.856 42.3348 185.59 42.4652 186.277 42.7496C186.963 43.0222 187.591 43.437 188.111 43.9585C189.118 45.037 189.662 46.4711 189.638 47.9526C189.662 49.4222 189.118 50.8563 188.111 51.923C187.591 52.4563 186.963 52.8711 186.277 53.1556C185.59 53.44 184.844 53.5704 184.111 53.5585C183.365 53.5704 182.631 53.44 181.944 53.1556C181.258 52.8711 180.642 52.4563 180.122 51.923L180.133 51.9348ZM186.809 47.9644C186.809 45.8785 185.862 44.4919 184.122 44.4919C182.382 44.4919 181.435 45.8785 181.435 47.9644C181.435 50.0504 182.382 51.4252 184.122 51.4252C185.862 51.4252 186.809 50.0385 186.809 47.9644ZM190.55 53.5704H193.343C193.568 54.2341 194.148 54.7556 195.474 54.7556C197.048 54.7556 197.83 54.0326 197.83 52.5393V51.3778H197.77C197.439 51.7926 197.013 52.1126 196.539 52.3259C196.054 52.5393 195.533 52.6459 195.012 52.6222C194.421 52.6222 193.829 52.5037 193.272 52.2785C192.728 52.0415 192.231 51.7096 191.805 51.283C191.319 50.797 190.94 50.2163 190.68 49.5763C190.431 48.9363 190.313 48.2489 190.337 47.5615C190.337 45.9852 190.81 44.6815 191.639 43.7689C192.053 43.3067 192.562 42.9393 193.13 42.7022C193.698 42.4652 194.314 42.3467 194.93 42.3585C196.255 42.3585 197.226 42.88 197.865 43.7689H197.912V42.6548H200.623V52.4681C200.623 53.9615 200.173 54.9689 199.368 55.6919C198.481 56.5215 197.119 56.8889 195.545 56.8889C192.609 56.8889 190.893 55.6444 190.585 53.5822L190.55 53.5704ZM197.38 49.517C197.782 48.9244 197.995 48.2133 197.96 47.4904C197.983 46.7674 197.77 46.0444 197.344 45.4637C197.119 45.1793 196.823 44.9659 196.492 44.8119C196.161 44.6696 195.805 44.5985 195.438 44.6104C193.994 44.6104 193.059 45.7126 193.059 47.5022C193.059 49.2919 193.994 50.3585 195.462 50.3585C195.829 50.3822 196.184 50.3111 196.527 50.1689C196.859 50.0267 197.155 49.8015 197.392 49.517H197.38ZM203.499 54.5185C204.636 54.5185 205.074 53.9615 205.074 53.0726C205.074 52.717 205.015 52.3615 204.908 52.0178C204.766 51.5793 204.577 50.9985 204.269 50.1926L201.416 42.643H204.363L205.938 47.4193C206.104 47.917 206.246 48.4741 206.388 48.9481C206.447 49.2207 206.53 49.4696 206.613 49.7304H206.66C206.719 49.4578 206.778 49.2089 206.849 48.9481C206.968 48.4267 207.11 47.917 207.287 47.4193L208.779 42.643H211.608L207.915 53.523C207.5 54.72 207.11 55.5141 206.553 56.0119C205.973 56.5333 205.251 56.7348 204.174 56.7348H202.517V54.5185H203.511H203.499ZM53.1712 53.2622H64.9844V17.7541H53.1712V53.2622ZM70.891 11.8281H100.424V0H70.891V11.84V11.8281ZM53.1712 0H64.9844V11.84H53.1712V0ZM35.4514 53.2622H47.2646V0H35.4514V53.2622ZM17.7198 41.4222H29.533V0H17.7198V41.4341V41.4222ZM0 53.2622H11.8132V0H0V53.2622ZM70.891 53.2622H82.7042V17.7541H70.891V53.2622Z" fill="var(--fill-0, white)"/>
</g>
</svg>
