<svg preserveAspectRatio="none" width="100%" height="100%" overflow="visible" style="display: block;" viewBox="0 0 162.203 48" fill="none" xmlns="http://www.w3.org/2000/svg">
<g id="Oxford Logo">
<path id="Vector" d="M17.4451 47.9246C13.1505 47.36 9.14645 45.3437 5.8851 42.1014C3.05967 39.2785 1.3967 36.3266 0.39569 32.3423C-0.0886694 30.4227 -0.137105 25.9545 0.298818 23.9865C1.36441 19.1795 4.09297 14.8081 7.70952 12.1142C8.33918 11.6303 8.74282 11.1948 9.03343 10.5979C9.4855 9.66235 10.1797 8.93647 11.1485 8.35576C11.7297 8.01701 12.0042 7.98475 13.7317 7.98475C15.6692 7.96862 16.9769 7.80731 17.1222 7.56535C17.1707 7.50083 17.0577 7.19434 16.8801 6.90399C16.4118 6.12971 16.4603 5.67804 17.0092 5.549C17.7842 5.38769 17.8488 5.3393 17.8488 4.93603C17.8488 4.35532 17.2998 4.09722 16.7993 4.41984C16.6056 4.54889 16.3957 4.61341 16.3311 4.56502C16.1374 4.37145 16.2342 3.1939 16.4926 2.69384C17.0254 1.64534 19.1888 0 20.0284 0C20.4482 0 21.6591 0.645232 22.3695 1.24207C23.3382 2.06474 23.8225 2.91968 23.8225 3.75848C23.8225 4.62954 23.7257 4.72633 23.2575 4.41984C22.9668 4.22627 22.8054 4.21014 22.5471 4.35532C21.8851 4.7102 22.2887 5.72644 23.0153 5.53287C23.4835 5.40382 23.7418 5.90388 23.5319 6.51685C23.2413 7.32339 23.2736 7.38791 24.2746 7.58148C27.3745 8.21058 28.9729 9.04938 32.0566 11.711C34.3654 13.6951 34.2686 13.5983 35.2857 14.7597C39.0153 19.0182 40.8558 24.9221 40.1132 30.2453C39.7257 33.0359 38.8054 35.8749 37.6914 37.7138C37.3362 38.2784 37.0617 38.7785 37.0617 38.8269C37.0617 38.8752 36.5935 39.5043 36.0284 40.2302C33.0092 44.0855 29.1343 46.489 23.9194 47.7311C22.9184 47.973 18.7529 48.0859 17.4451 47.9246ZM24.3069 46.86C27.988 45.9405 30.6197 44.5372 33.2998 42.0369C36.6419 38.9075 38.6439 35.0522 39.322 30.3743C39.8225 26.8417 39.0637 22.5347 37.3362 19.115C36.2221 16.9051 33.9618 14.179 32.202 12.8724C31.1041 12.082 29.5218 11.7755 26.4058 11.7916C23.3059 11.8078 23.0799 11.8561 23.1444 12.5659C23.1606 12.8563 23.322 13.3563 23.4835 13.6951C23.758 14.2112 23.9678 14.3564 24.985 14.7597C27.8912 15.8888 29.8286 17.4051 31.5723 19.8732C33.3644 22.4057 34.1555 24.9382 34.1555 28.0676C34.1555 33.9392 30.3614 39.2624 24.8397 41.1658C22.1757 42.0853 20.0768 42.295 17.8488 41.8756C14.652 41.2465 12.5208 40.1657 10.2928 38.0042C7.88711 35.6813 6.48247 32.8585 6.06269 29.4549C5.54604 25.406 7.16058 20.9539 10.212 17.9536L11.213 16.9696L10.6157 16.5179C10.2928 16.276 9.88913 15.9372 9.72768 15.7759C9.45321 15.5017 9.38863 15.4856 9.04958 15.7114C8.54907 16.034 8.40376 15.8405 8.82354 15.3888C9.16259 15.0339 9.16259 15.0017 8.90427 14.3564C8.75896 14.0015 8.64594 13.5015 8.64594 13.2595C8.64594 12.3885 8.43605 12.3885 7.35432 13.3563C5.67521 14.8403 3.94766 17.0664 2.96279 19.0021C1.46128 21.9218 0.944631 23.8413 0.783177 27.0998C0.492562 33.5359 3.30185 39.5205 8.50064 43.4725C9.03343 43.8758 9.50165 44.1984 9.55008 44.1984C9.59852 44.1984 9.8407 44.3436 10.0667 44.5049C11.6651 45.6341 15.427 46.9406 17.768 47.1665C19.1727 47.3117 23.2736 47.1181 24.3069 46.86ZM22.87 40.9722C24.6944 40.5851 27.2453 39.3914 28.424 38.3591C31.0233 36.1169 32.3634 33.907 33.1545 30.6001C33.4774 29.3097 33.3967 26.148 33.0254 24.7447C31.653 19.6635 27.8266 16.034 22.5793 14.8403C21.6268 14.6306 18.43 14.55 17.9134 14.7274C17.7358 14.7919 17.3483 15.163 17.0577 15.534C16.7832 15.9211 16.1374 16.4857 15.6207 16.7922C14.765 17.3084 14.6197 17.3406 13.2958 17.3406H11.8912L10.8256 18.3891C7.80639 21.3733 6.33716 25.4544 6.83767 29.5032C7.22516 32.6165 8.50064 35.1974 10.7287 37.4396C12.6984 39.4076 14.6681 40.3915 18.2524 41.1819C19.1243 41.3755 21.4653 41.2626 22.87 40.9722ZM14.3614 16.5825C15.1202 16.3728 16.315 15.6146 16.4441 15.2597C16.5571 15.0017 16.2181 15.0662 14.8135 15.6308C13.425 16.1792 12.1818 15.9856 11.1969 15.05C10.9063 14.7597 10.6803 14.679 10.4381 14.7597C10.0022 14.8887 10.0022 15.1952 10.4704 15.5824C11.649 16.647 12.989 16.9857 14.3614 16.5825ZM15.5077 14.4855C18.3331 12.7917 20.206 12.0013 22.7892 11.3722C24.4038 10.9689 24.7428 10.9528 26.8901 11.0335C28.1818 11.0819 29.5057 11.1625 29.8609 11.227C30.7004 11.3722 30.539 11.1625 29.1666 10.3398C26.8579 8.93647 24.4038 8.17832 21.5622 7.95249C18.5592 7.72666 13.2635 9.19456 11.5844 10.7109C10.874 11.34 10.5027 12.4852 10.761 13.1789C10.9063 13.566 10.9063 13.5499 12.0688 12.6627C13.3119 11.7271 13.6348 11.6142 14.0385 12.0336C14.6036 12.582 14.2484 13.0014 12.6338 13.6305C12.0365 13.8725 11.5037 14.1467 11.4391 14.2435C11.3261 14.4371 12.1172 15.1146 12.6015 15.2275C13.3927 15.4049 14.3937 15.1468 15.5077 14.4855ZM10.1636 13.0176C10.0667 12.0336 10.1152 11.7432 10.3896 11.2109C10.8256 10.3398 11.4229 9.82366 12.6823 9.17843C13.5703 8.72677 13.6671 8.62998 13.3281 8.58159C11.988 8.37189 10.0667 9.74301 9.46936 11.34C9.24332 11.9368 9.24332 13.3563 9.46936 14.0015C9.61466 14.4371 9.69539 14.4855 9.95371 14.3564C10.2282 14.2112 10.2443 14.0499 10.1636 13.0176ZM18.1394 14.0983C18.3331 14.0338 18.4946 13.937 18.4946 13.8564C18.4946 13.6467 18.1232 13.6951 17.7842 13.9531C17.4451 14.2112 17.542 14.2435 18.1394 14.0983ZM22.8538 14.1145C22.8538 14.0661 22.7408 13.7596 22.6116 13.437C22.4825 13.1305 22.3695 12.7272 22.3695 12.5659C22.3695 12.3885 22.2564 12.2594 22.1434 12.2594C21.7882 12.2594 19.1404 13.2434 19.1404 13.3724C19.1404 13.6789 19.6086 13.8725 20.3513 13.8886C20.7872 13.8886 21.4492 13.9531 21.8044 14.0177C22.6439 14.1951 22.8538 14.2112 22.8538 14.1145ZM21.0294 7.25886C22.5148 7.25886 22.5309 7.25886 22.6278 6.82333C22.7085 6.54911 22.6762 6.37167 22.5471 6.32328C22.4502 6.29101 22.1434 6.08131 21.8851 5.85548C21.5299 5.56513 21.4007 5.30704 21.4007 4.93603C21.4007 4.27466 22.0304 3.54878 22.6116 3.54878C23.6449 3.54878 22.4502 1.98409 20.8034 1.19368L19.98 0.79041L19.3503 1.14529C18.3654 1.69373 17.6873 2.25831 17.3483 2.80676C16.9446 3.46812 16.9608 3.54878 17.4451 3.54878C18.0587 3.54878 18.656 4.22627 18.656 4.90377C18.656 5.32317 18.543 5.549 18.1555 5.87161C17.8811 6.09744 17.5904 6.29101 17.5097 6.29101C17.429 6.29101 17.4936 6.54911 17.655 6.87172C17.9295 7.45243 17.9295 7.45243 18.7368 7.35565C19.1727 7.30726 20.2221 7.25886 21.0294 7.25886Z" fill="var(--fill-0, white)"/>
<path id="Vector_2" d="M16.2345 45.9406C16.1538 45.7308 16.0569 45.3598 15.9924 45.1017L15.8955 44.634L15.3627 45.1501C14.8299 45.6663 14.2971 45.8115 14.2971 45.4405C14.2971 45.3276 14.6684 44.8598 15.1044 44.392C15.5564 43.9242 15.9116 43.408 15.9116 43.2467C15.9116 42.7144 16.0892 42.424 16.4121 42.424C16.6382 42.424 16.7189 42.5369 16.7028 42.8757C16.7028 43.1177 16.6382 43.4564 16.5736 43.6177C16.509 43.7952 16.5413 44.3436 16.6705 44.8275C16.7835 45.3276 16.8804 45.8599 16.8804 46.0212C16.8804 46.4245 16.4121 46.36 16.2345 45.9406Z" fill="var(--fill-0, white)"/>
<path id="Vector_3" d="M24.0323 45.6179C23.6448 45.4244 23.0151 44.2952 23.0151 43.779C23.0151 43.279 23.6286 42.424 24.0968 42.2466C25.5984 41.682 27.0353 43.4241 26.3087 44.9243C25.9213 45.747 24.9364 46.0535 24.0323 45.6179ZM25.5984 44.8598C26.2442 43.6338 24.8395 42.0208 24.0807 43.1015C23.7255 43.6016 23.7578 44.2307 24.1614 44.7469C24.5651 45.2631 25.34 45.3276 25.5984 44.8598Z" fill="var(--fill-0, white)"/>
<path id="Vector_4" d="M19.6573 45.134C19.1407 44.6178 19.6573 43.8758 20.3354 44.1339C20.8198 44.3113 20.5615 45.3276 20.0287 45.3276C19.9318 45.3276 19.7703 45.2469 19.6573 45.134Z" fill="var(--fill-0, white)"/>
<path id="Vector_5" d="M11.7122 44.5049C10.5982 43.8919 10.469 43.7629 10.7112 43.5209C10.8565 43.3757 11.0018 43.3757 11.3086 43.5209C11.6961 43.6984 11.7283 43.6661 12.2934 42.5369C12.9554 41.2465 13.1491 41.0529 13.472 41.3594C13.6496 41.553 13.5851 41.7788 12.9877 42.8434C12.6163 43.5371 12.3742 44.1178 12.471 44.15C12.8585 44.2791 13.2137 44.6501 13.1007 44.8114C12.9231 45.1017 12.6809 45.0534 11.7122 44.5049Z" fill="var(--fill-0, white)"/>
<path id="Vector_6" d="M28.2786 43.7145C28.0525 43.3596 27.8588 43.037 27.8588 42.9886C27.8588 42.9241 27.6328 42.5531 27.3583 42.1498C26.8901 41.4723 26.8739 41.4078 27.1323 41.1658C27.3906 40.9077 27.4229 40.9077 27.5843 41.1981C27.6973 41.3594 27.9072 41.6659 28.0687 41.8756L28.3755 42.2627L28.8437 41.924C29.102 41.7465 29.3765 41.6498 29.4733 41.6982C29.7801 41.8917 29.6348 42.2627 29.1504 42.5047C28.6338 42.7628 28.5369 43.037 28.8598 43.3596C28.989 43.4887 29.1504 43.4564 29.5056 43.2144C30.0061 42.8596 30.4905 42.908 30.3452 43.2951C30.2967 43.4241 29.9093 43.7145 29.4733 43.9403L28.6984 44.3436L28.2786 43.7145Z" fill="var(--fill-0, white)"/>
<path id="Vector_7" d="M8.7261 42.5853C8.66151 42.4886 8.70995 42.2789 8.83911 42.1176C9.95314 40.569 10.6958 39.6818 10.8734 39.6818C11.3901 39.6818 11.2125 40.2303 10.3083 41.4239C9.37191 42.6337 8.95213 42.9564 8.7261 42.5853Z" fill="var(--fill-0, white)"/>
<path id="Vector_8" d="M6.61056 40.7303C6.41682 40.6012 6.17464 40.2786 6.06162 40.0044C5.90017 39.6011 5.90017 39.4559 6.1262 39.1172C6.33609 38.7946 6.52983 38.7139 7.03034 38.7139C7.36939 38.7139 7.70844 38.7946 7.75688 38.8752C7.91833 39.1333 8.59643 39.0688 8.70945 38.7946C8.80632 38.5365 8.38654 38.0042 7.98291 37.8751C7.62772 37.7622 7.93448 37.2783 8.32196 37.3751C8.74174 37.488 9.45214 38.3268 9.45214 38.7301C9.45214 39.1011 8.77403 39.8431 8.43498 39.8431C8.30582 39.8431 7.93448 39.7302 7.61157 39.6011C6.67514 39.1978 6.33609 39.6979 7.14336 40.2947C7.8376 40.7948 7.30481 41.2303 6.61056 40.7303Z" fill="var(--fill-0, white)"/>
<path id="Vector_9" d="M31.0877 40.4722C30.8293 40.0206 30.9908 39.6818 31.459 39.6818C32.0241 39.6818 32.2986 40.0528 32.0241 40.4722C31.7658 40.9077 31.3137 40.9077 31.0877 40.4722Z" fill="var(--fill-0, white)"/>
<path id="Vector_10" d="M33.5898 38.472C32.3143 37.8267 31.9914 36.5363 32.8794 35.6652C33.6867 34.8587 35.0106 35.0522 35.7533 36.1169C36.1731 36.6976 36.1731 37.1976 35.7694 37.8751C35.2689 38.6817 34.4617 38.9075 33.5898 38.472ZM34.8653 37.8751C35.6887 37.5041 35.5272 36.5201 34.5747 36.0685C33.1054 35.3748 32.4596 36.8911 33.8643 37.7461C34.4939 38.1332 34.3648 38.1171 34.8653 37.8751Z" fill="var(--fill-0, white)"/>
<path id="Vector_11" d="M4.05983 37.1331C3.81765 36.875 3.60777 36.4718 3.59162 36.2298C3.55933 35.8265 3.68849 35.7136 5.01241 35.0039C5.80353 34.5683 6.51392 34.2619 6.5785 34.2941C6.86912 34.4716 6.67538 34.8264 6.12643 35.1491C5.64208 35.4394 5.57749 35.5362 5.75509 35.7459C5.9004 35.9233 6.12643 35.9556 6.62694 35.8911C7.12744 35.8104 7.33733 35.8427 7.49879 36.0362C7.82169 36.4234 7.56337 36.617 6.69152 36.617C6.2556 36.617 5.9004 36.6976 5.9004 36.7783C5.9004 37.0686 5.25459 37.5848 4.88325 37.5848C4.67336 37.5848 4.30201 37.3751 4.05983 37.1331ZM4.99626 36.8428C5.28688 36.7299 5.35146 36.0524 5.09313 35.8911C4.88325 35.762 4.28587 36.1008 4.28587 36.3427C4.28587 36.4556 4.3666 36.6331 4.47961 36.746C4.70565 36.9718 4.67336 36.9718 4.99626 36.8428Z" fill="var(--fill-0, white)"/>
<path id="Vector_12" d="M36.4797 34.2941L35.85 33.5682L34.9782 33.8102C34.4615 33.9392 34.0418 33.9876 33.961 33.907C33.7512 33.6973 34.2678 33.2295 34.7199 33.2295C35.3011 33.2295 35.3495 32.9552 34.8975 32.4068C34.5423 32.0035 34.51 31.8584 34.6553 31.5841C34.8329 31.2615 34.8652 31.2776 35.511 32.0197L36.1891 32.7939L37.0286 32.6004C38.0942 32.3745 38.0297 32.3745 38.0297 32.681C38.0297 32.8262 37.7552 33.0359 37.3838 33.1811C36.6412 33.4714 36.6089 33.5521 37.0609 33.9554C37.4 34.2618 37.4969 34.7619 37.2385 34.9071C37.1578 34.9555 36.8188 34.6812 36.4797 34.2941Z" fill="var(--fill-0, white)"/>
<path id="Vector_13" d="M2.71974 33.907C2.60672 33.8263 2.41298 33.423 2.26767 32.9875C1.97706 31.9713 2.04164 31.8906 3.68846 31.4712C4.38271 31.2938 4.99623 31.1163 5.06081 31.0679C5.30299 30.9228 5.52903 31.2131 5.78735 32.0197C5.93266 32.4875 5.98109 32.8907 5.90037 32.9714C5.65819 33.2133 5.25456 32.9391 5.25456 32.5358C5.25456 32.0035 4.94779 31.7777 4.46344 31.9551C4.18896 32.0681 4.12438 32.181 4.20511 32.3907C4.26969 32.5358 4.36656 32.8262 4.39885 33.0359C4.54416 33.6327 3.97908 33.4714 3.70461 32.8262C3.46243 32.2294 3.3817 32.181 2.99421 32.4229C2.80047 32.552 2.78432 32.6488 2.97807 33.1488C3.18796 33.7618 3.07494 34.1167 2.71974 33.907Z" fill="var(--fill-0, white)"/>
<path id="Vector_14" d="M36.3668 30.2775C35.0429 30.1324 34.946 30.1001 34.9945 29.7775C35.0429 29.4871 35.1559 29.4387 35.7694 29.4387C36.4637 29.4387 36.496 29.4226 36.5444 28.9225C36.5929 28.5193 36.6736 28.3902 36.9158 28.3902C37.1902 28.3902 37.2225 28.487 37.1902 29.0032C37.1418 29.5194 37.1902 29.6 37.497 29.6484C37.8038 29.6968 37.8683 29.6 37.9652 29.0516C38.0459 28.5354 38.1428 28.3902 38.4011 28.3902C38.6917 28.3902 38.7079 28.4547 38.611 29.3097C38.5141 30.1807 38.3204 30.5034 37.9491 30.455C37.8683 30.455 37.1418 30.3743 36.3668 30.2775Z" fill="var(--fill-0, white)"/>
<path id="Vector_15" d="M1.65433 30.1001C1.55745 29.842 2.00952 29.3581 2.36472 29.342C2.49388 29.342 2.9621 29.1807 3.39802 28.971L4.20529 28.6161L3.72093 28.487C1.99338 28.0838 1.54131 27.8902 1.54131 27.5837C1.54131 27.4063 1.63818 27.2611 1.7512 27.2611C2.05796 27.2611 4.83495 28.0999 5.06099 28.2773C5.44847 28.5677 5.25473 28.8903 4.4959 29.2129C4.05998 29.4065 3.43031 29.6807 3.07511 29.842C2.00952 30.3098 1.7512 30.3582 1.65433 30.1001Z" fill="var(--fill-0, white)"/>
<path id="Vector_16" d="M36.1094 26.9868C35.4475 26.8578 34.9792 26.4384 34.7855 25.8254C34.5272 24.9705 34.9147 24.2769 35.8672 23.8413C36.7391 23.4703 37.3365 23.551 37.9338 24.1478C38.5151 24.7124 38.5635 25.777 38.063 26.3577C37.7885 26.6642 36.8682 27.1159 36.6261 27.0836C36.5615 27.0675 36.3193 27.0191 36.1094 26.9868ZM37.4495 25.9545C37.95 25.5673 37.9823 25.1157 37.5463 24.6801C37.1589 24.293 36.5776 24.2607 35.9318 24.5995C35.5443 24.793 35.4475 24.9543 35.4475 25.3576C35.4475 25.648 35.5605 25.9383 35.7381 26.0674C36.1578 26.39 36.9651 26.3416 37.4495 25.9545Z" fill="var(--fill-0, white)"/>
<path id="Vector_17" d="M3.88342 25.9706C1.97828 25.7125 1.54235 25.5189 1.84911 25.035C1.94599 24.8576 2.10744 24.8576 2.60794 24.9866C2.96314 25.0834 3.46364 25.1641 3.72197 25.1641C4.59382 25.1641 5.44952 25.4867 5.38494 25.777C5.32036 26.0997 5.12661 26.1319 3.88342 25.9706Z" fill="var(--fill-0, white)"/>
<path id="Vector_18" d="M3.77024 23.5187C2.6885 23.1316 2.34945 22.938 2.34945 22.7122C2.34945 22.3573 2.43018 22.3573 3.46348 22.696C3.91555 22.8412 4.33533 22.9057 4.38376 22.8574C4.44834 22.809 4.15773 22.3734 3.73795 21.8895C2.5109 20.4539 2.75308 20.2603 4.78739 20.9862C5.59466 21.2765 6.28891 21.6153 6.33734 21.7282C6.51494 22.1637 6.1436 22.2444 5.43321 21.9379C4.22231 21.3895 4.14158 21.5508 5.09416 22.6315C5.77226 23.4058 5.94986 24.0349 5.4655 24.0188C5.30404 24.0188 4.54521 23.7929 3.77024 23.5187Z" fill="var(--fill-0, white)"/>
<path id="Vector_19" d="M34.1072 22.7928C33.8812 22.5831 34.0103 22.4057 34.5593 22.1476C35.3827 21.7605 35.2374 21.3895 34.2364 21.2927C33.639 21.2281 33.4129 21.1475 33.3807 20.9378C33.3322 20.6958 33.4452 20.6474 34.1233 20.6474C34.8014 20.6474 34.9629 20.5829 35.1889 20.2603C35.528 19.728 36.0285 19.5989 36.4967 19.9054C36.9165 20.1796 37.4493 21.1636 37.3524 21.454C37.304 21.6153 34.6077 22.9058 34.3171 22.9058C34.2686 22.9058 34.1556 22.8574 34.1072 22.7928ZM36.3998 21.3088C36.7066 21.1152 36.4644 20.4861 36.0769 20.4861C35.7217 20.4861 35.528 20.841 35.6733 21.212C35.7702 21.4862 36.0608 21.5185 36.3998 21.3088Z" fill="var(--fill-0, white)"/>
<path id="Vector_20" d="M5.2871 19.4215C4.65743 19.0021 4.12464 18.615 4.12464 18.5505C4.12464 18.4859 4.23765 18.3408 4.36682 18.2278C4.56056 18.0665 4.73816 18.1311 5.38397 18.5989C6.59487 19.4538 6.8209 19.5506 7.19225 19.357C7.8542 19.0021 7.51515 18.4214 6.11051 17.502C5.41626 17.0503 5.17408 16.4535 5.67459 16.4535C6.01364 16.4535 7.93493 17.8246 8.06409 18.1472C8.25784 18.6795 8.16097 19.1796 7.74119 19.6635C7.15996 20.3571 6.69174 20.3087 5.2871 19.4215Z" fill="var(--fill-0, white)"/>
<path id="Vector_21" d="M32.2671 19.3247C31.8473 18.8569 31.4114 18.002 31.4114 17.631C31.4114 16.7276 32.7515 15.663 33.6072 15.8727C34.1561 16.0179 35.2863 17.1471 35.2863 17.5503C35.2701 17.7762 33.2197 19.486 32.7515 19.6312C32.6707 19.6635 32.4608 19.5183 32.2671 19.3247ZM33.7202 18.0826C34.14 17.7762 34.479 17.4535 34.479 17.3568C34.479 17.018 33.9139 16.6147 33.4619 16.6147C32.4931 16.6147 31.9119 17.6794 32.3963 18.5666C32.5739 18.9214 32.6223 18.9053 33.7202 18.0826Z" fill="var(--fill-0, white)"/>
<path id="Vector_22" d="M15.1038 37.6493C14.7163 37.0363 14.6679 36.8589 14.8293 36.6008C14.9908 36.3427 14.9585 36.2298 14.6679 35.9394C14.3127 35.6007 14.2966 35.6007 13.9736 35.891C13.7799 36.0685 13.6669 36.3266 13.6992 36.4879C13.7476 36.6653 13.5862 36.9073 13.2471 37.1815C12.6013 37.6493 12.3591 37.6977 12.3591 37.2944C12.3591 36.9557 12.9403 35.3265 13.1341 35.1329C13.2148 35.0522 13.6023 35.0684 14.0382 35.1813C14.7002 35.3426 16.8475 35.3265 18.0746 35.1329C18.3329 35.1006 18.462 35.2781 18.7204 36.0039C18.9141 36.504 19.1079 36.9718 19.1886 37.0363C19.3985 37.246 19.3016 37.5848 19.0271 37.5848C18.5751 37.5848 17.7032 36.8105 17.8001 36.4879C17.8324 36.3266 17.7194 36.0685 17.5256 35.891C17.2027 35.6007 17.1866 35.6007 16.8314 35.9394C16.5408 36.2298 16.5085 36.3588 16.6699 36.6008C16.8152 36.8428 16.7668 37.0202 16.3632 37.6332C16.0887 38.0526 15.8142 38.3913 15.7335 38.3913C15.6528 38.3913 15.3621 38.0526 15.1038 37.6493Z" fill="var(--fill-0, white)"/>
<path id="Vector_23" d="M23.8223 37.7138C23.3056 37.0041 23.241 36.7783 23.4994 36.5202C23.6124 36.4072 23.5478 36.2298 23.3218 35.9878C22.9989 35.6491 22.9666 35.633 22.676 35.9072C22.4984 36.0685 22.3853 36.3105 22.4015 36.4556C22.4499 36.7621 21.5619 37.5848 21.1744 37.5848C20.8354 37.5848 20.8515 37.4719 21.2713 36.3427C21.7557 35.0361 21.8203 34.9877 22.6921 35.1813C23.3056 35.3265 25.3076 35.2942 26.7123 35.1329C27.0513 35.0845 27.1321 35.2136 27.4711 36.2137C27.907 37.5203 27.9232 37.5848 27.6649 37.5848C27.3258 37.5848 26.3894 36.746 26.4701 36.5202C26.5508 36.3105 26.0019 35.6491 25.7274 35.6491C25.5014 35.6491 25.2592 36.2943 25.3561 36.6169C25.453 36.9396 24.7264 38.3913 24.4519 38.3913C24.3712 38.3913 24.0967 38.0849 23.8223 37.7138Z" fill="var(--fill-0, white)"/>
<path id="Vector_24" d="M13.5377 34.5684C13.2471 34.4554 13.2794 34.0844 13.5861 33.9715C13.7314 33.9231 14.7325 33.8747 15.8303 33.8747C17.2673 33.8747 17.8646 33.9393 17.9938 34.0844C18.3651 34.5522 17.8485 34.6813 15.7496 34.6652C14.6356 34.6652 13.6346 34.6168 13.5377 34.5684Z" fill="var(--fill-0, white)"/>
<path id="Vector_25" d="M22.2567 34.5684C21.9661 34.4554 21.9984 34.0844 22.3051 33.9715C22.4504 33.9231 23.4676 33.8747 24.5655 33.8747C26.2607 33.8747 26.5998 33.9231 26.6805 34.1328C26.7289 34.278 26.6805 34.4554 26.5513 34.5361C26.3091 34.6813 22.5957 34.7135 22.2567 34.5684Z" fill="var(--fill-0, white)"/>
<path id="Vector_26" d="M13.3921 32.5197C13.3598 32.4229 13.3436 30.455 13.3598 28.1483L13.4082 23.9542L16.2498 23.8736C18.7685 23.8091 19.1398 23.7607 19.4466 23.4865C19.6403 23.309 19.7856 23.0832 19.7856 22.9541C19.7856 22.6154 19.9632 22.7122 20.4476 23.2767L20.8835 23.7929L23.8381 23.8736L26.8088 23.9542L26.8896 28.1483C26.938 30.5034 26.9219 32.4229 26.8411 32.5358C26.7443 32.681 26.0177 32.7294 24.3225 32.7294C21.8038 32.7294 20.8835 32.5842 20.3346 32.0842C20.0278 31.7938 19.9794 31.7938 19.7695 32.0358C19.6565 32.181 19.3658 32.3745 19.1398 32.4713C18.5747 32.7133 13.489 32.7617 13.3921 32.5197ZM18.8169 32.0358C19.721 31.7132 19.7856 31.4551 19.7856 27.4546V23.8736L19.2044 24.1156C18.7685 24.293 17.9773 24.3575 16.1368 24.3575H13.6504V28.0515C13.6504 30.084 13.6988 31.8583 13.7473 32.0035C13.828 32.2293 14.1832 32.2616 16.0561 32.2455C17.38 32.2455 18.4779 32.1487 18.8169 32.0358ZM26.3891 32.0358C26.5182 31.8906 26.5667 30.7131 26.5344 28.1321L26.4859 24.4382L23.822 24.3575C22.1267 24.3091 21.0288 24.1962 20.8028 24.0833C20.609 23.9704 20.4153 23.8736 20.3669 23.8736C20.3184 23.8736 20.27 25.5189 20.27 27.5514C20.2861 31.6325 20.3023 31.7132 21.3679 32.0358C22.272 32.3261 26.163 32.3261 26.3891 32.0358Z" fill="var(--fill-0, white)"/>
<path id="Vector_27" d="M14.1343 30.5679C14.1343 29.9065 14.3765 29.7614 15.0061 30.0033C15.3291 30.1162 15.5228 30.1162 15.6843 29.9872C15.9103 29.7936 16.5561 29.9388 16.766 30.2291C16.8467 30.3582 16.9274 30.3421 17.0243 30.1808C17.105 30.0517 17.3149 29.9872 17.5087 30.0517C17.7024 30.1001 17.8477 30.0678 17.8477 29.9872C17.8477 29.9065 17.9607 29.842 18.0899 29.842C18.2675 29.842 18.3321 30.0194 18.3321 30.455V31.0841H17.6055C17.0566 31.0841 16.879 31.0196 16.879 30.826C16.8629 30.6002 16.8467 30.6163 16.7014 30.8582C16.4431 31.3099 16.2332 31.1809 16.2332 30.5356C16.2332 30.084 16.1848 29.9872 16.0717 30.1646C15.991 30.2937 15.9587 30.5679 16.0233 30.7615C16.104 31.1325 15.8618 31.2776 15.6681 30.9712C15.6035 30.8744 15.4259 30.8744 15.1676 30.9712C14.3765 31.2776 14.1343 31.1809 14.1343 30.5679Z" fill="var(--fill-0, white)"/>
<path id="Vector_28" d="M18.4938 30.4873C18.4938 29.9388 18.5422 29.8259 18.7844 29.8743C18.9781 29.9066 19.0589 30.084 19.0589 30.4873C19.0589 30.8905 18.9781 31.068 18.7844 31.1002C18.5422 31.1486 18.4938 31.0357 18.4938 30.4873Z" fill="var(--fill-0, white)"/>
<path id="Vector_29" d="M15.0396 28.9064C14.8943 28.6483 15.0719 27.8257 15.2656 27.8741C15.3786 27.8902 15.5562 27.8418 15.6531 27.745C15.8953 27.5514 16.0729 27.6966 16.0729 28.0838C16.0729 28.4064 15.1687 29.1161 15.0396 28.9064Z" fill="var(--fill-0, white)"/>
<path id="Vector_30" d="M16.2341 28.8419C16.2341 28.4547 16.6216 27.745 16.8315 27.745C16.9445 27.745 17.0737 27.9224 17.1382 28.1483C17.2674 28.6967 17.5096 28.6644 17.6388 28.0676C17.7356 27.5514 18.0101 27.4385 18.3169 27.8095C18.4783 27.9869 18.4622 28.1483 18.2523 28.5354C18.0101 29.0355 17.7841 29.1645 17.6226 28.9064C17.5257 28.7612 16.67 28.7935 16.4117 28.9548C16.3148 29.0032 16.2341 28.9548 16.2341 28.8419Z" fill="var(--fill-0, white)"/>
<path id="Vector_31" d="M14.7816 26.2932C14.7816 25.6157 14.8139 25.5673 15.2175 25.5673C15.4113 25.5512 15.6212 25.5028 15.6857 25.4383C15.9441 25.1963 16.1862 25.6641 16.0894 26.1642C15.9925 26.632 15.9118 26.6965 15.379 26.7288C14.8139 26.7771 14.7816 26.761 14.7816 26.2932Z" fill="var(--fill-0, white)"/>
<path id="Vector_32" d="M16.5244 26.1803C16.4437 25.5512 16.6536 25.2286 16.9604 25.4867C17.2025 25.6802 17.0572 26.7771 16.7989 26.7771C16.6859 26.7771 16.5567 26.5191 16.5244 26.1803Z" fill="var(--fill-0, white)"/>
<path id="Vector_33" d="M17.2834 26.5029C17.348 26.3416 17.4126 26.0674 17.4449 25.89C17.4933 25.3093 17.9777 25.4222 18.3329 26.1158C18.6074 26.6643 18.6235 26.7772 18.4136 26.7772C18.2845 26.7772 18.1714 26.6965 18.1714 26.5836C18.1714 26.4384 18.123 26.4384 17.9777 26.5836C17.8647 26.6965 17.6386 26.7772 17.4772 26.7772C17.2512 26.7772 17.2027 26.7126 17.2834 26.5029Z" fill="var(--fill-0, white)"/>
<path id="Vector_34" d="M21.0781 30.826C21.0942 30.1001 21.2557 29.9227 21.9015 29.9065C22.5312 29.8904 22.5312 29.8904 22.5312 30.4872V31.0841H21.8046C21.2557 31.0841 21.0781 31.0196 21.0781 30.826Z" fill="var(--fill-0, white)"/>
<path id="Vector_35" d="M22.7247 30.5195C22.7892 29.7936 23.1767 29.6162 23.1767 30.3259C23.1767 30.6163 23.2413 30.7937 23.3382 30.7292C23.4351 30.6808 23.4996 30.4711 23.4996 30.2775C23.4996 29.9872 23.5319 29.9711 23.6611 30.1646C23.7903 30.3582 23.8548 30.3743 23.9679 30.1969C24.0324 30.0678 24.4522 29.9549 24.9366 29.9388C25.8246 29.8904 25.8891 29.9711 25.5985 30.7131C25.4209 31.2131 25.1142 31.2615 25.0012 30.8099C24.8881 30.3743 24.6298 30.3905 24.6298 30.826C24.6298 31.1002 24.5814 31.1325 24.4038 30.9873C24.2585 30.8583 24.1455 30.8583 24.0809 30.955C24.0163 31.0357 23.6772 31.1002 23.322 31.1002C22.6762 31.1002 22.6762 31.0841 22.7247 30.5195Z" fill="var(--fill-0, white)"/>
<path id="Vector_36" d="M21.9975 28.4386C22.1589 27.3256 22.611 27.2933 22.724 28.3902C22.7725 28.9064 22.724 28.9548 22.3365 29.0032C21.9168 29.0516 21.9006 29.0354 21.9975 28.4386Z" fill="var(--fill-0, white)"/>
<path id="Vector_37" d="M24.1453 28.8741C24.0161 28.7774 23.7093 28.7612 23.4672 28.8096C23.0635 28.8903 23.0151 28.858 23.0151 28.4386C23.0151 27.8418 23.2088 27.5675 23.4995 27.745C23.6286 27.8256 23.8385 27.8256 24 27.7289C24.1776 27.6482 24.4359 27.6482 24.6942 27.745C25.2109 27.9386 25.2754 28.6161 24.8072 28.8741C24.4197 29.0677 24.452 29.0677 24.1453 28.8741ZM24.6296 28.3096C24.6296 28.1805 24.5651 28.0676 24.4682 28.0676C24.3875 28.0676 24.3067 28.1805 24.3067 28.3096C24.3067 28.4386 24.3875 28.5515 24.4682 28.5515C24.5651 28.5515 24.6296 28.4386 24.6296 28.3096Z" fill="var(--fill-0, white)"/>
<path id="Vector_38" d="M21.7229 26.39C21.7229 26.1803 21.6745 25.8738 21.6261 25.7448C21.5453 25.5189 21.6907 25.4867 22.7885 25.5351C23.4989 25.5673 24.3385 25.5351 24.6775 25.4706C25.4364 25.3415 25.5655 25.5673 25.178 26.3094C24.8874 26.8739 24.8874 26.8739 24.3708 26.019C24.1447 25.6641 23.951 25.8254 23.951 26.3739C23.951 27.0191 23.3698 26.9223 23.289 26.261L23.2245 25.7286L23.2083 26.261C23.176 26.6481 23.0953 26.7772 22.8854 26.7772C22.724 26.7772 22.5141 26.6965 22.4172 26.5997C22.288 26.4707 22.2073 26.4707 22.1427 26.5997C21.949 26.9062 21.7229 26.7933 21.7229 26.39Z" fill="var(--fill-0, white)"/>
<path id="Vector_39" d="M10.7124 32.0842C10.3895 31.9067 10.325 31.1486 10.6317 31.1002C10.8416 31.0679 11.2775 31.0357 11.7619 30.9873C12.0686 30.9711 12.1332 30.5679 11.8588 30.3904C11.7619 30.342 11.6004 30.3743 11.5036 30.4711C11.2129 30.7614 10.6156 30.6808 10.5026 30.3259C10.3572 29.842 10.5348 29.6807 11.2452 29.6807C11.6812 29.6807 11.9233 29.6 11.9879 29.4226C12.1332 29.0354 11.8103 28.8096 11.439 29.0516C11.0515 29.2774 10.6156 29.1645 10.4703 28.7773C10.325 28.3741 10.8416 28.0515 11.3421 28.245C11.8265 28.4225 12.0364 28.3095 12.0364 27.8901C12.0364 27.5998 11.9718 27.5675 11.4228 27.6643C10.7286 27.7772 10.3088 27.4707 10.4864 27.003C10.5671 26.7933 10.7286 26.761 11.3098 26.8416C11.9556 26.9546 12.0364 26.9223 12.0364 26.6481C12.0364 26.2771 11.7619 26.1319 11.2129 26.2448C10.7447 26.3255 10.3411 25.9545 10.4864 25.5673C10.5833 25.277 11.2452 25.2447 11.5197 25.5189C11.665 25.6641 11.7619 25.6641 11.8911 25.5351C12.214 25.2124 11.9233 24.8414 11.3421 24.8414C10.7286 24.8414 10.325 24.5027 10.4864 24.1155C10.5833 23.8413 11.3098 23.7768 11.4713 24.0349C11.6489 24.3091 12.0686 24.2123 12.0041 23.922C11.9718 23.7284 11.6973 23.5671 11.2291 23.4542C10.6317 23.309 10.5026 23.2122 10.5026 22.9057C10.5026 22.7122 10.6317 22.4541 10.777 22.3573C10.9869 22.2282 11.1322 22.2605 11.439 22.5509C11.9072 22.9864 11.9718 22.9864 12.0848 22.5831C12.1655 22.2766 12.3108 22.2605 15.4269 22.2605C18.446 22.2605 18.7205 22.2282 19.0919 21.9379C19.334 21.7443 19.7538 21.6153 20.109 21.6153C20.4642 21.6153 20.884 21.7443 21.1262 21.9379C21.4975 22.2444 21.772 22.2605 24.8396 22.2605C27.3421 22.2605 28.1655 22.3089 28.1978 22.4702C28.2301 22.567 28.2624 24.7285 28.2624 27.261V31.8583L27.9072 31.9067L27.5359 31.9551V27.5191V23.067H24.436C21.4652 23.067 21.3199 23.0509 20.9647 22.7122C20.7225 22.4863 20.3835 22.3573 20.0283 22.3573C19.6247 22.3573 19.3825 22.4541 19.2049 22.7122C18.9627 23.0509 18.8658 23.067 15.8144 23.067H12.6822V27.4224C12.6822 31.9712 12.6983 31.8583 12.0041 31.7938C11.8588 31.7777 11.5681 31.8745 11.3583 32.0035C11.0999 32.1809 10.9062 32.1971 10.7124 32.0842Z" fill="var(--fill-0, white)"/>
<path id="Vector_40" d="M19.3991 20.0829C19.0439 19.5022 18.9793 19.3086 19.1408 19.1312C19.27 18.9537 19.27 18.8247 19.1085 18.5666C18.9955 18.373 18.8179 18.2278 18.721 18.2278C18.4627 18.2278 18.0106 18.7763 18.0106 19.0989C18.0106 19.4377 17.2195 20.1474 16.8482 20.1635C16.5414 20.1635 16.4284 19.6151 16.7029 19.4538C16.7674 19.4054 16.9612 18.9537 17.1226 18.4698L17.3971 17.5665L18.0752 17.6955C18.8017 17.8407 20.8845 17.8568 22.047 17.7439L22.7735 17.6633L23.0318 18.3891C23.1771 18.7924 23.3709 19.2925 23.4516 19.5183C23.7745 20.2926 23.3547 20.3732 22.5475 19.6796C22.2407 19.4215 22.0631 19.1473 22.1277 19.0344C22.2568 18.8247 21.7725 18.2278 21.4819 18.2278C21.1267 18.2278 20.7715 18.9215 20.9652 19.2279C21.0944 19.4215 21.0459 19.6474 20.7069 20.1474C20.4647 20.5184 20.1741 20.8088 20.0611 20.8088C19.9642 20.8088 19.6574 20.4862 19.3991 20.0829Z" fill="var(--fill-0, white)"/>
<path id="Vector_41" d="M18.1887 17.1309C17.9626 17.0664 17.7689 16.9212 17.7366 16.8244C17.6236 16.5018 18.4632 16.3728 20.4006 16.3889C22.2734 16.405 22.8062 16.5663 22.4026 16.9696C22.1604 17.2116 18.8345 17.3245 18.1887 17.1309Z" fill="var(--fill-0, white)"/>
<path id="Vector_42" d="M17.5734 11.1787C17.2344 11.0496 17.3312 10.356 17.7026 10.1624C18.2999 9.83982 18.7843 10.6141 18.2999 11.098C18.0901 11.3077 17.9125 11.3239 17.5734 11.1787Z" fill="var(--fill-0, white)"/>
<path id="Vector_43" d="M22.3847 10.1947C22.191 9.82371 22.4493 9.35591 22.853 9.35591C23.2566 9.35591 23.3858 9.59787 23.2727 10.0979C23.1436 10.5657 22.6108 10.6302 22.3847 10.1947Z" fill="var(--fill-0, white)"/>
<path id="Vector_44" d="M96.2179 41.5207C96.0242 41.4723 95.5882 41.1981 95.2653 40.9078C94.7164 40.4561 94.6357 40.2948 94.5711 39.5044C94.5065 38.714 94.5549 38.5527 94.9424 38.0849C95.1846 37.8106 95.9111 37.3106 96.5408 36.988C97.8647 36.3266 98.2361 36.0363 98.446 35.5039C98.7527 34.6813 97.9132 33.7134 96.8799 33.7134C96.6377 33.7134 96.1049 33.8747 95.669 34.0522C94.7487 34.4393 94.3773 34.3748 94.3773 33.8263C94.3773 33.5037 94.5388 33.3585 95.2169 33.0682C96.3794 32.5681 97.8163 32.6649 98.6236 33.2779C99.4147 33.8747 99.8183 34.9555 99.56 35.8104C99.3501 36.5363 98.4298 37.4074 97.4934 37.73C96.0403 38.2623 95.2815 39.1172 95.6528 39.827C96.121 40.6981 97.2835 40.8916 98.4137 40.2948C99.0756 39.9399 99.0918 39.9399 99.3178 40.2464C99.6246 40.6497 99.5438 40.8271 98.9303 41.182C98.4137 41.4885 96.896 41.6659 96.2179 41.5207Z" fill="var(--fill-0, white)"/>
<path id="Vector_45" d="M127.636 41.5046C125.779 40.9078 124.73 39.3108 124.73 37.1009C124.73 35.6975 125.214 34.52 126.135 33.6973C126.958 32.9553 127.765 32.6811 128.847 32.794C130.268 32.9391 131.204 33.5844 131.899 34.9071C132.254 35.5846 132.318 35.9072 132.318 37.1332C132.318 38.3752 132.254 38.6978 131.882 39.4721C131.398 40.44 130.736 41.0368 129.783 41.3917C129.17 41.6014 128.104 41.6659 127.636 41.5046ZM129.428 40.4238C130.575 39.9399 131.188 38.8269 131.188 37.2138C131.188 35.5523 130.671 34.5361 129.509 33.9231C128.427 33.3585 126.861 34.0683 126.248 35.391C124.94 38.2139 126.974 41.4401 129.428 40.4238Z" fill="var(--fill-0, white)"/>
<path id="Vector_46" d="M48.2011 38.1977C48.2172 34.5199 48.298 34.1973 49.3474 33.3585C50.4291 32.4874 52.5442 32.5842 53.5129 33.5682C54.2071 34.2618 54.3202 34.8587 54.3525 38.3107L54.3847 41.3755L53.8035 41.4239L53.2061 41.4723V38.3268C53.2061 36.6008 53.1416 35.0038 53.0447 34.778C52.8509 34.2618 51.9952 33.7134 51.3817 33.7134C50.6552 33.7134 49.8641 34.1328 49.5896 34.6651C49.3797 35.0522 49.3313 35.762 49.3313 38.3107V41.4562H48.7662H48.2011V38.1977Z" fill="var(--fill-0, white)"/>
<path id="Vector_47" d="M57.5171 41.3433C57.4849 41.2788 57.4364 39.3431 57.4203 37.0686L57.388 32.9069H57.9854H58.5827L58.4697 36.1492C58.3728 38.7946 58.389 39.3753 58.5666 39.3269C58.6796 39.2785 59.2124 38.4559 59.7613 37.488C62.3446 32.9069 62.2962 32.9875 62.942 32.9391L63.5393 32.8907L63.5716 36.9234C63.5716 39.1495 63.5878 41.0691 63.6039 41.182C63.6201 41.2949 63.4102 41.3755 63.055 41.3755H62.4899L62.5545 38.1655C62.6029 35.7943 62.5706 34.9716 62.4253 35.02C62.3284 35.0523 61.4243 36.504 60.4233 38.23C58.728 41.182 58.5827 41.3755 58.0984 41.4239C57.8239 41.4562 57.5656 41.4078 57.5171 41.3433Z" fill="var(--fill-0, white)"/>
<path id="Vector_48" d="M66.9297 37.1815V32.9068H67.4948H68.0599V37.1815V41.4562H67.4948H66.9297V37.1815Z" fill="var(--fill-0, white)"/>
<path id="Vector_49" d="M70.2071 41.182C70.2555 41.0207 70.7399 39.6173 71.2888 38.0687C71.8377 36.5202 72.4513 34.7458 72.645 34.1167L73.0163 32.9875H73.6944C74.3726 32.9875 74.3887 33.0036 74.6309 33.7134C74.8408 34.3425 75.9064 37.3428 76.9558 40.2786C77.3594 41.4078 77.3594 41.4562 76.7136 41.4562H76.1647L75.0829 38.1171C74.4856 36.2621 73.9205 34.6651 73.8075 34.5522C73.646 34.3909 73.42 34.9716 72.6773 37.2944C72.1606 38.9237 71.6924 40.4238 71.644 40.6496C71.531 41.2626 71.3049 41.4562 70.6914 41.4562C70.2232 41.4562 70.1425 41.4078 70.2071 41.182Z" fill="var(--fill-0, white)"/>
<path id="Vector_50" d="M79.5077 37.5848C79.4915 35.4555 79.4915 33.6005 79.4915 33.4714C79.4915 33.3424 79.4915 33.1649 79.5077 33.0682C79.5238 32.9714 80.4118 32.9068 81.8487 32.9068C83.8185 32.9068 84.1898 32.9391 84.2705 33.1649C84.319 33.3101 84.3028 33.5359 84.2221 33.6811C84.0929 33.907 83.7862 33.9553 82.317 33.9553H80.5733V35.4071V36.8589L82.2201 36.8105C83.8669 36.7621 83.8669 36.7621 83.9799 37.1654C84.1575 37.8751 83.9638 37.9397 82.2039 37.8751L80.5733 37.8267V39.1172V40.4077H82.3492H84.1252L84.1737 40.94L84.2221 41.4562H81.881H79.5238L79.5077 37.5848Z" fill="var(--fill-0, white)"/>
<path id="Vector_51" d="M86.9022 41.3432C86.8376 41.2948 86.7892 39.3591 86.7892 37.0686V32.9068H87.3543H87.9194V34.778V36.6653L88.7266 36.5846C89.1787 36.5363 89.6792 36.3749 89.8406 36.2298C90.0182 36.0685 90.3896 35.3587 90.6802 34.6328C90.9708 33.9069 91.2614 33.2294 91.3422 33.1327C91.5359 32.8746 92.4562 32.7616 92.5369 32.9875C92.6176 33.1649 91.213 36.0846 90.7448 36.7137C90.5026 37.0363 90.5187 37.0686 90.987 37.2621C91.6166 37.5202 91.9557 38.1655 91.9557 39.1011C91.9557 40.7625 90.9547 41.4562 88.549 41.4562C87.6933 41.4562 86.9506 41.4078 86.9022 41.3432ZM90.5026 40.0689C90.9224 39.6656 90.9708 38.7139 90.6156 38.1655C90.3089 37.7138 89.324 37.3751 88.5167 37.4557L88.0001 37.5041L87.9516 39.0204L87.9032 40.5206L89.0495 40.456C89.9052 40.4076 90.2604 40.327 90.5026 40.0689Z" fill="var(--fill-0, white)"/>
<path id="Vector_52" d="M102.289 41.2626C102.272 41.0852 102.289 33.3585 102.289 33.0198C102.289 32.9391 102.547 32.9068 102.87 32.9391L103.435 32.9875V37.0686C103.435 39.2946 103.419 41.2142 103.419 41.2949C103.419 41.5368 102.289 41.4884 102.289 41.2626Z" fill="var(--fill-0, white)"/>
<path id="Vector_53" d="M105.551 40.94L105.599 40.4077H106.81H108.021V36.6976V32.9875L108.634 32.9391L109.264 32.8907L109.216 36.6492L109.167 40.4077H110.378H111.573L111.621 40.94L111.67 41.4562H108.586H105.502L105.551 40.94Z" fill="var(--fill-0, white)"/>
<path id="Vector_54" d="M112.782 41.2626C112.782 41.1497 112.928 40.8271 113.105 40.5367C113.267 40.2625 113.848 39.1979 114.381 38.1816L115.366 36.3266V34.6167V32.9068H115.931H116.496V34.649V36.375L117.787 38.7139C118.498 39.9883 119.079 41.1336 119.079 41.2465C119.079 41.3755 118.869 41.4562 118.498 41.4562C117.933 41.4562 117.933 41.4562 117.061 39.6173C116.576 38.601 116.124 37.73 116.06 37.6977C115.979 37.6493 115.495 38.4558 114.962 39.4882C114.009 41.3594 113.993 41.3755 113.396 41.4239C112.976 41.4562 112.782 41.4078 112.782 41.2626Z" fill="var(--fill-0, white)"/>
<path id="Vector_55" d="M135.047 37.4235C135.031 35.2136 135.015 33.294 134.999 33.1972C134.983 33.0682 135.225 32.9714 135.596 32.9391L136.21 32.8907L136.177 34.8748L136.145 36.8589L137.695 36.8105C139.084 36.7621 139.245 36.7783 139.406 37.0686C139.519 37.2944 139.519 37.4558 139.358 37.6655C139.164 37.9235 138.97 37.9397 137.679 37.859C136.597 37.7784 136.21 37.7945 136.161 37.9558C136.129 38.0526 136.129 38.6817 136.161 39.3431L136.226 40.5206L137.937 40.4722L139.665 40.4077V40.8916V41.3755L137.372 41.4239L135.063 41.4723L135.047 37.4235Z" fill="var(--fill-0, white)"/>
<path id="Vector_56" d="M53.8528 25.4544C50.2201 24.4059 47.9759 22.2928 46.9749 18.9376C46.539 17.5019 46.5874 14.921 47.0556 13.5499C47.5723 12.082 48.3473 10.856 49.4451 9.82366C50.5753 8.75903 51.1888 8.37189 52.6581 7.79118C53.6591 7.40404 53.982 7.35565 55.871 7.35565C58.0829 7.33952 58.6318 7.45244 60.2786 8.29124C62.3452 9.33974 64.0405 11.3561 64.767 13.6144C65.2514 15.163 65.316 17.4213 64.9123 18.9376C64.0728 22.0992 61.5541 24.5188 58.212 25.406C57.211 25.6803 54.7085 25.6964 53.8528 25.4544ZM58.4704 24.0833C60.1495 23.2929 61.4734 21.4701 62.0062 19.2602C62.3129 17.9697 62.3129 14.9049 62.0062 13.6789C61.5864 12.0658 60.9567 10.9528 59.9073 9.92045C56.7105 6.75881 51.6248 8.22671 50.1394 12.7433C48.9123 16.4534 49.6712 20.841 51.9315 23.0187C53.6106 24.6479 56.3392 25.0995 58.4704 24.0833Z" fill="var(--fill-0, white)"/>
<path id="Vector_57" d="M110.215 25.3254C105.517 23.9865 102.627 19.2763 103.644 14.55C104.193 11.9529 105.42 10.1785 107.664 8.6945C109.262 7.646 110.441 7.33951 112.782 7.33951C114.494 7.35565 114.962 7.40404 115.85 7.72665C118.74 8.77516 120.984 11.2109 121.743 14.1306C122.05 15.3404 122.05 17.5664 121.743 18.7924C120.919 22.0347 118.352 24.5511 114.994 25.406C113.735 25.7286 111.507 25.6964 110.215 25.3254ZM113.928 24.5188C117.109 23.9059 119.079 20.8733 119.079 16.5341C119.079 13.7918 118.368 11.6787 116.915 10.0656C114.913 7.82344 111.168 7.646 108.843 9.69461C106.292 11.9207 105.581 17.3245 107.341 21.0346C108.633 23.7607 111.071 25.0511 113.928 24.5188Z" fill="var(--fill-0, white)"/>
<path id="Vector_58" d="M65.9946 24.9705C66.0269 24.6963 66.2207 24.5672 66.8503 24.3898C67.3024 24.2607 67.8513 24.0833 68.0935 24.0026C68.3841 23.8897 69.4013 22.696 71.2257 20.2603C72.7272 18.3085 74.0027 16.6793 74.0673 16.647C74.3902 16.5018 74.1319 15.905 73.4376 15.1307C73.0017 14.6629 71.7423 13.1143 70.6122 11.6948C69.4982 10.2592 68.3841 9.01712 68.1581 8.90421C67.9159 8.80742 67.4154 8.66225 67.0441 8.61385C66.0915 8.46868 65.7686 8.27511 65.8332 7.85571C65.8816 7.50083 65.9139 7.50083 69.0299 7.51696C72.1298 7.53309 72.1783 7.53309 72.2267 7.87184C72.2913 8.25898 71.7746 8.54933 71.0642 8.54933C70.8705 8.54933 70.5799 8.64612 70.4346 8.75903C70.1924 8.93647 70.2085 9.01712 70.6929 9.63009C71.8554 11.1625 73.2277 13.0498 73.9704 14.1629C74.3902 14.792 74.8261 15.3243 74.923 15.3243C75.0198 15.3243 75.2297 15.0984 75.3912 14.8403C75.5526 14.5661 76.5214 13.1627 77.5385 11.7432C78.5718 10.3076 79.4114 9.03325 79.4275 8.88808C79.4437 8.71064 79.1692 8.59772 78.3942 8.48481C77.4416 8.3235 77.3448 8.27511 77.3448 7.92023V7.53309L81.2681 7.51696C83.4316 7.51696 85.2398 7.54922 85.2883 7.62987C85.4497 7.9041 85.1268 8.38802 84.7232 8.48481C83.3993 8.75903 82.8988 8.9526 82.5436 9.33974C82.2368 9.67849 80.2671 12.2272 76.9089 16.6793C76.6344 17.0503 76.6505 17.0664 77.7807 18.4053C78.4104 19.1473 79.6051 20.6474 80.4447 21.7443C81.2842 22.8251 82.1238 23.7929 82.3014 23.8897C82.479 23.9865 83.1087 24.1801 83.6899 24.3253C84.594 24.5511 84.7878 24.664 84.8201 24.9705L84.8685 25.3254H81.6394C79.5728 25.3254 78.3781 25.2608 78.3135 25.1641C78.1359 24.8737 78.5234 24.5672 79.1692 24.4543C80.6061 24.1962 80.6384 24.0833 79.5405 22.696C78.4588 21.3088 77.2479 19.5828 76.7151 18.6795C76.4729 18.2439 76.1823 17.9052 76.0693 17.9052C75.9724 17.9052 75.4235 18.5988 74.8584 19.4538C74.2772 20.3087 73.3569 21.6637 72.7918 22.4541C72.2106 23.2445 71.7746 23.9704 71.8231 24.0833C71.8554 24.1962 72.3559 24.3575 72.921 24.4382C73.7928 24.5672 73.9543 24.6479 73.9543 24.9221C73.9543 25.2286 73.8251 25.2447 69.9502 25.2931L65.9462 25.3254L65.9946 24.9705Z" fill="var(--fill-0, white)"/>
<path id="Vector_59" d="M87.4345 25.0028C87.4345 24.6318 87.7897 24.4543 88.8876 24.2769C90.26 24.051 90.1792 24.5995 90.1792 16.4373C90.1792 8.30738 90.26 8.80743 88.9199 8.62999C87.7736 8.48481 87.4022 8.29125 87.4668 7.87184C87.5153 7.51697 87.5314 7.51697 91.5516 7.51697H95.5879L95.6363 7.87184C95.7009 8.30738 95.3134 8.48481 94.0218 8.62999C93.5213 8.67838 93.0369 8.82356 92.9401 8.93648C92.8432 9.04939 92.7625 10.4528 92.7625 12.5175L92.7302 15.8889L95.1358 15.9372C97.9613 15.9856 97.9613 15.9856 98.2842 14.3403C98.4779 13.3886 98.5264 13.3079 98.9461 13.2595L99.3821 13.2111V16.2921V19.3731L98.9461 19.3247C98.5425 19.2763 98.4779 19.1634 98.2357 18.2601C98.0904 17.7116 97.9128 17.1955 97.8644 17.1309C97.7514 17.018 92.9078 16.7599 92.7786 16.8728C92.6979 16.9535 92.7625 24.2607 92.8594 24.3575C92.9078 24.3898 94.264 24.4059 95.8785 24.3898C99.3336 24.3253 99.1399 24.4382 99.705 22.3573C100.092 20.9217 100.335 20.5507 100.754 20.712C100.948 20.7765 100.997 21.1959 100.997 23.0671V25.3254H94.2156C87.5153 25.3254 87.4345 25.3254 87.4345 25.0028Z" fill="var(--fill-0, white)"/>
<path id="Vector_60" d="M123.956 24.9705C123.988 24.664 124.182 24.5672 125.07 24.3575C126.813 23.9542 126.668 24.7124 126.668 16.4373C126.668 8.30736 126.749 8.80741 125.409 8.62997C124.279 8.4848 123.891 8.29123 123.956 7.87182C124.004 7.53308 124.036 7.51695 128.008 7.51695C131.754 7.50082 132.012 7.51695 132.093 7.8073C132.238 8.24283 131.996 8.38801 130.769 8.56545C130.155 8.66223 129.574 8.82354 129.461 8.92033C129.235 9.16229 129.122 15.2597 129.348 15.4694C129.429 15.5501 129.994 15.5501 130.591 15.4856C132.012 15.3243 132.093 15.2597 134.902 11.2916C136.129 9.54943 137.276 8.017 137.437 7.87182C137.663 7.67825 138.212 7.61373 140.069 7.56534C142.394 7.50082 142.41 7.50082 142.458 7.85569C142.523 8.29123 142.151 8.4848 141.005 8.62997C140.585 8.67836 140.069 8.87193 139.826 9.04937C139.6 9.24294 138.551 10.5173 137.502 11.9045C136.452 13.3079 135.274 14.7435 134.902 15.1146C134.256 15.7437 134.159 16.1308 134.66 16.1308C135.128 16.1308 136.355 16.776 137.017 17.3729C139.358 19.486 138.729 23.2929 135.79 24.664C134.547 25.2447 133.804 25.3254 128.799 25.3254H123.907L123.956 24.9705ZM131.479 24.3575C133.288 24.1962 133.901 23.9381 134.66 23.0348C135.516 22.0185 135.774 20.5668 135.37 18.9537C135.144 18.0504 134.289 17.0503 133.449 16.7115C132.561 16.3566 129.251 16.1792 129.235 16.4857C129.187 17.4374 129.284 24.293 129.348 24.3898C129.445 24.5511 129.397 24.5511 131.479 24.3575Z" fill="var(--fill-0, white)"/>
<path id="Vector_61" d="M143.781 24.9382C143.781 24.5834 143.878 24.535 144.911 24.3414C145.541 24.2285 146.122 24.051 146.203 23.9381C146.461 23.6478 146.461 9.25909 146.203 8.95261C146.106 8.82356 145.67 8.67838 145.267 8.62999C144.136 8.48481 143.749 8.27511 143.814 7.88797C143.862 7.54923 143.91 7.5331 148.302 7.50083C154.243 7.45244 156.036 7.66214 157.892 8.5816C159.927 9.59784 161.541 11.7271 162.009 14.0015C162.478 16.2599 162.074 19.2763 161.057 21.0668C160.153 22.6154 158.506 24.0672 156.956 24.6318C155.244 25.2609 154.615 25.3092 149.158 25.3254H143.781V24.9382ZM153.178 24.2769C154.97 24.1801 156.1 23.7607 157.004 22.8735C158.538 21.3572 159.119 19.7602 159.232 16.8567C159.313 15.0501 159.265 14.55 158.974 13.4047C158.603 11.8884 158.054 10.8722 157.23 10.0495C156.052 8.92035 154.809 8.5816 151.596 8.53321C149.723 8.51708 149.206 8.54934 149.093 8.72678C148.932 8.98487 148.883 23.8575 149.045 24.2607C149.142 24.535 148.98 24.535 153.178 24.2769Z" fill="var(--fill-0, white)"/>
</g>
</svg>
